SplineFontDB: 3.2
FontName: Estedad-FD-Light
FullName: Estedad-FD Light
FamilyName: Estedad-FD Light
Weight: Light
Copyright: Copyright (c) 2020 by Amin Abedi (@aminabedi68)-www.fontamin.com,\nwith Reserved Font Name Estedad.\n\nThis Font Software is licensed under the SIL Open Font License, Version 1.1.
Version: 5.0
ItalicAngle: 0
UnderlinePosition: -750
UnderlineWidth: 150
Ascent: 1392
Descent: 656
InvalidEm: 0
LayerCount: 2
Layer: 0 0 "Back" 1
Layer: 1 0 "Estedad" 0
StyleMap: 0x0040
FSType: 0
OS2Version: 0
OS2_WeightWidthSlopeOnly: 0
OS2_UseTypoMetrics: 0
CreationTime: 1606825863
ModificationTime: 1612945892
PfmFamily: 17
TTFWeight: 300
TTFWidth: 5
LineGap: 0
VLineGap: 0
OS2TypoAscent: 2400
OS2TypoAOffset: 0
OS2TypoDescent: -1200
OS2TypoDOffset: 0
OS2TypoLinegap: 0
OS2WinAscent: 2400
OS2WinAOffset: 0
OS2WinDescent: 1200
OS2WinDOffset: 0
HheadAscent: 2400
HheadAOffset: 0
HheadDescent: -1200
HheadDOffset: 0
OS2CapHeight: 1500
OS2XHeight: 1090
OS2Vendor: 'amin'
Lookup: 4 0 0 "'ccmp' Glyph Composition Decomposition lookup 0" { "'ccmp' Glyph Composition Decomposition lookup 0 subtable"  } ['ccmp' ('DFLT' <'dflt' > 'arab' <'FAR ' 'MLY ' 'SND ' 'URD ' 'dflt' > ) ]
Lookup: 1 1 0 "'locl' Localized Forms in Arabic lookup 5" { "'locl' Localized Forms in Arabic lookup 5 subtable"  } ['locl' ('arab' <'URD ' > ) ]
Lookup: 1 1 0 "'locl' Localized Forms in Arabic lookup 6" { "'locl' Localized Forms in Arabic lookup 6 subtable"  } ['locl' ('arab' <'FAR ' > ) ]
Lookup: 1 0 0 "Single Substitution 1" { "Single Substitution 1 subtable"  } []
Lookup: 1 0 0 "Single Substitution 2" { "Single Substitution 2 subtable"  } []
Lookup: 1 9 0 "'isol' Isolated Forms in Arabic lookup 11" { "'isol' Isolated Forms in Arabic lookup 11 subtable"  } ['isol' ('DFLT' <'dflt' > 'arab' <'FAR ' 'MLY ' 'SND ' 'URD ' 'dflt' > ) ]

StartChar: A
Encoding: 65 65 0
GlifName: A_
Width: 1229
VWidth: 0
GlyphClass: 2
Flags: HW
LayerCount: 2
Fore
SplineSet
307 387 m 257
 165 0 l 257
 14 0 l 257
 531 1375 l 257
 701 1375 l 257
 1216 0 l 257
 1064 0 l 257
 923 387 l 257
 307 387 l 257
347 503 m 257
 883 503 l 257
 616 1231 l 257
 347 503 l 257
EndSplineSet
Substitution2: "'c2sc' Capitals to Small Capitals in Latin lookup 0 subtable" uni1D00
EndChar

StartChar: AE
Encoding: 198 198 1
GlifName: A_E_
Width: 1504
VWidth: 0
GlyphClass: 2
Flags: HW
LayerCount: 2
Fore
SplineSet
713 1251 m 257
 650 1251 l 257
 371 525 l 257
 713 525 l 257
 713 1251 l 257
566 1375 m 257
 1421 1375 l 257
 1421 1251 l 257
 855 1251 l 257
 855 746 l 257
 1365 746 l 257
 1365 628 l 257
 855 628 l 257
 855 122 l 257
 1421 122 l 257
 1421 0 l 257
 713 0 l 257
 713 408 l 257
 327 408 l 257
 170 0 l 257
 19 0 l 257
 566 1375 l 257
EndSplineSet
EndChar

StartChar: Arabic_Double_Dot_H.alt
Encoding: 1114113 -1 11
GlifName: A_rabic_D_ouble_D_ot_H_.alt
Width: 758
VWidth: 0
GlyphClass: 2
Flags: HW
LayerCount: 2
Fore
SplineSet
389 90 m 257
 494 196 l 257
 599 90 l 257
 494 -15 l 257
 389 90 l 257
150 90 m 257
 255 196 l 257
 360 90 l 257
 255 -15 l 257
 150 90 l 257
EndSplineSet
EndChar

StartChar: Arabic_Double_Dot_V.alt
Encoding: 1114115 -1 13
GlifName: A_rabic_D_ouble_D_ot_V_.alt
Width: 497
VWidth: 0
GlyphClass: 2
Flags: HW
LayerCount: 2
Fore
SplineSet
244 235 m 257
 139 340 l 257
 244 446 l 257
 349 340 l 257
 244 235 l 257
244 -4 m 257
 139 101 l 257
 244 207 l 257
 349 101 l 257
 244 -4 l 257
EndSplineSet
EndChar

StartChar: Arabic_Single_Dot
Encoding: 1114117 -1 15
GlifName: A_rabic_S_ingle_D_ot
Width: 466
VWidth: 0
GlyphClass: 2
Flags: HW
LayerCount: 2
Fore
SplineSet
97 129 m 257
 233 265 l 257
 369 129 l 257
 233 -6 l 257
 97 129 l 257
EndSplineSet
EndChar

StartChar: Arabic_Single_Dot.alt
Encoding: 1114118 -1 16
GlifName: A_rabic_S_ingle_D_ot.alt
Width: 446
VWidth: 0
GlyphClass: 2
Flags: HW
LayerCount: 2
Fore
SplineSet
102 121 m 257
 223 243 l 257
 345 121 l 257
 223 0 l 257
 102 121 l 257
EndSplineSet
EndChar

StartChar: B
Encoding: 66 66 23
GlifName: B_
Width: 1222
VWidth: 0
GlyphClass: 2
Flags: HW
LayerCount: 2
Fore
SplineSet
160 1375 m 257
 657 1375 l 258
 897 1375 1060 1241 1060 1007 c 256
 1060 862 990 754 875 699 c 257
 1021 654 1117 529 1117 359 c 256
 1117 124 957 0 711 0 c 258
 160 0 l 257
 160 1375 l 257
303 1251 m 257
 303 746 l 257
 645 746 l 258
 814 746 917 843 917 1001 c 256
 917 1159 814 1251 645 1251 c 258
 303 1251 l 257
303 634 m 257
 303 122 l 257
 703 122 l 258
 872 122 976 219 976 377 c 256
 976 535 872 634 703 634 c 258
 303 634 l 257
EndSplineSet
Substitution2: "'c2sc' Capitals to Small Capitals in Latin lookup 0 subtable" uni0299
EndChar

StartChar: C
Encoding: 67 67 24
GlifName: C_
Width: 1359
VWidth: 0
GlyphClass: 2
Flags: HW
LayerCount: 2
Fore
SplineSet
263 687 m 256
 263 344 409 112 708 112 c 256
 926 112 1051 255 1093 400 c 257
 1235 386 l 257
 1193 192 1013 -11 710 -11 c 256
 335 -11 120 260 120 687 c 256
 120 1114 335 1385 710 1385 c 256
 1013 1385 1193 1182 1235 988 c 257
 1093 974 l 257
 1051 1119 926 1262 708 1262 c 256
 409 1262 263 1030 263 687 c 256
EndSplineSet
Substitution2: "'c2sc' Capitals to Small Capitals in Latin lookup 0 subtable" uni1D04
EndChar

StartChar: D
Encoding: 68 68 30
GlifName: D_
Width: 1357
VWidth: 0
GlyphClass: 2
Flags: HW
LayerCount: 2
Fore
SplineSet
1221 687 m 256
 1221 297 1020 0 608 0 c 258
 200 0 l 257
 200 1375 l 257
 608 1375 l 258
 1020 1375 1221 1077 1221 687 c 256
1077 687 m 256
 1077 1022 933 1251 608 1251 c 258
 342 1251 l 257
 342 122 l 257
 608 122 l 258
 933 122 1077 353 1077 687 c 256
EndSplineSet
Substitution2: "'c2sc' Capitals to Small Capitals in Latin lookup 0 subtable" uni1D05
EndChar

StartChar: E
Encoding: 69 69 33
GlifName: E_
Width: 1075
VWidth: 0
GlyphClass: 2
Flags: HW
LayerCount: 2
Fore
SplineSet
1005 122 m 257
 1005 0 l 257
 200 0 l 257
 200 1375 l 257
 1005 1375 l 257
 1005 1251 l 257
 342 1251 l 257
 342 746 l 257
 949 746 l 257
 949 628 l 257
 342 628 l 257
 342 122 l 257
 1005 122 l 257
EndSplineSet
Substitution2: "'c2sc' Capitals to Small Capitals in Latin lookup 0 subtable" uni1D07
EndChar

StartChar: Eng
Encoding: 330 330 42
GlifName: E_ng
Width: 1394
VWidth: 0
GlyphClass: 2
Flags: HW
LayerCount: 2
Fore
SplineSet
235 1375 m 257
 378 1375 l 257
 378 0 l 257
 235 0 l 257
 235 1375 l 257
821 1385 m 256
 1130 1385 1278 1196 1278 876 c 258
 1278 246 l 258
 1278 63 1157 -11 998 -11 c 256
 942 -11 885 -1 835 15 c 257
 857 115 l 257
 886 108 929 102 969 102 c 256
 1079 102 1136 152 1136 261 c 258
 1136 876 l 258
 1136 1116 1019 1259 784 1259 c 256
 552 1259 415 1085 378 846 c 257
 325 847 l 257
 367 1164 530 1385 821 1385 c 256
EndSplineSet
EndChar

StartChar: F
Encoding: 70 70 46
GlifName: F_
Width: 1066
VWidth: 0
GlyphClass: 2
Flags: HW
LayerCount: 2
Fore
SplineSet
342 0 m 257
 200 0 l 257
 200 1375 l 257
 1005 1375 l 257
 1005 1251 l 257
 342 1251 l 257
 342 698 l 257
 939 698 l 257
 939 581 l 257
 342 581 l 257
 342 0 l 257
EndSplineSet
Substitution2: "'c2sc' Capitals to Small Capitals in Latin lookup 0 subtable" uniA730
EndChar

StartChar: G
Encoding: 71 71 47
GlifName: G_
Width: 1376
VWidth: 0
GlyphClass: 2
Flags: HW
LayerCount: 2
Fore
SplineSet
693 698 m 257
 1265 698 l 257
 1265 193 l 257
 1160 65 953 -11 739 -11 c 256
 341 -11 110 243 110 682 c 256
 110 1114 342 1385 711 1385 c 256
 946 1385 1137 1250 1219 1025 c 257
 1105 981 l 257
 1042 1156 894 1262 710 1262 c 256
 423 1262 253 1047 253 682 c 256
 253 307 420 112 741 112 c 256
 874 112 1053 166 1123 226 c 257
 1123 581 l 257
 693 581 l 257
 693 698 l 257
EndSplineSet
Substitution2: "'c2sc' Capitals to Small Capitals in Latin lookup 0 subtable" uni0262
EndChar

StartChar: GAFbar
Encoding: 1114122 -1 48
GlifName: G_A_F_bar
Width: 1099
VWidth: 0
GlyphClass: 2
Flags: HW
LayerCount: 2
Fore
SplineSet
848 2031 m 257
 867 1947 l 257
 601 1884 329 1773 99 1628 c 257
 53 1702 l 257
 291 1851 571 1966 848 2031 c 257
EndSplineSet
EndChar

StartChar: H
Encoding: 72 72 53
GlifName: H_
Width: 1410
VWidth: 0
GlyphClass: 2
Flags: HW
LayerCount: 2
Fore
SplineSet
1067 1375 m 257
 1210 1375 l 257
 1210 0 l 257
 1067 0 l 257
 1067 627 l 257
 342 627 l 257
 342 0 l 257
 200 0 l 257
 200 1375 l 257
 342 1375 l 257
 342 747 l 257
 1067 747 l 257
 1067 1375 l 257
EndSplineSet
Substitution2: "'c2sc' Capitals to Small Capitals in Latin lookup 0 subtable" uni029C
EndChar

StartChar: I
Encoding: 73 73 63
GlifName: I_
Width: 628
VWidth: 0
GlyphClass: 2
Flags: HW
LayerCount: 2
Fore
SplineSet
385 0 m 257
 243 0 l 257
 243 1375 l 257
 385 1375 l 257
 385 0 l 257
EndSplineSet
Substitution2: "'c2sc' Capitals to Small Capitals in Latin lookup 0 subtable" uni026A
EndChar

StartChar: J
Encoding: 74 74 74
GlifName: J_
Width: 725
VWidth: 0
GlyphClass: 2
Flags: HW
LayerCount: 2
Fore
SplineSet
84 15 m 257
 106 115 l 257
 135 108 177 102 217 102 c 256
 327 102 385 152 385 261 c 258
 385 1375 l 257
 527 1375 l 257
 527 246 l 258
 527 63 406 -11 247 -11 c 256
 191 -11 134 -1 84 15 c 257
EndSplineSet
Substitution2: "'c2sc' Capitals to Small Capitals in Latin lookup 0 subtable" uni1D0A
EndChar

StartChar: K
Encoding: 75 75 76
GlifName: K_
Width: 1227
VWidth: 0
GlyphClass: 2
Flags: HW
LayerCount: 2
Fore
SplineSet
1020 1375 m 257
 1195 1375 l 257
 602 687 l 257
 1195 0 l 257
 1020 0 l 257
 517 587 l 257
 342 387 l 257
 342 0 l 257
 200 0 l 257
 200 1375 l 257
 342 1375 l 257
 342 587 l 257
 1020 1375 l 257
EndSplineSet
Substitution2: "'c2sc' Capitals to Small Capitals in Latin lookup 0 subtable" uni1D0B
EndChar

StartChar: K.alt
Encoding: 1114130 -1 77
GlifName: K_.alt
Width: 1227
VWidth: 0
GlyphClass: 2
Flags: HW
LayerCount: 2
Fore
SplineSet
1020 1375 m 257
 1195 1375 l 257
 602 687 l 257
 1195 0 l 257
 1020 0 l 257
 484 630 l 257
 342 630 l 257
 342 0 l 257
 200 0 l 257
 200 1375 l 257
 342 1375 l 257
 342 746 l 257
 481 746 l 257
 1020 1375 l 257
EndSplineSet
Substitution2: "'c2sc' Capitals to Small Capitals in Latin lookup 0 subtable" uni1D0B
EndChar

StartChar: L
Encoding: 76 76 78
GlifName: L_
Width: 1048
VWidth: 0
GlyphClass: 2
Flags: HW
LayerCount: 2
Fore
SplineSet
991 122 m 257
 991 0 l 257
 200 0 l 257
 200 1375 l 257
 342 1375 l 257
 342 122 l 257
 991 122 l 257
EndSplineSet
Substitution2: "'c2sc' Capitals to Small Capitals in Latin lookup 0 subtable" uni029F
EndChar

StartChar: M
Encoding: 77 77 83
GlifName: M_
Width: 1849
VWidth: 0
GlyphClass: 2
Flags: HW
LayerCount: 2
Fore
SplineSet
342 0 m 257
 200 0 l 257
 200 1375 l 257
 396 1375 l 257
 903 120 l 257
 1455 1375 l 257
 1651 1375 l 257
 1651 0 l 257
 1509 0 l 257
 1509 1189 l 257
 988 0 l 257
 816 0 l 257
 342 1183 l 257
 342 0 l 257
EndSplineSet
Substitution2: "'c2sc' Capitals to Small Capitals in Latin lookup 0 subtable" uni1D0D
EndChar

StartChar: N
Encoding: 78 78 84
GlifName: N_
Width: 1422
VWidth: 0
GlyphClass: 2
Flags: HW
LayerCount: 2
Fore
SplineSet
1081 1375 m 257
 1223 1375 l 257
 1223 0 l 257
 1061 0 l 257
 342 1169 l 257
 342 0 l 257
 200 0 l 257
 200 1375 l 257
 362 1375 l 257
 1081 205 l 257
 1081 1375 l 257
EndSplineSet
Substitution2: "'c2sc' Capitals to Small Capitals in Latin lookup 0 subtable" uni0274
EndChar

StartChar: O
Encoding: 79 79 88
GlifName: O_
Width: 1520
VWidth: 0
GlyphClass: 2
Flags: HW
LayerCount: 2
Fore
SplineSet
760 1385 m 256
 1170 1385 1365 1084 1365 687 c 256
 1365 290 1169 -11 760 -11 c 256
 351 -11 155 290 155 687 c 256
 155 1084 350 1385 760 1385 c 256
760 1261 m 256
 447 1261 298 1022 298 687 c 256
 298 351 446 112 760 112 c 256
 1074 112 1223 352 1223 687 c 256
 1223 1023 1073 1261 760 1261 c 256
EndSplineSet
Substitution2: "'c2sc' Capitals to Small Capitals in Latin lookup 0 subtable" uni1D0F
EndChar

StartChar: OE
Encoding: 338 338 89
GlifName: O_E_
Width: 1657
VWidth: 0
GlyphClass: 2
Flags: HW
LayerCount: 2
Fore
SplineSet
891 1251 m 257
 765 1251 l 258
 458 1251 305 1021 305 687 c 256
 305 352 458 122 765 122 c 258
 891 122 l 257
 891 1251 l 257
1033 1251 m 257
 1033 746 l 257
 1544 746 l 257
 1544 628 l 257
 1033 628 l 257
 1033 122 l 257
 1599 122 l 257
 1599 0 l 257
 765 0 l 258
 371 0 161 290 161 687 c 256
 161 1084 371 1375 765 1375 c 258
 1599 1375 l 257
 1599 1251 l 257
 1033 1251 l 257
EndSplineSet
EndChar

StartChar: P
Encoding: 80 80 102
GlifName: P_
Width: 1178
VWidth: 0
GlyphClass: 2
Flags: HW
LayerCount: 2
Fore
SplineSet
303 0 m 257
 160 0 l 257
 160 1375 l 257
 667 1375 l 258
 922 1375 1071 1222 1071 979 c 256
 1071 736 923 581 667 581 c 258
 303 581 l 257
 303 0 l 257
303 1251 m 257
 303 704 l 257
 665 704 l 258
 841 704 930 818 930 979 c 256
 930 1140 842 1251 665 1251 c 258
 303 1251 l 257
EndSplineSet
Substitution2: "'c2sc' Capitals to Small Capitals in Latin lookup 0 subtable" uni1D18
EndChar

StartChar: R
Encoding: 82 82 105
GlifName: R_
Width: 1180
VWidth: 0
GlyphClass: 2
Flags: HW
LayerCount: 2
Fore
SplineSet
789 660 m 257
 1149 0 l 257
 1003 0 l 257
 660 660 l 257
 789 660 l 257
EndSplineSet
Refer: 102 80 N 1 0 0 1 0 0 2
Substitution2: "'c2sc' Capitals to Small Capitals in Latin lookup 0 subtable" uni0280
EndChar

StartChar: S
Encoding: 83 83 108
GlifName: S_
Width: 1179
VWidth: 0
GlyphClass: 2
Flags: HW
LayerCount: 2
Fore
SplineSet
108 399 m 257
 249 399 l 257
 249 210 412 113 605 113 c 256
 781 113 931 191 931 357 c 256
 931 527 750 579 585 627 c 256
 373 688 139 765 139 1021 c 256
 139 1248 328 1385 573 1385 c 256
 837 1385 1046 1227 1046 985 c 257
 905 985 l 257
 905 1158 759 1263 580 1263 c 256
 409 1263 281 1177 281 1025 c 256
 281 858 465 802 631 751 c 256
 842 688 1073 607 1073 358 c 256
 1073 111 855 -10 609 -10 c 256
 338 -10 108 131 108 399 c 257
EndSplineSet
Substitution2: "'c2sc' Capitals to Small Capitals in Latin lookup 0 subtable" uniA731
EndChar

StartChar: T
Encoding: 84 84 113
GlifName: T_
Width: 1326
VWidth: 0
GlyphClass: 2
Flags: HW
LayerCount: 2
Fore
SplineSet
735 0 m 257
 593 0 l 257
 593 1251 l 257
 100 1251 l 257
 100 1375 l 257
 1227 1375 l 257
 1227 1251 l 257
 735 1251 l 257
 735 0 l 257
EndSplineSet
Substitution2: "'c2sc' Capitals to Small Capitals in Latin lookup 0 subtable" uni1D1B
EndChar

StartChar: Thorn
Encoding: 222 222 123
GlifName: T_horn
Width: 1178
VWidth: 0
GlyphClass: 2
Flags: HW
LayerCount: 2
Fore
SplineSet
305 399 m 257
 659 399 l 258
 837 399 932 506 932 674 c 256
 932 843 836 946 659 946 c 258
 305 946 l 257
 305 399 l 257
305 0 m 257
 163 0 l 257
 163 1375 l 257
 305 1375 l 257
 305 1069 l 257
 659 1069 l 258
 904 1069 1075 917 1075 674 c 256
 1075 430 903 277 659 277 c 258
 305 277 l 257
 305 0 l 257
EndSplineSet
EndChar

StartChar: U
Encoding: 85 85 124
GlifName: U_
Width: 1366
VWidth: 0
GlyphClass: 2
Flags: HW
LayerCount: 2
Fore
SplineSet
1062 1375 m 257
 1205 1375 l 257
 1205 483 l 258
 1205 170 1007 -11 683 -11 c 256
 359 -11 161 170 161 483 c 258
 161 1375 l 257
 304 1375 l 257
 304 483 l 258
 304 250 444 115 683 115 c 256
 922 115 1062 250 1062 483 c 258
 1062 1375 l 257
EndSplineSet
Substitution2: "'c2sc' Capitals to Small Capitals in Latin lookup 0 subtable" uni1D1C
EndChar

StartChar: V
Encoding: 86 86 136
GlifName: V_
Width: 1229
VWidth: 0
GlyphClass: 2
Flags: HW
LayerCount: 2
Fore
SplineSet
614 143 m 257
 1064 1375 l 257
 1216 1375 l 257
 699 0 l 257
 529 0 l 257
 14 1375 l 257
 165 1375 l 257
 614 143 l 257
EndSplineSet
Substitution2: "'c2sc' Capitals to Small Capitals in Latin lookup 0 subtable" uni1D20
EndChar

StartChar: W
Encoding: 87 87 137
GlifName: W_
Width: 1858
VWidth: 0
GlyphClass: 2
Flags: HW
LayerCount: 2
Fore
SplineSet
1665 1375 m 257
 1813 1375 l 257
 1421 0 l 257
 1243 0 l 257
 929 1198 l 257
 609 0 l 257
 436 0 l 257
 45 1375 l 257
 192 1375 l 257
 532 168 l 257
 847 1375 l 257
 1011 1375 l 257
 1326 168 l 257
 1665 1375 l 257
EndSplineSet
Substitution2: "'c2sc' Capitals to Small Capitals in Latin lookup 0 subtable" uni1D21
EndChar

StartChar: X
Encoding: 88 88 142
GlifName: X_
Width: 1312
VWidth: 0
GlyphClass: 2
Flags: HW
LayerCount: 2
Fore
SplineSet
1281 0 m 257
 1111 0 l 257
 656 577 l 257
 202 0 l 257
 31 0 l 257
 571 687 l 257
 31 1375 l 257
 202 1375 l 257
 656 797 l 257
 1111 1375 l 257
 1281 1375 l 257
 740 687 l 257
 1281 0 l 257
EndSplineSet
Substitution2: "'c2sc' Capitals to Small Capitals in Latin lookup 0 subtable" uniA7EF
EndChar

StartChar: Y
Encoding: 89 89 143
GlifName: Y_
Width: 1190
VWidth: 0
GlyphClass: 2
Flags: HW
LayerCount: 2
Fore
SplineSet
1026 1375 m 257
 1189 1375 l 257
 666 593 l 257
 666 0 l 257
 523 0 l 257
 523 593 l 257
 1 1375 l 257
 166 1375 l 257
 595 715 l 257
 1026 1375 l 257
EndSplineSet
Substitution2: "'c2sc' Capitals to Small Capitals in Latin lookup 0 subtable" uni028F
EndChar

StartChar: Z
Encoding: 90 90 148
GlifName: Z_
Width: 1212
VWidth: 0
GlyphClass: 2
Flags: HW
LayerCount: 2
Fore
SplineSet
91 1253 m 257
 91 1375 l 257
 1121 1375 l 257
 1121 1250 l 257
 242 122 l 257
 1121 122 l 257
 1121 0 l 257
 91 0 l 257
 91 125 l 257
 970 1253 l 257
 91 1253 l 257
EndSplineSet
Substitution2: "'c2sc' Capitals to Small Capitals in Latin lookup 0 subtable" uni1D22
EndChar

StartChar: a
Encoding: 97 97 152
GlifName: a
Width: 1061
VWidth: 0
GlyphClass: 2
Flags: HW
LayerCount: 2
Fore
SplineSet
517 1036 m 256
 751 1036 909 925 909 722 c 258
 909 241 l 258
 909 147 939 97 1039 97 c 257
 1039 -0 l 257
 873 -11 767 60 767 239 c 258
 767 722 l 258
 767 859 660 921 513 921 c 256
 366 921 257 860 257 722 c 257
 131 722 l 257
 126 928 284 1036 517 1036 c 256
EndSplineSet
Refer: 1670 57355 N 1 0 0 1 -3 0 2
Substitution2: "'smcp' Lowercase to Small Capitals in Latin lookup 0 subtable" uni1D00
EndChar

StartChar: acute
Encoding: 180 180 156
GlifName: acute
Width: 558
VWidth: 0
GlyphClass: 2
Flags: HW
LayerCount: 2
Fore
SplineSet
305 1463 m 257
 433 1463 l 257
 237 1132 l 257
 125 1132 l 257
 305 1463 l 257
EndSplineSet
EndChar

StartChar: ae
Encoding: 230 230 158
GlifName: ae
Width: 1766
VWidth: 0
GlyphClass: 2
Flags: HW
LayerCount: 2
Fore
SplineSet
767 266 m 257
 767 722 l 258
 767 859 659 921 512 921 c 256
 365 921 257 860 257 722 c 257
 130 722 l 257
 125 928 284 1036 517 1036 c 256
 751 1036 909 925 909 722 c 258
 909 265 l 257
 767 266 l 257
104 268 m 256
 104 489 279 579 495 579 c 258
 898 579 l 257
 898 478 l 257
 502 478 l 258
 348 478 235 424 235 283 c 256
 235 172 292 100 443 100 c 256
 621 100 743 238 777 291 c 257
 830 275 l 257
 792 184 647 -13 398 -13 c 256
 216 -13 104 87 104 268 c 256
EndSplineSet
Refer: 225 101 N 1 0 0 1 683 0 2
Substitution2: "'c2sc' Capitals to Small Capitals in Latin lookup 0 subtable" uni1D01
Substitution2: "'smcp' Lowercase to Small Capitals in Latin lookup 0 subtable" uni1D01
EndChar

StartChar: ampersand
Encoding: 38 38 162
GlifName: ampersand
Width: 1351
VWidth: 0
GlyphClass: 2
Flags: HW
LayerCount: 2
Fore
SplineSet
209 1065 m 256
 209 1230 331 1383 553 1383 c 256
 758 1383 894 1247 894 1068 c 256
 894 868 734 761 542 658 c 256
 378 570 239 476 239 339 c 256
 239 185 379 115 544 115 c 256
 834 115 1051 357 1051 601 c 257
 1174 601 l 257
 1174 290 932 -9 547 -9 c 256
 296 -9 105 112 105 335 c 256
 105 528 263 647 466 756 c 256
 632 845 764 921 764 1068 c 256
 764 1187 681 1267 553 1267 c 256
 414 1267 338 1171 338 1072 c 256
 338 979 388 908 463 835 c 258
 1253 81 l 257
 1166 -11 l 257
 361 761 l 258
 269 849 209 948 209 1065 c 256
EndSplineSet
EndChar

StartChar: approxequal
Encoding: 8776 8776 164
GlifName: approxequal
Width: 1149
VWidth: 0
GlyphClass: 2
Flags: HW
LayerCount: 2
Fore
SplineSet
146 318 m 257
 225 426 305 475 395 475 c 256
 445 475 505 457 588 410 c 256
 661 369 715 351 751 351 c 256
 807 351 864 387 925 463 c 257
 997 402 l 257
 917 293 839 246 749 246 c 256
 698 246 637 265 552 313 c 256
 478 354 426 371 389 371 c 256
 333 371 280 337 221 260 c 257
 146 318 l 257
146 811 m 257
 225 919 305 969 395 969 c 256
 445 969 505 951 588 904 c 256
 661 863 715 845 751 845 c 256
 807 845 864 880 925 956 c 257
 997 896 l 257
 917 787 839 739 749 739 c 256
 698 739 637 758 552 806 c 256
 478 847 426 865 389 865 c 256
 333 865 280 831 221 754 c 257
 146 811 l 257
EndSplineSet
EndChar

StartChar: arrowboth
Encoding: 8596 8596 167
GlifName: arrowboth
Width: 1698
VWidth: 0
GlyphClass: 2
Flags: HW
LayerCount: 2
Fore
SplineSet
527 896 m 257
 592 831 l 257
 313 551 l 257
 360 564 l 257
 1338 564 l 257
 1385 551 l 257
 1106 831 l 257
 1171 896 l 257
 1548 519 l 257
 1171 142 l 257
 1106 207 l 257
 1385 487 l 257
 1338 474 l 257
 360 474 l 257
 313 487 l 257
 592 207 l 257
 527 142 l 257
 150 519 l 257
 527 896 l 257
EndSplineSet
EndChar

StartChar: arrowdown
Encoding: 8595 8595 168
GlifName: arrowdown
Width: 1054
VWidth: 0
GlyphClass: 2
Flags: HW
LayerCount: 2
Fore
SplineSet
572 1065 m 257
 572 255 l 257
 559 207 l 257
 839 487 l 257
 904 421 l 257
 527 44 l 257
 150 421 l 257
 215 487 l 257
 495 207 l 257
 482 255 l 257
 482 1065 l 257
 572 1065 l 257
EndSplineSet
EndChar

StartChar: arrowleft
Encoding: 8592 8592 169
GlifName: arrowleft
Width: 1320
VWidth: 0
GlyphClass: 2
Flags: HW
LayerCount: 2
Fore
SplineSet
1170 474 m 257
 360 474 l 257
 313 487 l 257
 592 207 l 257
 527 142 l 257
 150 519 l 257
 527 896 l 257
 592 831 l 257
 313 551 l 257
 360 564 l 257
 1170 564 l 257
 1170 474 l 257
EndSplineSet
EndChar

StartChar: arrowright
Encoding: 8594 8594 170
GlifName: arrowright
Width: 1320
VWidth: 0
GlyphClass: 2
Flags: HW
LayerCount: 2
Fore
SplineSet
150 564 m 257
 960 564 l 257
 1007 551 l 257
 728 831 l 257
 793 896 l 257
 1170 519 l 257
 793 142 l 257
 728 207 l 257
 1007 487 l 257
 960 474 l 257
 150 474 l 257
 150 564 l 257
EndSplineSet
EndChar

StartChar: arrowup
Encoding: 8593 8593 171
GlifName: arrowup
Width: 1054
VWidth: 0
GlyphClass: 2
Flags: HW
LayerCount: 2
Fore
SplineSet
482 -31 m 257
 482 779 l 257
 495 827 l 257
 215 547 l 257
 150 613 l 257
 527 990 l 257
 904 613 l 257
 839 547 l 257
 559 827 l 257
 572 779 l 257
 572 -31 l 257
 482 -31 l 257
EndSplineSet
EndChar

StartChar: arrowupdn
Encoding: 8597 8597 172
GlifName: arrowupdn
Width: 1054
VWidth: 0
GlyphClass: 2
Flags: HW
LayerCount: 2
Fore
SplineSet
527 1218 m 257
 904 841 l 257
 839 776 l 257
 559 1055 l 257
 572 1008 l 257
 572 30 l 257
 559 -17 l 257
 839 262 l 257
 904 197 l 257
 527 -180 l 257
 150 197 l 257
 215 262 l 257
 495 -17 l 257
 482 30 l 257
 482 1008 l 257
 495 1055 l 257
 215 776 l 257
 150 841 l 257
 527 1218 l 257
EndSplineSet
EndChar

StartChar: asciicircum
Encoding: 94 94 173
GlifName: asciicircum
Width: 777
VWidth: 0
GlyphClass: 2
Flags: HW
LayerCount: 2
Fore
SplineSet
653 1132 m 257
 541 1132 l 257
 389 1384 l 257
 236 1132 l 257
 125 1132 l 257
 313 1463 l 257
 465 1463 l 257
 653 1132 l 257
EndSplineSet
Substitution2: "'tnum' Tabular Numbers lookup 22 subtable" asciicircum.tnum
EndChar

StartChar: asciitilde
Encoding: 126 126 175
GlifName: asciitilde
Width: 1015
VWidth: 0
GlyphClass: 2
Flags: HW
LayerCount: 2
Fore
SplineSet
127 1166 m 257
 183 1283 259 1343 344 1343 c 256
 398 1343 444 1323 526 1276 c 256
 593 1237 633 1219 670 1219 c 256
 723 1219 770 1255 815 1345 c 257
 888 1308 l 257
 833 1188 760 1133 675 1133 c 256
 621 1133 569 1153 484 1202 c 256
 421 1239 379 1256 345 1256 c 256
 293 1256 246 1224 200 1131 c 257
 127 1166 l 257
EndSplineSet
EndChar

StartChar: asterisk
Encoding: 42 42 176
GlifName: asterisk
Width: 1248
VWidth: 0
GlyphClass: 2
Flags: HW
LayerCount: 2
Fore
SplineSet
200 1027 m 257
 234 1127 l 257
 574 1014 l 257
 572 1375 l 257
 677 1375 l 257
 675 1013 l 257
 1017 1127 l 257
 1049 1027 l 257
 708 917 l 257
 920 627 l 257
 836 566 l 257
 624 858 l 257
 414 566 l 257
 330 627 l 257
 542 917 l 257
 200 1027 l 257
EndSplineSet
Substitution2: "'tnum' Tabular Numbers lookup 22 subtable" asterisk.tnum
EndChar

StartChar: at
Encoding: 64 64 178
GlifName: at
Width: 1919
VWidth: 0
GlyphClass: 2
Flags: HW
LayerCount: 2
Fore
SplineSet
965 835 m 256
 781 835 619 701 619 408 c 256
 619 166 757 98 891 98 c 256
 1025 98 1156 196 1178 433 c 258
 1208 762 l 257
 1149 805 1086 835 965 835 c 256
965 932 m 256
 1141 932 1233 872 1319 805 c 257
 1272 292 l 258
 1271 276 1269 259 1269 249 c 256
 1269 150 1326 97 1419 97 c 256
 1582 97 1667 281 1667 501 c 256
 1667 866 1380 1197 983 1197 c 256
 592 1197 257 894 257 439 c 256
 257 -2 529 -250 990 -250 c 256
 1063 -250 1134 -236 1201 -217 c 257
 1238 -309 l 257
 1160 -332 1077 -347 989 -347 c 256
 461 -347 150 -48 150 440 c 256
 150 944 519 1293 976 1293 c 256
 1453 1293 1770 914 1770 498 c 256
 1770 249 1660 -7 1421 -7 c 256
 1302 -7 1217 50 1198 179 c 257
 1141 49 1001 -7 891 -7 c 256
 690 -7 513 127 513 408 c 256
 513 745 707 932 965 932 c 256
EndSplineSet
EndChar

StartChar: b
Encoding: 98 98 180
GlifName: b
Width: 1105
VWidth: 0
GlyphClass: 2
Flags: HW
LayerCount: 2
Fore
SplineSet
303 0 m 257
 161 0 l 257
 161 1432 l 257
 303 1432 l 257
 303 0 l 257
EndSplineSet
Refer: 1674 57359 N 1 0 0 1 -10 0 2
Substitution2: "'smcp' Lowercase to Small Capitals in Latin lookup 0 subtable" uni0299
EndChar

StartChar: backslash
Encoding: 92 92 181
GlifName: backslash
Width: 1157
VWidth: 0
GlyphClass: 2
Flags: HW
LayerCount: 2
Fore
SplineSet
982 0 m 257
 819 0 l 257
 168 1375 l 257
 333 1375 l 257
 982 0 l 257
EndSplineSet
Substitution2: "'tnum' Tabular Numbers lookup 22 subtable" backslash.tnum
EndChar

StartChar: bar
Encoding: 124 124 183
GlifName: bar
Width: 553
VWidth: 0
GlyphClass: 2
Flags: HW
LayerCount: 2
Fore
SplineSet
206 1389 m 257
 348 1389 l 257
 348 -441 l 257
 206 -441 l 257
 206 1389 l 257
EndSplineSet
Substitution2: "'tnum' Tabular Numbers lookup 22 subtable" bar.tnum
EndChar

StartChar: braceleft
Encoding: 123 123 185
GlifName: braceleft
Width: 852
VWidth: 0
GlyphClass: 2
Flags: HW
LayerCount: 2
Fore
SplineSet
228 663 m 257
 375 592 437 482 437 343 c 258
 437 125 l 258
 437 57 485 -1 559 -1 c 258
 740 -1 l 257
 740 -118 l 257
 556 -118 l 258
 411 -118 315 -17 315 112 c 258
 315 343 l 258
 315 478 224 574 115 603 c 257
 73 609 l 257
 73 717 l 257
 115 725 l 257
 224 754 315 850 315 985 c 258
 315 1213 l 258
 315 1342 410 1443 556 1443 c 258
 740 1443 l 257
 740 1327 l 257
 559 1327 l 258
 485 1327 437 1269 437 1201 c 258
 437 985 l 258
 437 845 373 733 228 663 c 257
EndSplineSet
Substitution2: "'tnum' Tabular Numbers lookup 22 subtable" braceleft.tnum
EndChar

StartChar: braceright
Encoding: 125 125 187
GlifName: braceright
Width: 852
VWidth: 0
GlyphClass: 2
Flags: HW
LayerCount: 2
Fore
SplineSet
624 661 m 257
 477 732 415 842 415 981 c 258
 415 1200 l 258
 415 1268 367 1325 293 1325 c 258
 112 1325 l 257
 112 1443 l 257
 296 1443 l 258
 441 1443 537 1342 537 1213 c 258
 537 981 l 258
 537 846 628 751 737 722 c 257
 779 715 l 257
 779 607 l 257
 737 599 l 257
 628 570 537 475 537 340 c 258
 537 111 l 258
 537 -18 442 -118 296 -118 c 258
 112 -118 l 257
 112 -2 l 257
 293 -2 l 258
 367 -2 415 56 415 124 c 258
 415 340 l 258
 415 480 479 591 624 661 c 257
EndSplineSet
Substitution2: "'tnum' Tabular Numbers lookup 22 subtable" braceright.tnum
EndChar

StartChar: bracketleft
Encoding: 91 91 189
GlifName: bracketleft
Width: 714
VWidth: 0
GlyphClass: 2
Flags: HW
LayerCount: 2
Fore
SplineSet
604 -1 m 257
 604 -118 l 257
 179 -118 l 257
 179 1443 l 257
 604 1443 l 257
 604 1327 l 257
 301 1327 l 257
 301 -1 l 257
 604 -1 l 257
EndSplineSet
Substitution2: "'tnum' Tabular Numbers lookup 22 subtable" bracketleft.tnum
EndChar

StartChar: bracketright
Encoding: 93 93 191
GlifName: bracketright
Width: 715
VWidth: 0
GlyphClass: 2
Flags: HW
LayerCount: 2
Fore
SplineSet
110 1325 m 257
 110 1443 l 257
 537 1443 l 257
 537 -118 l 257
 110 -118 l 257
 110 -2 l 257
 414 -2 l 257
 414 1325 l 257
 110 1325 l 257
EndSplineSet
Substitution2: "'tnum' Tabular Numbers lookup 22 subtable" bracketright.tnum
EndChar

StartChar: breve
Encoding: 728 728 193
GlifName: breve
Width: 877
VWidth: 0
GlyphClass: 2
Flags: HW
LayerCount: 2
Fore
SplineSet
749 1444 m 257
 749 1249 632 1132 439 1132 c 256
 246 1132 127 1249 127 1444 c 257
 217 1444 l 257
 217 1299 298 1219 439 1219 c 256
 580 1219 660 1299 660 1444 c 257
 749 1444 l 257
EndSplineSet
EndChar

StartChar: brokenbar
Encoding: 166 166 194
GlifName: brokenbar
Width: 480
VWidth: 0
GlyphClass: 2
Flags: HW
LayerCount: 2
Fore
SplineSet
312 868 m 257
 169 868 l 257
 169 1375 l 257
 312 1375 l 257
 312 868 l 257
312 0 m 257
 169 0 l 257
 169 511 l 257
 312 511 l 257
 312 0 l 257
EndSplineSet
EndChar

StartChar: bullet
Encoding: 8226 8226 195
GlifName: bullet
Width: 498
VWidth: 0
GlyphClass: 2
Flags: HW
LayerCount: 2
Fore
SplineSet
100 688 m 256
 100 771 162 837 249 837 c 256
 336 837 398 771 398 688 c 256
 398 605 336 538 249 538 c 256
 162 538 100 605 100 688 c 256
EndSplineSet
EndChar

StartChar: c
Encoding: 99 99 196
GlifName: c
Width: 1115
VWidth: 0
GlyphClass: 2
Flags: HW
LayerCount: 2
Fore
SplineSet
575 1035 m 256
 807 1035 959 916 1006 717 c 257
 872 701 l 257
 834 841 726 919 574 919 c 256
 381 919 249 794 249 514 c 256
 249 233 381 106 574 106 c 256
 726 106 834 186 872 326 c 257
 1006 311 l 257
 959 109 807 -11 575 -11 c 256
 286 -11 107 174 107 513 c 256
 107 852 286 1035 575 1035 c 256
EndSplineSet
Substitution2: "'smcp' Lowercase to Small Capitals in Latin lookup 0 subtable" uni1D04
EndChar

StartChar: caron
Encoding: 711 711 198
GlifName: caron
Width: 777
VWidth: 0
GlyphClass: 2
Flags: HW
LayerCount: 2
Fore
SplineSet
125 1463 m 257
 237 1463 l 257
 389 1211 l 257
 541 1463 l 257
 653 1463 l 257
 465 1132 l 257
 313 1132 l 257
 125 1463 l 257
EndSplineSet
EndChar

StartChar: cedilla
Encoding: 184 184 203
GlifName: cedilla
Width: 661
VWidth: 0
GlyphClass: 2
Flags: HW
LayerCount: 2
Fore
SplineSet
534 -276 m 256
 534 -386 448 -453 309 -453 c 256
 245 -453 183 -439 127 -411 c 257
 158 -340 l 257
 197 -361 255 -373 311 -373 c 256
 399 -373 448 -340 448 -281 c 256
 448 -214 386 -172 288 -172 c 256
 274 -172 260 -174 246 -175 c 257
 246 1 l 257
 323 1 l 257
 323 -104 l 257
 456 -104 534 -169 534 -276 c 256
EndSplineSet
EndChar

StartChar: circumflex
Encoding: 710 710 206
GlifName: circumflex
Width: 777
VWidth: 0
GlyphClass: 2
Flags: HW
LayerCount: 2
Fore
SplineSet
653 1132 m 257
 541 1132 l 257
 389 1384 l 257
 236 1132 l 257
 125 1132 l 257
 313 1463 l 257
 465 1463 l 257
 653 1132 l 257
EndSplineSet
EndChar

StartChar: comma
Encoding: 44 44 208
GlifName: comma
Width: 565
VWidth: 0
GlyphClass: 2
Flags: HW
LayerCount: 2
Fore
SplineSet
206 249 m 257
 355 249 l 257
 209 -212 l 257
 113 -169 l 257
 206 249 l 257
EndSplineSet
Substitution2: "'tnum' Tabular Numbers lookup 22 subtable" comma.tnum
EndChar

StartChar: copyright
Encoding: 169 169 210
GlifName: copyright
Width: 1908
VWidth: 0
GlyphClass: 2
Flags: HW
LayerCount: 2
Fore
SplineSet
259 763 m 256
 259 374 546 67 955 67 c 256
 1364 67 1651 374 1651 763 c 256
 1651 1152 1364 1458 955 1458 c 256
 546 1458 259 1152 259 763 c 256
147 763 m 256
 147 1198 464 1560 955 1560 c 256
 1446 1560 1763 1198 1763 763 c 256
 1763 327 1446 -35 955 -35 c 256
 464 -35 147 327 147 763 c 256
1234 994 m 257
 1179 947 l 257
 1113 1016 1048 1050 953 1050 c 256
 791 1050 688 915 688 766 c 256
 688 617 791 482 953 482 c 256
 1048 482 1113 516 1179 585 c 257
 1234 536 l 257
 1151 449 1075 405 949 405 c 256
 737 405 607 582 607 766 c 256
 607 950 737 1127 949 1127 c 256
 1075 1127 1151 1081 1234 994 c 257
EndSplineSet
EndChar

StartChar: currency
Encoding: 164 164 211
GlifName: currency
Width: 1330
VWidth: 0
GlyphClass: 2
Flags: HW
LayerCount: 2
Fore
SplineSet
895 99 m 257
 985 177 l 257
 1233 -101 l 257
 1143 -178 l 257
 895 99 l 257
346 177 m 257
 436 99 l 257
 189 -178 l 257
 99 -101 l 257
 346 177 l 257
985 837 m 257
 895 914 l 257
 1143 1192 l 257
 1233 1115 l 257
 985 837 l 257
436 914 m 257
 346 837 l 257
 99 1115 l 257
 189 1192 l 257
 436 914 l 257
EndSplineSet
Refer: 324 111 N 1 0 0 1 118 0 2
EndChar

StartChar: d
Encoding: 100 100 212
GlifName: d
Width: 1103
VWidth: 0
GlyphClass: 2
Flags: HW
LayerCount: 2
Fore
SplineSet
944 0 m 257
 801 0 l 257
 801 1389 l 257
 944 1389 l 257
 944 0 l 257
EndSplineSet
Refer: 1674 57359 N -1 0 0 -1 1115 1026 2
Substitution2: "'smcp' Lowercase to Small Capitals in Latin lookup 0 subtable" uni1D05
EndChar

StartChar: dagger
Encoding: 8224 8224 213
GlifName: dagger
Width: 1360
VWidth: 0
GlyphClass: 2
Flags: HW
LayerCount: 2
Fore
SplineSet
200 885 m 257
 200 1013 l 257
 1161 1013 l 257
 1161 885 l 257
 200 885 l 257
615 1375 m 257
 745 1375 l 257
 745 -473 l 257
 615 -473 l 257
 615 1375 l 257
EndSplineSet
EndChar

StartChar: daggerdbl
Encoding: 8225 8225 214
GlifName: daggerdbl
Width: 1360
VWidth: 0
GlyphClass: 2
Flags: HW
LayerCount: 2
Fore
SplineSet
200 -112 m 257
 200 17 l 257
 1161 17 l 257
 1161 -112 l 257
 200 -112 l 257
200 885 m 257
 200 1013 l 257
 1161 1013 l 257
 1161 885 l 257
 200 885 l 257
615 1375 m 257
 745 1375 l 257
 745 -473 l 257
 615 -473 l 257
 615 1375 l 257
EndSplineSet
EndChar

StartChar: degree
Encoding: 176 176 217
GlifName: degree
Width: 716
VWidth: 0
GlyphClass: 2
Flags: HW
LayerCount: 2
Fore
SplineSet
512 1362 m 256
 512 1449 445 1518 358 1518 c 256
 271 1518 204 1449 204 1362 c 256
 204 1275 271 1209 358 1209 c 256
 445 1209 512 1275 512 1362 c 256
589 1362 m 256
 589 1234 486 1132 358 1132 c 256
 230 1132 127 1234 127 1362 c 256
 127 1490 230 1593 358 1593 c 256
 486 1593 589 1490 589 1362 c 256
EndSplineSet
EndChar

StartChar: dieresis
Encoding: 168 168 218
GlifName: dieresis
Width: 786
VWidth: 0
GlyphClass: 2
Flags: HW
LayerCount: 2
Fore
SplineSet
127 1223 m 256
 127 1273 166 1312 218 1312 c 256
 270 1312 309 1273 309 1223 c 256
 309 1173 270 1132 218 1132 c 256
 166 1132 127 1173 127 1223 c 256
477 1223 m 256
 477 1273 516 1312 568 1312 c 256
 620 1312 659 1273 659 1223 c 256
 659 1173 620 1132 568 1132 c 256
 516 1132 477 1173 477 1223 c 256
EndSplineSet
EndChar

StartChar: dollar.alt
Encoding: 1114151 -1 222
GlifName: dollar.alt
Width: 1179
VWidth: 0
GlyphClass: 2
Flags: HW
LayerCount: 2
Fore
SplineSet
623 46 m 257
 623 -221 l 257
 539 -221 l 257
 539 46 l 257
 623 46 l 257
539 1332 m 257
 539 1587 l 257
 623 1587 l 257
 623 1332 l 257
 539 1332 l 257
EndSplineSet
Refer: 108 83 N 1 0 0 1 0 0 2
EndChar

StartChar: dotaccent
Encoding: 729 729 223
GlifName: dotaccent
Width: 512
VWidth: 0
GlyphClass: 2
Flags: HW
LayerCount: 2
Fore
SplineSet
127 1260 m 256
 127 1331 186 1388 257 1388 c 256
 328 1388 385 1331 385 1260 c 256
 385 1189 328 1132 257 1132 c 256
 186 1132 127 1189 127 1260 c 256
EndSplineSet
EndChar

StartChar: dotlessi
Encoding: 305 305 224
GlifName: dotlessi
Width: 495
VWidth: 0
GlyphClass: 2
Flags: HW
LayerCount: 2
Fore
SplineSet
177 1026 m 257
 319 1026 l 257
 319 0 l 257
 177 0 l 257
 177 1026 l 257
EndSplineSet
EndChar

StartChar: e
Encoding: 101 101 225
GlifName: e
Width: 1082
VWidth: 0
GlyphClass: 2
Flags: HW
LayerCount: 2
Fore
SplineSet
227 478 m 257
 233 259 342 107 556 107 c 256
 705 107 804 182 845 292 c 257
 979 261 l 257
 916 89 769 -11 553 -11 c 256
 255 -11 86 188 86 513 c 256
 86 840 261 1035 545 1035 c 256
 894 1035 1017 795 1005 478 c 257
 227 478 l 257
230 579 m 257
 861 579 l 257
 847 779 765 919 546 919 c 256
 358 919 242 784 230 579 c 257
EndSplineSet
Substitution2: "'smcp' Lowercase to Small Capitals in Latin lookup 0 subtable" uni1D07
EndChar

StartChar: eight.SC
Encoding: 1114152 -1 234
GlifName: eight.S_C_
Width: 895
VWidth: 0
GlyphClass: 2
Flags: HW
LayerCount: 2
Fore
SplineSet
449 1035 m 256
 628 1035 743 920 743 769 c 256
 743 672 698 576 607 533 c 257
 726 480 787 372 787 263 c 256
 787 104 667 -9 449 -9 c 256
 231 -9 108 104 108 265 c 256
 108 374 169 482 287 533 c 257
 197 576 151 672 151 769 c 256
 151 920 270 1035 449 1035 c 256
448 925 m 256
 341 925 274 857 274 750 c 256
 274 642 342 574 448 574 c 256
 554 574 621 642 621 750 c 256
 621 857 553 925 448 925 c 256
445 481 m 256
 321 481 235 398 235 280 c 256
 235 169 313 106 448 106 c 256
 583 106 660 168 660 278 c 256
 660 395 570 481 445 481 c 256
EndSplineSet
EndChar

StartChar: eight.onum
Encoding: 1114153 -1 235
GlifName: eight.onum
Width: 1113
VWidth: 0
GlyphClass: 2
Flags: HW
LayerCount: 2
Fore
SplineSet
558 1385 m 256
 795 1385 946 1207 946 1034 c 256
 946 899 878 779 761 716 c 257
 917 637 1005 488 1005 353 c 256
 1005 174 831 -12 558 -12 c 256
 284 -12 108 176 108 357 c 256
 108 493 196 641 351 717 c 257
 234 780 167 899 167 1033 c 256
 167 1206 321 1385 558 1385 c 256
558 1270 m 256
 406 1270 308 1145 308 1019 c 256
 308 864 406 765 557 765 c 256
 708 765 805 864 805 1019 c 256
 805 1146 709 1270 558 1270 c 256
553 654 m 256
 377 654 254 522 254 366 c 256
 254 231 367 108 557 108 c 256
 746 108 860 230 860 363 c 256
 860 518 731 654 553 654 c 256
EndSplineSet
EndChar

StartChar: emdash
Encoding: 8212 8212 239
GlifName: emdash
Width: 2048
VWidth: 0
GlyphClass: 2
Flags: HW
LayerCount: 2
Fore
SplineSet
1958 637 m 257
 1958 522 l 257
 90 522 l 257
 90 637 l 257
 1958 637 l 257
EndSplineSet
EndChar

StartChar: eng
Encoding: 331 331 241
GlifName: eng
Width: 1140
VWidth: 0
GlyphClass: 2
Flags: HW
LayerCount: 2
Fore
SplineSet
851 13 m 257
 993 13 l 257
 993 -229 l 258
 993 -412 866 -487 707 -487 c 256
 627 -487 558 -466 511 -435 c 257
 546 -341 l 257
 574 -360 621 -374 677 -374 c 256
 787 -374 851 -324 851 -215 c 258
 851 13 l 257
EndSplineSet
Refer: 312 110 N 1 0 0 1 0 0 2
EndChar

StartChar: eth
Encoding: 240 240 245
GlifName: eth
Width: 1107
VWidth: 0
GlyphClass: 2
Flags: HW
LayerCount: 2
Fore
SplineSet
553 919 m 256
 329 919 229 754 229 513 c 256
 229 272 328 106 553 106 c 256
 778 106 879 272 879 513 c 256
 879 754 777 919 553 919 c 256
543 1035 m 256
 676 1035 792 992 871 863 c 257
 806 1028 678 1198 567 1291 c 257
 385 1140 l 257
 331 1204 l 257
 503 1343 l 257
 449 1386 374 1422 313 1445 c 257
 347 1542 l 257
 415 1519 508 1472 589 1411 c 257
 749 1541 l 257
 800 1477 l 257
 647 1358 l 257
 886 1139 1021 825 1021 539 c 256
 1021 192 859 -11 554 -11 c 256
 249 -11 86 197 86 513 c 256
 86 844 265 1035 543 1035 c 256
EndSplineSet
EndChar

StartChar: exclam
Encoding: 33 33 246
GlifName: exclam
Width: 645
VWidth: 0
GlyphClass: 2
Flags: HW
LayerCount: 2
Fore
SplineSet
385 412 m 257
 261 412 l 257
 251 1375 l 257
 395 1375 l 257
 385 412 l 257
EndSplineSet
Refer: 357 46 N 1 0 0 1 29 0 2
Substitution2: "'tnum' Tabular Numbers lookup 22 subtable" exclam.tnum
EndChar

StartChar: f
Encoding: 102 102 249
GlifName: f
Width: 734
VWidth: 0
GlyphClass: 2
Flags: HW
LayerCount: 2
Fore
SplineSet
736 1396 m 257
 700 1302 l 257
 672 1321 626 1335 570 1335 c 256
 460 1335 396 1286 396 1177 c 258
 396 0 l 257
 253 0 l 257
 253 1190 l 258
 253 1373 381 1448 540 1448 c 256
 620 1448 689 1427 736 1396 c 257
EndSplineSet
Refer: 1669 57354 N 1 0 0 1 -33 409 2
Substitution2: "'smcp' Lowercase to Small Capitals in Latin lookup 0 subtable" uniA730
EndChar

StartChar: figuredash
Encoding: 8210 8210 250
GlifName: figuredash
Width: 1414
VWidth: 0
GlyphClass: 2
Flags: HW
LayerCount: 2
Fore
SplineSet
1291 637 m 257
 1291 522 l 257
 125 522 l 257
 125 637 l 257
 1291 637 l 257
EndSplineSet
EndChar

StartChar: filledbox
Encoding: 9632 9632 251
GlifName: filledbox
Width: 1054
VWidth: 0
GlyphClass: 2
Flags: HW
LayerCount: 2
Fore
SplineSet
197 662 m 257
 859 662 l 257
 859 0 l 257
 197 0 l 257
 197 662 l 257
EndSplineSet
EndChar

StartChar: five.SC
Encoding: 1114157 -1 253
GlifName: five.S_C_
Width: 871
VWidth: 0
GlyphClass: 2
Flags: HW
LayerCount: 2
Fore
SplineSet
113 291 m 257
 236 290 l 257
 236 175 308 107 433 107 c 256
 555 107 633 181 633 339 c 256
 633 490 571 577 430 577 c 256
 349 577 286 546 217 481 c 257
 125 527 l 257
 167 1026 l 257
 761 1026 l 257
 761 912 l 257
 274 912 l 257
 250 613 l 257
 307 654 372 683 452 683 c 256
 657 683 762 550 762 336 c 256
 762 111 634 -9 434 -9 c 256
 240 -9 113 105 113 291 c 257
EndSplineSet
EndChar

StartChar: five.onum
Encoding: 1114158 -1 254
GlifName: five.onum
Width: 1083
VWidth: 0
GlyphClass: 2
Flags: HW
LayerCount: 2
Fore
SplineSet
174 -141 m 257
 254 -182 357 -213 469 -213 c 256
 698 -213 831 -118 831 98 c 256
 831 300 709 400 512 400 c 256
 403 400 293 368 216 327 c 257
 141 376 l 257
 191 1026 l 257
 962 1026 l 257
 962 909 l 257
 309 909 l 257
 274 468 l 257
 337 497 431 520 516 520 c 256
 793 520 961 364 961 91 c 256
 961 -200 771 -348 470 -348 c 256
 338 -348 227 -313 119 -257 c 257
 174 -141 l 257
EndSplineSet
EndChar

StartChar: four.SC
Encoding: 1114160 -1 258
GlifName: four.S_C_
Width: 972
VWidth: 0
GlyphClass: 2
Flags: HW
LayerCount: 2
Fore
SplineSet
595 322 m 257
 595 877 l 257
 207 322 l 257
 595 322 l 257
595 209 m 257
 97 209 l 257
 97 345 l 257
 577 1026 l 257
 736 1026 l 257
 736 322 l 257
 914 322 l 257
 914 209 l 257
 736 209 l 257
 736 0 l 257
 595 0 l 257
 595 209 l 257
EndSplineSet
EndChar

StartChar: four.onum
Encoding: 1114161 -1 259
GlifName: four.onum
Width: 1181
VWidth: 0
GlyphClass: 2
Flags: HW
LayerCount: 2
Fore
SplineSet
747 117 m 257
 747 843 l 257
 221 117 l 257
 747 117 l 257
747 0 m 257
 97 0 l 257
 97 116 l 257
 750 1026 l 257
 889 1026 l 257
 889 117 l 257
 1123 117 l 257
 1123 0 l 257
 889 0 l 257
 889 -323 l 257
 747 -323 l 257
 747 0 l 257
EndSplineSet
EndChar

StartChar: g
Encoding: 103 103 261
GlifName: g
Width: 1105
VWidth: 0
GlyphClass: 2
Flags: HW
LayerCount: 2
Fore
SplineSet
530 -483 m 256
 284 -483 116 -365 121 -154 c 257
 248 -154 l 257
 248 -297 364 -369 525 -369 c 256
 686 -369 803 -297 803 -154 c 258
 803 1026 l 257
 946 1026 l 257
 946 -154 l 258
 946 -362 777 -483 530 -483 c 256
EndSplineSet
Refer: 1674 57359 N -1 0 0 -1 1117 1026 2
Substitution2: "'smcp' Lowercase to Small Capitals in Latin lookup 0 subtable" uni0262
EndChar

StartChar: g.alt
Encoding: 1114163 -1 262
GlifName: g.alt
Width: 1167
VWidth: 0
GlyphClass: 2
Flags: HW
LayerCount: 2
Fore
SplineSet
788 937 m 257
 852 1028 938 1089 1071 1089 c 257
 1071 987 l 257
 967 987 914 949 852 874 c 257
 788 937 l 257
567 1036 m 256
 818 1036 955 888 955 667 c 256
 955 446 817 295 567 295 c 256
 317 295 178 446 178 667 c 256
 178 888 316 1036 567 1036 c 256
1063 -155 m 256
 1063 -372 849 -488 566 -488 c 256
 274 -488 106 -400 106 -221 c 256
 106 -93 217 13 361 47 c 257
 440 -17 l 257
 313 -41 229 -119 229 -211 c 256
 229 -340 358 -381 566 -381 c 256
 773 -381 930 -303 930 -175 c 256
 930 -64 839 -35 589 -35 c 256
 298 -35 171 10 171 193 c 256
 171 285 232 377 313 424 c 257
 375 361 l 257
 319 322 281 263 281 212 c 256
 281 91 395 81 642 81 c 256
 961 81 1063 20 1063 -155 c 256
567 930 m 256
 411 930 321 837 321 667 c 256
 321 497 410 403 567 403 c 256
 724 403 813 497 813 667 c 256
 813 837 723 930 567 930 c 256
EndSplineSet
EndChar

StartChar: germandbls
Encoding: 223 223 267
GlifName: germandbls
Width: 1211
VWidth: 0
GlyphClass: 2
Flags: HW
LayerCount: 2
Fore
SplineSet
491 0 m 257
 506 120 l 257
 556 114 611 111 660 111 c 256
 847 111 961 176 961 273 c 256
 961 369 894 426 819 476 c 256
 733 533 634 613 634 737 c 256
 634 827 678 894 728 953 c 256
 783 1017 815 1088 815 1189 c 256
 815 1316 740 1429 566 1429 c 256
 387 1429 313 1315 313 1148 c 258
 313 0 l 257
 180 0 l 257
 180 1148 l 258
 180 1355 289 1547 566 1547 c 256
 836 1547 953 1356 953 1181 c 256
 953 1052 914 969 847 895 c 256
 794 838 762 799 762 741 c 256
 762 660 831 611 910 560 c 256
 997 504 1098 414 1098 265 c 256
 1098 68 898 -11 655 -11 c 256
 602 -11 546 -7 491 0 c 257
EndSplineSet
EndChar

StartChar: grave
Encoding: 96 96 268
GlifName: grave
Width: 558
VWidth: 0
GlyphClass: 2
Flags: HW
LayerCount: 2
Fore
SplineSet
433 1132 m 257
 321 1132 l 257
 125 1463 l 257
 253 1463 l 257
 433 1132 l 257
EndSplineSet
EndChar

StartChar: greater
Encoding: 62 62 269
GlifName: greater
Width: 733
VWidth: 0
GlyphClass: 2
Flags: HW
LayerCount: 2
Fore
SplineSet
153 193 m 257
 85 260 l 257
 519 655 l 257
 85 1050 l 257
 153 1118 l 257
 649 655 l 257
 153 193 l 257
EndSplineSet
EndChar

StartChar: guillemotleft.alt
Encoding: 1114164 -1 271
GlifName: guillemotleft.alt
Width: 876
VWidth: 0
GlyphClass: 2
Flags: HW
LayerCount: 2
Fore
SplineSet
422 658 m 256
 422 820 554 977 731 1106 c 257
 792 1028 l 257
 659 933 528 802 528 658 c 256
 528 514 659 381 792 286 c 257
 731 209 l 257
 554 338 422 496 422 658 c 256
85 658 m 256
 85 833 168 984 343 1164 c 257
 420 1095 l 257
 283 950 195 818 195 658 c 256
 195 498 283 364 420 219 c 257
 343 152 l 257
 168 332 85 483 85 658 c 256
EndSplineSet
EndChar

StartChar: guillemotright.alt
Encoding: 1114165 -1 273
GlifName: guillemotright.alt
Width: 876
VWidth: 0
GlyphClass: 2
Flags: HW
LayerCount: 2
Fore
SplineSet
455 658 m 256
 455 496 323 338 146 209 c 257
 85 286 l 257
 218 381 350 514 350 658 c 256
 350 802 218 933 85 1028 c 257
 146 1106 l 257
 323 977 455 820 455 658 c 256
792 658 m 256
 792 483 709 332 534 152 c 257
 457 219 l 257
 594 364 681 498 681 658 c 256
 681 818 594 950 457 1095 c 257
 534 1164 l 257
 709 984 792 833 792 658 c 256
EndSplineSet
EndChar

StartChar: h
Encoding: 104 104 274
GlifName: h
Width: 1140
VWidth: 0
GlyphClass: 2
Flags: HW
LayerCount: 2
Fore
SplineSet
299 0 m 257
 157 0 l 257
 157 1436 l 257
 299 1436 l 257
 299 0 l 257
EndSplineSet
Refer: 1672 57357 N 1 0 0 1 5 0 2
Substitution2: "'smcp' Lowercase to Small Capitals in Latin lookup 0 subtable" uni029C
EndChar

StartChar: hyphen
Encoding: 45 45 279
GlifName: hyphen
Width: 1105
VWidth: 0
GlyphClass: 2
Flags: HW
LayerCount: 2
Fore
SplineSet
978 637 m 257
 978 522 l 257
 127 522 l 257
 127 637 l 257
 978 637 l 257
EndSplineSet
Substitution2: "'tnum' Tabular Numbers lookup 22 subtable" hyphen.tnum
EndChar

StartChar: k
Encoding: 107 107 293
GlifName: k
Width: 1041
VWidth: 0
GlyphClass: 2
Flags: HW
LayerCount: 2
Fore
SplineSet
791 1026 m 257
 974 1026 l 257
 559 595 l 257
 1016 0 l 257
 835 0 l 257
 470 499 l 257
 303 335 l 257
 303 0 l 257
 161 0 l 257
 161 1436 l 257
 303 1436 l 257
 303 521 l 257
 791 1026 l 257
EndSplineSet
Substitution2: "'smcp' Lowercase to Small Capitals in Latin lookup 0 subtable" uni1D0B
EndChar

StartChar: k.alt
Encoding: 1114167 -1 294
GlifName: k.alt
Width: 1041
VWidth: 0
GlyphClass: 2
Flags: HW
LayerCount: 2
Fore
SplineSet
791 1026 m 257
 974 1026 l 257
 563 537 l 257
 1016 0 l 257
 835 0 l 257
 441 473 l 257
 303 473 l 257
 303 0 l 257
 161 0 l 257
 161 1436 l 257
 303 1436 l 257
 303 585 l 257
 441 585 l 257
 791 1026 l 257
EndSplineSet
Substitution2: "'smcp' Lowercase to Small Capitals in Latin lookup 0 subtable" uni1D0B
EndChar

StartChar: kgreenlandic
Encoding: 312 312 295
GlifName: kgreenlandic
Width: 976
VWidth: 0
GlyphClass: 2
Flags: HW
LayerCount: 2
Fore
SplineSet
156 1026 m 257
 298 1026 l 257
 298 482 l 257
 768 1026 l 257
 925 1026 l 257
 501 515 l 257
 941 0 l 257
 767 0 l 257
 414 411 l 257
 298 277 l 257
 298 0 l 257
 156 0 l 257
 156 1026 l 257
EndSplineSet
EndChar

StartChar: l
Encoding: 108 108 296
GlifName: l
Width: 470
VWidth: 0
GlyphClass: 2
Flags: HW
LayerCount: 2
Fore
SplineSet
307 0 m 257
 164 0 l 257
 164 1436 l 257
 307 1436 l 257
 307 0 l 257
EndSplineSet
Substitution2: "'smcp' Lowercase to Small Capitals in Latin lookup 0 subtable" uni029F
EndChar

StartChar: less
Encoding: 60 60 300
GlifName: less
Width: 733
VWidth: 0
GlyphClass: 2
Flags: HW
LayerCount: 2
Fore
SplineSet
581 1117 m 257
 649 1050 l 257
 215 655 l 257
 649 260 l 257
 581 192 l 257
 85 655 l 257
 581 1117 l 257
EndSplineSet
EndChar

StartChar: logicalnot
Encoding: 172 172 301
GlifName: logicalnot
Width: 1174
VWidth: 0
GlyphClass: 2
Flags: HW
LayerCount: 2
Fore
SplineSet
108 522 m 257
 108 636 l 257
 993 636 l 257
 993 269 l 257
 880 269 l 257
 880 522 l 257
 108 522 l 257
EndSplineSet
EndChar

StartChar: longs
Encoding: 383 383 302
GlifName: longs
Width: 734
VWidth: 0
GlyphClass: 2
Flags: HW
LayerCount: 2
Fore
SplineSet
736 1396 m 257
 700 1302 l 257
 672 1321 626 1335 570 1335 c 256
 460 1335 396 1286 396 1177 c 258
 396 0 l 257
 253 0 l 257
 253 1190 l 258
 253 1373 381 1448 540 1448 c 256
 620 1448 689 1427 736 1396 c 257
EndSplineSet
Refer: 1681 57366 N 1 0 0 1 -14 0 2
EndChar

StartChar: m
Encoding: 109 109 304
GlifName: m
Width: 1702
VWidth: 0
GlyphClass: 2
Flags: HW
LayerCount: 2
Fore
SplineSet
142 1026 m 257
 279 1026 l 257
 284 731 l 257
 284 0 l 257
 142 0 l 257
 142 1026 l 257
EndSplineSet
Refer: 1671 57356 N 1 0 0 1 -638 1 2
Refer: 1671 57356 N 1 0 0 1 8 1 2
Substitution2: "'smcp' Lowercase to Small Capitals in Latin lookup 0 subtable" uni1D0D
EndChar

StartChar: macron
Encoding: 175 175 305
GlifName: macron
Width: 982
VWidth: 0
GlyphClass: 2
Flags: HW
LayerCount: 2
Fore
SplineSet
855 1234 m 257
 855 1132 l 257
 127 1132 l 257
 127 1234 l 257
 855 1234 l 257
EndSplineSet
EndChar

StartChar: macron.alt
Encoding: 1114168 -1 306
GlifName: macron.alt
Width: 789
VWidth: 0
GlyphClass: 2
Flags: HW
LayerCount: 2
Fore
SplineSet
662 1234 m 257
 662 1132 l 257
 127 1132 l 257
 127 1234 l 257
 662 1234 l 257
EndSplineSet
EndChar

StartChar: minute
Encoding: 8242 8242 308
GlifName: minute
Width: 452
VWidth: 0
GlyphClass: 2
Flags: HW
LayerCount: 2
Fore
SplineSet
222 1375 m 257
 335 1375 l 257
 205 937 l 257
 117 937 l 257
 222 1375 l 257
EndSplineSet
EndChar

StartChar: mu
Encoding: 181 181 309
GlifName: mu
Width: 1140
VWidth: 0
GlyphClass: 2
Flags: HW
LayerCount: 2
Fore
SplineSet
147 1026 m 257
 289 1026 l 257
 289 -433 l 257
 147 -433 l 257
 147 1026 l 257
EndSplineSet
Refer: 422 117 N 1 0 0 1 0 0 2
EndChar

StartChar: multiply
Encoding: 215 215 310
GlifName: multiply
Width: 981
VWidth: 0
GlyphClass: 2
Flags: HW
LayerCount: 2
Fore
SplineSet
772 950 m 257
 852 869 l 257
 573 591 l 257
 852 311 l 257
 771 231 l 257
 492 509 l 257
 213 229 l 257
 131 310 l 257
 411 591 l 257
 131 871 l 257
 211 952 l 257
 492 671 l 257
 772 950 l 257
EndSplineSet
Substitution2: "'tnum' Tabular Numbers lookup 22 subtable" multiply.tnum
EndChar

StartChar: n
Encoding: 110 110 312
GlifName: n
Width: 1140
VWidth: 0
GlyphClass: 2
Flags: HW
LayerCount: 2
Fore
SplineSet
299 0 m 257
 157 0 l 257
 157 1026 l 257
 293 1026 l 257
 299 731 l 257
 299 0 l 257
EndSplineSet
Refer: 1672 57357 N 1 0 0 1 5 0 2
Substitution2: "'smcp' Lowercase to Small Capitals in Latin lookup 0 subtable" uni0274
EndChar

StartChar: nine.SC
Encoding: 1114170 -1 317
GlifName: nine.S_C_
Width: 907
VWidth: 0
GlyphClass: 2
Flags: HW
LayerCount: 2
Fore
SplineSet
439 468 m 256
 540 468 626 532 663 631 c 257
 660 831 566 921 444 921 c 257
 309 921 245 834 245 694 c 256
 245 559 313 468 439 468 c 256
432 -13 m 256
 250 -13 143 112 143 255 c 257
 255 255 l 257
 255 186 306 102 432 102 c 256
 609 102 668 293 667 503 c 257
 617 419 523 369 416 369 c 256
 229 369 120 501 120 698 c 256
 120 915 242 1035 439 1035 c 256
 693 1035 788 839 788 555 c 256
 788 208 684 -13 432 -13 c 256
EndSplineSet
EndChar

StartChar: nine.onum
Encoding: 1114171 -1 318
GlifName: nine.onum
Width: 1107
VWidth: 0
GlyphClass: 2
Flags: HW
LayerCount: 2
Fore
SplineSet
546 913 m 256
 373 913 259 795 259 607 c 256
 259 432 380 327 532 327 c 256
 702 327 846 456 907 617 c 257
 928 491 l 257
 861 334 703 208 510 208 c 256
 291 208 119 361 119 603 c 256
 119 865 289 1036 549 1036 c 256
 832 1036 993 833 993 474 c 256
 993 60 781 -187 349 -333 c 257
 300 -217 l 257
 682 -92 861 108 861 488 c 256
 861 756 753 913 546 913 c 256
EndSplineSet
EndChar

StartChar: numbersign
Encoding: 35 35 322
GlifName: numbersign
Width: 1707
VWidth: 0
GlyphClass: 2
Flags: HW
LayerCount: 2
Fore
SplineSet
1109 897 m 257
 721 897 l 257
 610 493 l 257
 997 493 l 257
 1109 897 l 257
471 -12 m 257
 343 -12 l 257
 453 386 l 257
 166 386 l 257
 166 493 l 257
 482 493 l 257
 593 897 l 257
 278 897 l 257
 278 1002 l 257
 623 1002 l 257
 727 1381 l 257
 855 1381 l 257
 752 1002 l 257
 1137 1002 l 257
 1243 1381 l 257
 1369 1381 l 257
 1265 1002 l 257
 1543 1002 l 257
 1543 897 l 257
 1236 897 l 257
 1125 493 l 257
 1431 493 l 257
 1431 386 l 257
 1096 386 l 257
 987 -12 l 257
 857 -12 l 257
 967 386 l 257
 581 386 l 257
 471 -12 l 257
EndSplineSet
Substitution2: "'tnum' Tabular Numbers lookup 22 subtable" numbersign.tnum
EndChar

StartChar: o
Encoding: 111 111 324
GlifName: o
Width: 1108
VWidth: 0
GlyphClass: 2
Flags: HW
LayerCount: 2
Fore
SplineSet
554 919 m 256
 361 919 229 794 229 513 c 256
 229 232 361 106 554 106 c 256
 747 106 879 232 879 513 c 256
 879 794 747 919 554 919 c 256
554 1035 m 256
 843 1035 1022 852 1022 513 c 256
 1022 174 842 -11 554 -11 c 256
 266 -11 86 174 86 513 c 256
 86 852 265 1035 554 1035 c 256
EndSplineSet
Substitution2: "'smcp' Lowercase to Small Capitals in Latin lookup 0 subtable" uni1D0F
EndChar

StartChar: ogonek
Encoding: 731 731 330
GlifName: ogonek
Width: 709
VWidth: 0
GlyphClass: 2
Flags: HW
LayerCount: 2
Fore
SplineSet
352 -492 m 256
 216 -492 127 -410 127 -286 c 256
 127 -238 142 -189 167 -145 c 258
 249 0 l 257
 249 2 l 257
 354 2 l 257
 354 0 l 257
 249 -191 l 257
 231 -221 221 -256 221 -289 c 256
 221 -361 269 -404 352 -404 c 256
 437 -404 487 -358 487 -281 c 257
 581 -280 l 257
 581 -408 490 -492 352 -492 c 256
EndSplineSet
EndChar

StartChar: one.SC
Encoding: 1114174 -1 336
GlifName: one.S_C_
Width: 637
VWidth: 0
GlyphClass: 2
Flags: HW
LayerCount: 2
Fore
SplineSet
369 725 m 257
 322 667 240 633 43 633 c 257
 43 749 l 257
 308 749 369 796 369 1026 c 257
 500 1026 l 257
 500 0 l 257
 369 0 l 257
 369 725 l 257
EndSplineSet
EndChar

StartChar: one.onum
Encoding: 1114175 -1 337
GlifName: one.onum
Width: 726
VWidth: 0
GlyphClass: 2
Flags: HW
LayerCount: 2
Fore
SplineSet
413 748 m 257
 358 665 247 636 50 636 c 257
 50 752 l 257
 315 752 413 796 413 1026 c 257
 554 1026 l 257
 554 0 l 257
 413 0 l 257
 413 748 l 257
EndSplineSet
EndChar

StartChar: ordfeminine
Encoding: 170 170 343
GlifName: ordfeminine
Width: 867
VWidth: 0
GlyphClass: 2
Flags: HW
LayerCount: 2
Fore
SplineSet
560 1502 m 257
 560 1591 l 258
 560 1674 492 1713 399 1713 c 256
 303 1713 242 1677 242 1589 c 257
 149 1589 l 257
 146 1729 249 1797 402 1797 c 256
 552 1797 661 1726 661 1591 c 258
 661 1289 l 258
 661 1228 680 1205 745 1205 c 257
 745 1131 l 257
 653 1126 591 1154 569 1227 c 257
 524 1172 446 1122 331 1122 c 256
 210 1122 133 1188 133 1305 c 256
 133 1447 248 1517 398 1517 c 256
 455 1517 511 1512 560 1502 c 257
560 1428 m 257
 516 1438 469 1442 408 1442 c 256
 293 1442 227 1392 227 1313 c 256
 227 1235 273 1203 358 1203 c 256
 465 1203 531 1268 560 1308 c 257
 560 1428 l 257
EndSplineSet
EndChar

StartChar: p
Encoding: 112 112 349
GlifName: p
Width: 1102
VWidth: 0
GlyphClass: 2
Flags: HW
LayerCount: 2
Fore
SplineSet
161 1026 m 257
 303 1026 l 257
 303 -465 l 257
 161 -465 l 257
 161 1026 l 257
EndSplineSet
Refer: 1674 57359 N 1 0 0 1 -10 0 2
Substitution2: "'smcp' Lowercase to Small Capitals in Latin lookup 0 subtable" uni1D18
EndChar

StartChar: paragraph
Encoding: 182 182 350
GlifName: paragraph
Width: 1362
VWidth: 0
GlyphClass: 2
Flags: HW
LayerCount: 2
Fore
SplineSet
1174 -473 m 257
 1059 -473 l 257
 1059 1251 l 257
 877 1251 l 257
 877 -473 l 257
 763 -473 l 257
 763 381 l 257
 567 381 l 258
 296 381 105 584 105 877 c 256
 105 1170 296 1375 567 1375 c 258
 1174 1375 l 257
 1174 -473 l 257
EndSplineSet
EndChar

StartChar: parenleft
Encoding: 40 40 351
GlifName: parenleft
Width: 666
VWidth: 0
GlyphClass: 2
Flags: HW
LayerCount: 2
Fore
SplineSet
459 1489 m 257
 559 1432 l 257
 379 1174 289 850 289 464 c 256
 289 78 379 -242 559 -501 c 257
 459 -559 l 257
 254 -263 155 62 155 464 c 256
 155 866 255 1193 459 1489 c 257
EndSplineSet
Substitution2: "'tnum' Tabular Numbers lookup 22 subtable" parenleft.tnum
EndChar

StartChar: parenright
Encoding: 41 41 353
GlifName: parenright
Width: 666
VWidth: 0
GlyphClass: 2
Flags: HW
LayerCount: 2
Fore
SplineSet
207 -559 m 257
 107 -502 l 257
 287 -244 377 80 377 466 c 256
 377 852 287 1172 107 1431 c 257
 207 1489 l 257
 412 1193 511 868 511 466 c 256
 511 64 411 -263 207 -559 c 257
EndSplineSet
Substitution2: "'tnum' Tabular Numbers lookup 22 subtable" parenright.tnum
EndChar

StartChar: period
Encoding: 46 46 357
GlifName: period
Width: 587
VWidth: 0
GlyphClass: 2
Flags: HW
LayerCount: 2
Fore
SplineSet
180 103 m 256
 180 166 229 214 294 214 c 256
 359 214 407 166 407 103 c 256
 407 40 359 -11 294 -11 c 256
 229 -11 180 40 180 103 c 256
EndSplineSet
Substitution2: "'tnum' Tabular Numbers lookup 22 subtable" period.tnum
EndChar

StartChar: periodcentered
Encoding: 183 183 359
GlifName: periodcentered
Width: 520
VWidth: 0
GlyphClass: 2
Flags: HW
LayerCount: 2
Fore
SplineSet
147 688 m 256
 147 751 196 799 261 799 c 256
 326 799 375 751 375 688 c 256
 375 625 326 575 261 575 c 256
 196 575 147 625 147 688 c 256
EndSplineSet
EndChar

StartChar: plus
Encoding: 43 43 361
GlifName: plus
Width: 1092
VWidth: 0
GlyphClass: 2
Flags: HW
LayerCount: 2
Fore
SplineSet
966 627 m 257
 966 511 l 257
 607 511 l 257
 607 149 l 257
 486 149 l 257
 486 511 l 257
 127 511 l 257
 127 627 l 257
 486 627 l 257
 486 989 l 257
 607 989 l 257
 607 627 l 257
 966 627 l 257
EndSplineSet
Substitution2: "'tnum' Tabular Numbers lookup 22 subtable" plus.tnum
EndChar

StartChar: q
Encoding: 113 113 365
GlifName: q
Width: 1103
VWidth: 0
GlyphClass: 2
Flags: HW
LayerCount: 2
Fore
SplineSet
801 1026 m 257
 944 1026 l 257
 944 -467 l 257
 801 -467 l 257
 801 1026 l 257
EndSplineSet
Refer: 1674 57359 N -1 0 0 -1 1115 1026 2
Substitution2: "'smcp' Lowercase to Small Capitals in Latin lookup 0 subtable" uniA7EE
EndChar

StartChar: question
Encoding: 63 63 366
GlifName: question
Width: 1082
VWidth: 0
GlyphClass: 2
Flags: HW
LayerCount: 2
Fore
SplineSet
495 -11 m 256
 430 -11 381 40 381 103 c 256
 381 166 430 214 495 214 c 256
 560 214 608 166 608 103 c 256
 608 40 560 -11 495 -11 c 256
301 891 m 257
 183 882 l 257
 170 925 163 972 163 1014 c 256
 163 1211 301 1355 529 1355 c 256
 782 1355 920 1181 920 1002 c 256
 920 835 831 750 734 672 c 256
 643 599 568 533 568 410 c 257
 430 410 l 257
 430 572 529 651 636 736 c 256
 730 809 782 876 782 985 c 256
 782 1132 686 1238 528 1238 c 256
 383 1238 291 1143 291 1007 c 256
 291 970 293 925 301 891 c 257
EndSplineSet
Substitution2: "'tnum' Tabular Numbers lookup 22 subtable" question.tnum
EndChar

StartChar: quoteleft
Encoding: 8216 8216 373
GlifName: quoteleft
Width: 566
VWidth: 0
GlyphClass: 2
Flags: HW
LayerCount: 2
Fore
SplineSet
311 1533 m 257
 404 1114 l 257
 308 1072 l 257
 163 1533 l 257
 311 1533 l 257
EndSplineSet
EndChar

StartChar: quoteright
Encoding: 8217 8217 375
GlifName: quoteright
Width: 566
VWidth: 0
GlyphClass: 2
Flags: HW
LayerCount: 2
Fore
SplineSet
255 1533 m 257
 404 1533 l 257
 258 1072 l 257
 163 1114 l 257
 255 1533 l 257
EndSplineSet
EndChar

StartChar: quotesingle
Encoding: 39 39 377
GlifName: quotesingle
Width: 429
VWidth: 0
GlyphClass: 2
Flags: HW
LayerCount: 2
Fore
SplineSet
153 1389 m 257
 276 1389 l 257
 263 942 l 257
 167 942 l 257
 153 1389 l 257
EndSplineSet
EndChar

StartChar: r
Encoding: 114 114 378
GlifName: r
Width: 801
VWidth: 0
GlyphClass: 2
Flags: HW
LayerCount: 2
Fore
SplineSet
161 1026 m 257
 298 1026 l 257
 303 626 l 257
 303 0 l 257
 161 0 l 257
 161 1026 l 257
EndSplineSet
Refer: 1673 57358 N 1 0 0 1 0 0 2
Substitution2: "'smcp' Lowercase to Small Capitals in Latin lookup 0 subtable" uni0280
EndChar

StartChar: registered
Encoding: 174 174 381
GlifName: registered
Width: 1908
VWidth: 0
GlyphClass: 2
Flags: HW
LayerCount: 2
Fore
SplineSet
259 763 m 256
 259 374 546 67 955 67 c 256
 1364 67 1651 374 1651 763 c 256
 1651 1152 1364 1458 955 1458 c 256
 546 1458 259 1152 259 763 c 256
147 763 m 256
 147 1198 464 1560 955 1560 c 256
 1446 1560 1763 1198 1763 763 c 256
 1763 327 1446 -35 955 -35 c 256
 464 -35 147 327 147 763 c 256
1261 416 m 257
 1165 416 l 257
 1006 614 l 257
 991 613 976 611 960 611 c 258
 802 611 l 257
 802 414 l 257
 725 414 l 257
 725 1113 l 257
 975 1113 l 258
 1137 1113 1251 1006 1251 861 c 256
 1251 753 1187 668 1087 631 c 257
 1261 416 l 257
802 685 m 257
 975 685 l 258
 1084 685 1171 754 1171 861 c 256
 1171 968 1085 1042 975 1042 c 258
 802 1042 l 257
 802 685 l 257
EndSplineSet
EndChar

StartChar: ring
Encoding: 730 730 382
GlifName: ring
Width: 763
VWidth: 0
GlyphClass: 2
Flags: HW
LayerCount: 2
Fore
SplineSet
382 1567 m 256
 272 1567 203 1485 203 1386 c 256
 203 1287 272 1206 381 1206 c 256
 491 1206 561 1287 561 1386 c 256
 561 1485 491 1567 382 1567 c 256
382 1641 m 256
 530 1641 635 1527 635 1386 c 256
 635 1245 531 1132 381 1132 c 256
 233 1132 127 1245 127 1386 c 256
 127 1527 232 1641 382 1641 c 256
EndSplineSet
EndChar

StartChar: s
Encoding: 115 115 383
GlifName: s
Width: 971
VWidth: 0
GlyphClass: 2
Flags: HW
LayerCount: 2
Fore
SplineSet
497 1036 m 256
 735 1036 876 916 871 718 c 257
 750 721 l 257
 750 846 655 921 498 921 c 256
 349 921 257 853 257 743 c 256
 257 653 320 613 509 568 c 256
 773 506 876 422 876 278 c 256
 876 103 724 -10 490 -10 c 256
 245 -10 96 113 102 308 c 257
 223 305 l 257
 223 180 325 104 494 104 c 256
 650 104 746 171 746 280 c 256
 746 368 680 409 490 453 c 256
 227 514 127 598 127 748 c 256
 127 925 269 1036 497 1036 c 256
EndSplineSet
Substitution2: "'smcp' Lowercase to Small Capitals in Latin lookup 0 subtable" uniA731
EndChar

StartChar: section
Encoding: 167 167 389
GlifName: section
Width: 952
VWidth: 0
GlyphClass: 2
Flags: HW
LayerCount: 2
Fore
SplineSet
830 229 m 256
 830 26 654 -63 459 -63 c 256
 311 -63 181 -18 104 31 c 257
 159 142 l 257
 224 101 342 55 460 55 c 256
 590 55 703 106 703 227 c 256
 703 336 604 367 469 401 c 256
 287 446 143 497 143 675 c 256
 143 799 217 882 310 923 c 257
 217 965 154 1024 154 1139 c 256
 154 1338 329 1440 502 1440 c 256
 629 1440 738 1395 815 1336 c 257
 761 1241 l 257
 695 1289 615 1326 506 1326 c 256
 395 1326 282 1268 282 1146 c 256
 282 1043 367 1011 509 977 c 256
 684 935 840 888 840 692 c 256
 840 569 771 492 674 453 c 257
 763 414 830 353 830 229 c 256
501 511 m 257
 619 517 715 576 715 689 c 256
 715 798 614 835 481 864 c 257
 374 861 273 797 273 681 c 256
 273 576 363 541 501 511 c 257
EndSplineSet
EndChar

StartChar: seven.SC
Encoding: 1114185 -1 392
GlifName: seven.S_C_
Width: 946
VWidth: 0
GlyphClass: 2
Flags: HW
LayerCount: 2
Fore
SplineSet
117 906 m 257
 117 1026 l 257
 819 1026 l 257
 843 929 l 257
 649 694 483 358 483 0 c 257
 352 0 l 257
 352 346 508 702 673 906 c 257
 117 906 l 257
EndSplineSet
EndChar

StartChar: seven.onum
Encoding: 1114186 -1 393
GlifName: seven.onum
Width: 1128
VWidth: 0
GlyphClass: 2
Flags: HW
LayerCount: 2
Fore
SplineSet
1035 905 m 257
 774 588 553 159 553 -323 c 257
 415 -323 l 257
 415 146 638 614 876 901 c 257
 104 901 l 257
 104 1026 l 257
 1007 1026 l 257
 1035 905 l 257
EndSplineSet
EndChar

StartChar: six.SC
Encoding: 1114188 -1 397
GlifName: six.S_C_
Width: 907
VWidth: 0
GlyphClass: 2
Flags: HW
LayerCount: 2
Fore
SplineSet
469 554 m 256
 368 554 282 491 245 392 c 257
 248 192 342 102 464 102 c 257
 599 102 664 188 664 328 c 256
 664 463 595 554 469 554 c 256
476 1035 m 256
 658 1035 765 910 765 767 c 257
 654 767 l 257
 654 836 602 920 476 920 c 256
 299 920 240 729 241 519 c 257
 291 603 385 653 492 653 c 256
 679 653 788 521 788 324 c 256
 788 107 667 -13 470 -13 c 256
 216 -13 120 183 120 467 c 256
 120 814 224 1035 476 1035 c 256
EndSplineSet
EndChar

StartChar: six.onum
Encoding: 1114189 -1 398
GlifName: six.onum
Width: 1107
VWidth: 0
GlyphClass: 2
Flags: HW
LayerCount: 2
Fore
SplineSet
566 112 m 256
 739 112 853 229 853 417 c 256
 853 592 731 697 579 697 c 256
 409 697 266 568 205 407 c 257
 183 534 l 257
 250 691 408 816 601 816 c 256
 820 816 993 663 993 421 c 256
 993 159 822 -12 562 -12 c 256
 279 -12 119 191 119 550 c 256
 119 964 331 1239 763 1385 c 257
 811 1269 l 257
 429 1144 251 916 251 536 c 256
 251 268 359 112 566 112 c 256
EndSplineSet
EndChar

StartChar: slash
Encoding: 47 47 400
GlifName: slash
Width: 1174
VWidth: 0
GlyphClass: 2
Flags: HW
LayerCount: 2
Fore
SplineSet
849 1375 m 257
 1009 1375 l 257
 327 0 l 257
 167 0 l 257
 849 1375 l 257
EndSplineSet
Substitution2: "'tnum' Tabular Numbers lookup 22 subtable" slash.tnum
Substitution2: "'smcp' Lowercase to Small Capitals in Latin lookup 0 subtable" slash.sc
EndChar

StartChar: slash.fraction
Encoding: 1114191 -1 401
GlifName: slash.fraction
Width: 1575
VWidth: 0
GlyphClass: 2
Flags: HW
LayerCount: 2
Fore
SplineSet
406 0 m 257
 250 0 l 257
 1169 1375 l 257
 1325 1375 l 257
 406 0 l 257
EndSplineSet
EndChar

StartChar: slash.sc
Encoding: 1114192 -1 402
GlifName: slash.sc
Width: 1012
VWidth: 0
GlyphClass: 2
Flags: HW
LayerCount: 2
Fore
SplineSet
685 1026 m 257
 845 1026 l 257
 328 0 l 257
 167 0 l 257
 685 1026 l 257
EndSplineSet
EndChar

StartChar: sterling
Encoding: 163 163 405
GlifName: sterling
Width: 1251
VWidth: 0
GlyphClass: 2
Flags: HW
LayerCount: 2
Fore
SplineSet
662 1262 m 256
 553 1262 469 1209 469 1053 c 258
 469 299 l 258
 469 232 451 170 406 123 c 257
 1124 123 l 257
 1124 0 l 257
 129 0 l 257
 129 122 l 257
 258 122 326 175 326 299 c 258
 326 1057 l 258
 326 1260 449 1385 662 1385 c 256
 897 1385 998 1238 994 1080 c 257
 854 1080 l 257
 854 1177 795 1262 662 1262 c 256
EndSplineSet
Refer: 1669 57354 N 1 0 0 1 24 11 2
EndChar

StartChar: t
Encoding: 116 116 406
GlifName: t
Width: 754
VWidth: 0
GlyphClass: 2
Flags: HW
LayerCount: 2
Fore
SplineSet
671 115 m 257
 692 16 l 257
 642 0 585 -10 529 -10 c 256
 370 -10 243 64 243 247 c 258
 243 1315 l 257
 385 1315 l 257
 385 261 l 258
 385 152 449 103 559 103 c 256
 599 103 642 108 671 115 c 257
EndSplineSet
Refer: 1669 57354 N 1 0 0 1 -29 409 2
Substitution2: "'smcp' Lowercase to Small Capitals in Latin lookup 0 subtable" uni1D1B
EndChar

StartChar: three.SC
Encoding: 1114194 -1 411
GlifName: three.S_C_
Width: 922
VWidth: 0
GlyphClass: 2
Flags: HW
LayerCount: 2
Fore
SplineSet
104 307 m 257
 227 307 l 257
 227 184 313 112 460 112 c 256
 599 112 685 182 685 305 c 256
 685 432 596 498 439 498 c 258
 370 498 l 257
 371 584 l 257
 444 584 l 258
 581 584 660 652 660 757 c 256
 660 867 576 930 457 930 c 256
 336 930 265 868 265 764 c 257
 151 764 l 257
 146 937 264 1043 457 1043 c 256
 635 1043 773 940 773 769 c 256
 773 682 728 590 636 544 c 257
 746 495 803 405 803 291 c 256
 803 105 659 -2 456 -2 c 256
 240 -2 99 112 104 307 c 257
EndSplineSet
EndChar

StartChar: three.onum
Encoding: 1114195 -1 412
GlifName: three.onum
Width: 1079
VWidth: 0
GlyphClass: 2
Flags: HW
LayerCount: 2
Fore
SplineSet
544 326 m 258
 443 326 l 257
 443 435 l 257
 543 436 l 258
 680 437 787 560 787 679 c 256
 787 827 676 915 535 915 c 256
 393 915 288 826 287 703 c 257
 157 703 l 257
 155 896 315 1036 539 1036 c 256
 757 1036 918 902 918 693 c 256
 918 563 832 450 717 388 c 257
 892 344 969 210 969 49 c 256
 969 -179 800 -329 523 -329 c 256
 244 -329 72 -189 79 68 c 257
 218 68 l 257
 214 -118 332 -211 545 -211 c 256
 730 -211 843 -107 843 56 c 256
 843 192 766 326 544 326 c 258
EndSplineSet
EndChar

StartChar: two.SC
Encoding: 1114197 -1 418
GlifName: two.S_C_
Width: 895
VWidth: 0
GlyphClass: 2
Flags: HW
LayerCount: 2
Fore
SplineSet
119 715 m 257
 112 906 245 1035 449 1035 c 256
 652 1035 783 908 783 711 c 256
 783 565 711 494 522 381 c 256
 433 328 278 233 262 121 c 257
 795 121 l 257
 795 0 l 257
 103 0 l 257
 78 227 275 362 433 449 c 256
 612 550 664 609 664 707 c 256
 664 834 578 915 445 915 c 256
 316 915 232 838 235 717 c 257
 119 715 l 257
EndSplineSet
EndChar

StartChar: two.onum
Encoding: 1114198 -1 419
GlifName: two.onum
Width: 991
VWidth: 0
GlyphClass: 2
Flags: HW
LayerCount: 2
Fore
SplineSet
727 705 m 256
 727 826 617 915 475 915 c 256
 333 915 226 826 224 703 c 257
 97 703 l 257
 95 895 256 1036 480 1036 c 256
 697 1036 855 903 855 722 c 256
 855 610 795 515 665 419 c 257
 296 125 l 257
 894 125 l 257
 894 0 l 257
 93 0 l 257
 93 135 l 257
 559 472 l 258
 680 559 727 625 727 705 c 256
EndSplineSet
EndChar

StartChar: u
Encoding: 117 117 422
GlifName: u
Width: 1140
VWidth: 0
GlyphClass: 2
Flags: HW
LayerCount: 2
Fore
SplineSet
842 1026 m 257
 984 1026 l 257
 984 0 l 257
 847 0 l 257
 842 295 l 257
 842 1026 l 257
EndSplineSet
Refer: 1672 57357 N -1 0 0 -1 1135 1026 2
Substitution2: "'smcp' Lowercase to Small Capitals in Latin lookup 0 subtable" uni1D1C
EndChar

StartChar: underscore
Encoding: 95 95 431
GlifName: underscore
Width: 900
VWidth: 0
GlyphClass: 2
Flags: HW
LayerCount: 2
Fore
SplineSet
800 0 m 257
 800 -142 l 257
 100 -142 l 257
 100 0 l 257
 800 0 l 257
EndSplineSet
EndChar

StartChar: uni00AD
Encoding: 173 173 433
GlifName: uni00A_D_
Width: 1091
VWidth: 0
GlyphClass: 2
Flags: HW
LayerCount: 2
Fore
SplineSet
966 636 m 257
 966 522 l 257
 127 522 l 257
 127 636 l 257
 966 636 l 257
EndSplineSet
EndChar

StartChar: uni00B2
Encoding: 178 178 434
GlifName: uni00B_2
Width: 702
VWidth: 0
GlyphClass: 2
Flags: HW
LayerCount: 2
Fore
SplineSet
133 1132 m 257
 133 1207 l 257
 429 1478 l 258
 464 1510 483 1535 483 1592 c 256
 483 1677 418 1721 345 1721 c 256
 271 1721 209 1677 209 1590 c 257
 133 1590 l 257
 133 1730 241 1797 345 1797 c 256
 448 1797 559 1731 559 1592 c 256
 559 1512 525 1462 481 1424 c 258
 245 1208 l 257
 569 1208 l 257
 569 1132 l 257
 133 1132 l 257
EndSplineSet
EndChar

StartChar: uni00B3
Encoding: 179 179 435
GlifName: uni00B_3
Width: 714
VWidth: 0
GlyphClass: 2
Flags: HW
LayerCount: 2
Fore
SplineSet
238 1619 m 257
 160 1619 l 257
 160 1731 243 1797 360 1797 c 256
 471 1797 564 1726 564 1613 c 256
 564 1558 524 1494 458 1471 c 257
 524 1450 582 1387 582 1310 c 256
 582 1185 489 1122 360 1122 c 256
 224 1122 133 1196 133 1317 c 257
 214 1317 l 257
 214 1235 276 1197 360 1197 c 256
 447 1197 501 1232 501 1314 c 256
 501 1400 437 1436 345 1436 c 258
 295 1436 l 257
 295 1505 l 257
 345 1505 l 258
 422 1505 481 1540 481 1611 c 256
 481 1680 431 1721 358 1721 c 256
 286 1721 238 1686 238 1619 c 257
EndSplineSet
EndChar

StartChar: uni00B9
Encoding: 185 185 436
GlifName: uni00B_9
Width: 551
VWidth: 0
GlyphClass: 2
Flags: HW
LayerCount: 2
Fore
SplineSet
133 1551 m 257
 133 1627 l 257
 343 1627 l 257
 343 1787 l 257
 419 1787 l 257
 419 1132 l 257
 343 1132 l 257
 343 1551 l 257
 133 1551 l 257
EndSplineSet
EndChar

StartChar: uni018F
Encoding: 399 399 451
GlifName: uni018F_
Width: 1405
VWidth: 0
GlyphClass: 2
Flags: HW
LayerCount: 2
Fore
SplineSet
1156 588 m 257
 237 588 l 257
 244 324 407 112 699 112 c 256
 974 112 1147 309 1156 588 c 257
1161 707 m 257
 1155 1060 986 1262 689 1262 c 256
 470 1262 316 1147 255 974 c 257
 125 1020 l 257
 209 1245 404 1385 687 1385 c 256
 1084 1385 1306 1108 1306 685 c 256
 1306 265 1091 -11 693 -11 c 256
 275 -11 67 319 94 707 c 257
 1161 707 l 257
EndSplineSet
EndChar

StartChar: uni01B7
Encoding: 439 439 452
GlifName: uni01B_7
Width: 1278
VWidth: 0
GlyphClass: 2
Flags: HW
LayerCount: 2
Fore
SplineSet
609 -487 m 256
 348 -487 154 -370 90 -161 c 257
 227 -137 l 257
 289 -279 425 -364 613 -364 c 256
 907 -364 1048 -196 1048 93 c 256
 1048 395 829 559 524 544 c 257
 465 625 l 257
 967 1253 l 257
 88 1253 l 257
 88 1375 l 257
 1118 1375 l 257
 1118 1250 l 257
 658 671 l 257
 979 636 1190 439 1190 93 c 256
 1190 -286 982 -487 609 -487 c 256
EndSplineSet
EndChar

StartChar: uni0237
Encoding: 567 567 544
GlifName: uni0237
Width: 472
VWidth: 0
GlyphClass: 2
Flags: HW
LayerCount: 2
Fore
SplineSet
-145 -449 m 257
 -123 -349 l 257
 -94 -356 -52 -361 -12 -361 c 256
 98 -361 161 -312 161 -203 c 258
 161 1026 l 257
 305 1026 l 257
 305 -217 l 258
 305 -400 177 -475 18 -475 c 256
 -38 -475 -95 -465 -145 -449 c 257
EndSplineSet
EndChar

StartChar: uni0239
Encoding: 569 569 546
GlifName: uni0239
Width: 1741
VWidth: 0
GlyphClass: 2
Flags: HW
LayerCount: 2
Fore
SplineSet
799 1026 m 257
 942 1026 l 257
 942 -467 l 257
 799 -467 l 257
 799 1026 l 257
EndSplineSet
Refer: 1674 57359 N -1 0 0 -1 1113 1025 2
Refer: 1674 57359 N 1 0 0 1 629 0 2
EndChar

StartChar: uni0240
Encoding: 576 576 547
GlifName: uni0240
Width: 929
VWidth: 0
GlyphClass: 2
Flags: HW
LayerCount: 2
Fore
SplineSet
785 -280 m 256
 658 -280 573 -217 497 -149 c 256
 408 -69 314 0 61 0 c 257
 61 121 l 257
 714 903 l 257
 61 903 l 257
 61 1026 l 257
 866 1026 l 257
 866 905 l 257
 193 101 l 257
 392 98 474 35 552 -38 c 256
 618 -99 694 -157 785 -157 c 256
 874 -157 910 -126 959 -57 c 257
 1054 -127 l 257
 987 -222 916 -280 785 -280 c 256
EndSplineSet
EndChar

StartChar: uni0255
Encoding: 597 597 550
GlifName: uni0255
Width: 1106
VWidth: 0
GlyphClass: 2
Flags: HW
LayerCount: 2
Fore
SplineSet
592 107 m 256
 381 107 249 235 249 513 c 256
 249 791 381 919 575 919 c 256
 724 919 831 844 872 703 c 257
 1006 738 l 257
 947 929 794 1035 573 1035 c 256
 284 1035 107 846 107 513 c 256
 107 180 284 -11 585 -11 c 256
 801 -11 995 116 995 313 c 256
 995 462 884 555 739 555 c 256
 501 555 335 362 80 -9 c 257
 164 -67 l 257
 427 299 558 458 726 458 c 256
 819 458 875 397 875 316 c 256
 875 185 732 107 592 107 c 256
EndSplineSet
EndChar

StartChar: uni0262
Encoding: 610 610 552
GlifName: uni0262
Width: 1071
VWidth: 0
GlyphClass: 2
Flags: HW
LayerCount: 2
Fore
SplineSet
215 511 m 256
 215 245 347 109 584 109 c 256
 699 109 790 146 853 214 c 257
 853 431 l 257
 538 431 l 257
 538 529 l 257
 981 531 l 257
 981 166 l 257
 882 49 756 -11 584 -11 c 256
 270 -11 85 177 85 511 c 256
 85 832 265 1037 551 1037 c 256
 735 1037 889 928 947 773 c 257
 839 729 l 257
 798 842 679 918 549 918 c 256
 342 918 215 762 215 511 c 256
EndSplineSet
EndChar

StartChar: uni0274
Encoding: 628 628 555
GlifName: uni0274
Width: 1163
VWidth: 0
GlyphClass: 2
Flags: HW
LayerCount: 2
Fore
SplineSet
860 1026 m 257
 1003 1026 l 257
 1003 0 l 257
 841 0 l 257
 302 846 l 257
 302 0 l 257
 161 0 l 257
 161 1026 l 257
 322 1026 l 257
 860 179 l 257
 860 1026 l 257
EndSplineSet
EndChar

StartChar: uni0280
Encoding: 640 640 556
GlifName: uni0280
Width: 1072
VWidth: 0
GlyphClass: 2
Flags: HW
LayerCount: 2
Fore
SplineSet
307 479 m 257
 520 479 l 258
 693 479 778 541 778 701 c 256
 778 861 692 921 520 921 c 258
 307 921 l 257
 307 479 l 257
307 375 m 257
 307 0 l 257
 165 0 l 257
 165 1026 l 257
 538 1026 l 258
 778 1026 920 924 920 701 c 256
 920 478 778 375 538 375 c 258
 307 375 l 257
605 437 m 257
 733 437 l 257
 1000 0 l 257
 854 0 l 257
 605 437 l 257
EndSplineSet
EndChar

StartChar: uni0283
Encoding: 643 643 557
GlifName: uni0283
Width: 800
VWidth: 0
GlyphClass: 2
Flags: HW
LayerCount: 2
Fore
SplineSet
802 1396 m 257
 766 1302 l 257
 738 1321 692 1335 636 1335 c 256
 526 1335 462 1286 462 1177 c 258
 462 -225 l 258
 462 -408 334 -483 175 -483 c 256
 95 -483 26 -462 -21 -431 c 257
 15 -337 l 257
 43 -356 89 -370 145 -370 c 256
 255 -370 319 -320 319 -211 c 258
 319 1190 l 258
 319 1373 447 1448 606 1448 c 256
 686 1448 755 1427 802 1396 c 257
EndSplineSet
EndChar

StartChar: uni028F
Encoding: 655 655 558
GlifName: uni028F_
Width: 931
VWidth: 0
GlyphClass: 2
Flags: HW
LayerCount: 2
Fore
SplineSet
767 1026 m 257
 931 1026 l 257
 537 441 l 257
 537 0 l 257
 394 0 l 257
 394 441 l 257
 0 1026 l 257
 165 1026 l 257
 465 563 l 257
 767 1026 l 257
EndSplineSet
EndChar

StartChar: uni0291
Encoding: 657 657 559
GlifName: uni0291
Width: 1367
VWidth: 0
GlyphClass: 2
Flags: HW
LayerCount: 2
Fore
SplineSet
896 123 m 258
 212 123 l 257
 866 905 l 257
 866 1026 l 257
 61 1026 l 257
 61 903 l 257
 714 903 l 257
 61 121 l 257
 61 0 l 257
 891 0 l 258
 1106 0 1299 127 1299 324 c 256
 1299 473 1205 580 1037 580 c 256
 795 580 623 372 269 -165 c 257
 356 -223 l 257
 715 303 863 469 1031 469 c 256
 1123 469 1179 410 1179 329 c 256
 1179 198 1036 123 896 123 c 258
EndSplineSet
EndChar

StartChar: uni0292
Encoding: 658 658 560
GlifName: uni0292
Width: 1093
VWidth: 0
GlyphClass: 2
Flags: HW
LayerCount: 2
Fore
SplineSet
523 -487 m 256
 298 -487 140 -384 86 -170 c 257
 223 -148 l 257
 266 -287 370 -370 523 -370 c 256
 712 -370 848 -264 848 -19 c 256
 848 271 645 340 433 324 c 257
 371 399 l 257
 784 903 l 257
 128 903 l 257
 128 1026 l 257
 946 1026 l 257
 946 905 l 257
 565 440 l 257
 794 423 991 295 991 -19 c 256
 991 -329 805 -487 523 -487 c 256
EndSplineSet
EndChar

StartChar: uni0293
Encoding: 659 659 561
GlifName: uni0293
Width: 1095
VWidth: 0
GlyphClass: 2
Flags: HW
LayerCount: 2
Fore
SplineSet
130 903 m 257
 130 1026 l 257
 948 1026 l 257
 948 905 l 257
 567 440 l 257
 796 423 993 295 993 -19 c 256
 993 -329 795 -487 513 -487 c 256
 295 -487 97 -361 97 -163 c 256
 97 -14 209 78 354 78 c 256
 592 78 758 -114 1013 -485 c 257
 928 -544 l 257
 665 -178 535 -18 367 -18 c 256
 274 -18 217 -79 217 -160 c 256
 217 -293 369 -370 511 -370 c 256
 700 -370 850 -264 850 -19 c 256
 850 271 647 340 435 324 c 257
 373 399 l 257
 786 903 l 257
 130 903 l 257
EndSplineSet
EndChar

StartChar: uni0299
Encoding: 665 665 562
GlifName: uni0299
Width: 1019
VWidth: 0
GlyphClass: 2
Flags: HW
LayerCount: 2
Fore
SplineSet
165 1026 m 257
 569 1026 l 258
 765 1026 878 918 878 749 c 256
 878 646 828 569 749 529 c 257
 857 493 925 400 925 277 c 256
 925 102 805 0 624 0 c 258
 165 0 l 257
 165 1026 l 257
311 922 m 257
 311 558 l 257
 550 558 l 258
 675 558 744 621 744 741 c 256
 744 862 675 922 550 922 c 258
 311 922 l 257
311 467 m 257
 311 104 l 257
 583 104 l 258
 708 104 778 165 778 285 c 256
 778 406 708 467 583 467 c 258
 311 467 l 257
EndSplineSet
EndChar

StartChar: uni029C
Encoding: 668 668 563
GlifName: uni029C_
Width: 1157
VWidth: 0
GlyphClass: 2
Flags: HW
LayerCount: 2
Fore
SplineSet
855 1026 m 257
 997 1026 l 257
 997 0 l 257
 855 0 l 257
 855 453 l 257
 302 453 l 257
 302 0 l 257
 161 0 l 257
 161 1026 l 257
 302 1026 l 257
 302 574 l 257
 855 574 l 257
 855 1026 l 257
EndSplineSet
EndChar

StartChar: uni029F
Encoding: 671 671 565
GlifName: uni029F_
Width: 928
VWidth: 0
GlyphClass: 2
Flags: HW
LayerCount: 2
Fore
SplineSet
200 1026 m 257
 342 1026 l 257
 342 117 l 257
 871 117 l 257
 871 0 l 257
 200 0 l 257
 200 1026 l 257
EndSplineSet
EndChar

StartChar: uni02C2
Encoding: 706 706 575
GlifName: uni02C_2
Width: 672
VWidth: 0
GlyphClass: 2
Flags: HW
LayerCount: 2
Fore
SplineSet
265 717 m 257
 549 433 l 257
 478 361 l 257
 123 717 l 257
 478 1073 l 257
 549 1001 l 257
 265 717 l 257
EndSplineSet
EndChar

StartChar: uni02C3
Encoding: 707 707 576
GlifName: uni02C_3
Width: 672
VWidth: 0
GlyphClass: 2
Flags: HW
LayerCount: 2
Fore
SplineSet
407 717 m 257
 123 1001 l 257
 194 1073 l 257
 549 717 l 257
 194 361 l 257
 123 433 l 257
 407 717 l 257
EndSplineSet
EndChar

StartChar: uni02C4
Encoding: 708 708 577
GlifName: uni02C_4
Width: 956
VWidth: 0
GlyphClass: 2
Flags: HW
LayerCount: 2
Fore
SplineSet
478 787 m 257
 194 503 l 257
 123 575 l 257
 478 931 l 257
 833 575 l 257
 762 503 l 257
 478 787 l 257
EndSplineSet
EndChar

StartChar: uni02C5
Encoding: 709 709 578
GlifName: uni02C_5
Width: 956
VWidth: 0
GlyphClass: 2
Flags: HW
LayerCount: 2
Fore
SplineSet
478 647 m 257
 762 931 l 257
 833 859 l 257
 478 503 l 257
 123 859 l 257
 194 931 l 257
 478 647 l 257
EndSplineSet
EndChar

StartChar: uni02D2
Encoding: 722 722 579
GlifName: uni02D_2
Width: 519
VWidth: 0
GlyphClass: 2
Flags: HW
LayerCount: 2
Fore
SplineSet
127 1210 m 257
 244 1210 313 1289 313 1393 c 256
 313 1497 244 1577 128 1577 c 257
 128 1655 l 257
 285 1655 392 1546 392 1393 c 256
 392 1240 286 1131 127 1131 c 257
 127 1210 l 257
EndSplineSet
EndChar

StartChar: uni02D3
Encoding: 723 723 580
GlifName: uni02D_3
Width: 564
VWidth: 0
GlyphClass: 2
Flags: HW
LayerCount: 2
Fore
SplineSet
415 1577 m 257
 298 1577 229 1497 229 1393 c 256
 229 1289 298 1210 414 1210 c 257
 414 1131 l 257
 257 1131 150 1240 150 1393 c 256
 150 1546 256 1655 415 1655 c 257
 415 1577 l 257
EndSplineSet
EndChar

StartChar: uni031B
Encoding: 795 795 584
GlifName: uni031B_
Width: 657
VWidth: 0
GlyphClass: 2
Flags: HW
LayerCount: 2
Fore
SplineSet
465 1531 m 257
 490 1450 507 1384 507 1312 c 256
 507 1205 447 1132 289 1132 c 258
 150 1132 l 257
 150 1215 l 257
 299 1215 l 258
 390 1215 420 1252 420 1313 c 256
 420 1364 406 1425 383 1501 c 257
 465 1531 l 257
EndSplineSet
EndChar

StartChar: uni0600
Encoding: 1536 1536 585
GlifName: uni0600
Width: 2944
VWidth: 0
GlyphClass: 2
Flags: HW
LayerCount: 2
Fore
SplineSet
2293 143 m 257
 2239 183 2209 250 2209 330 c 256
 2209 489 2296 648 2456 842 c 257
 2565 751 l 257
 2419 575 2352 443 2352 333 c 256
 2352 202 2446 138 2634 95 c 258
 2833 51 l 257
 2791 -89 l 257
 2554 -21 2448 0 2356 0 c 258
 111 0 l 257
 111 143 l 257
 2293 143 l 257
EndSplineSet
EndChar

StartChar: uni0601
Encoding: 1537 1537 586
GlifName: uni0601
Width: 3904
VWidth: 0
GlyphClass: 2
Flags: HW
LayerCount: 2
Fore
SplineSet
111 231 m 257
 226 293 l 257
 287 172 323 110 402 110 c 256
 479 110 508 198 545 311 c 256
 608 490 673 634 831 634 c 256
 968 634 1059 521 1163 365 c 256
 1256 226 1340 110 1475 110 c 256
 1607 110 1687 253 1762 417 c 257
 1855 430 l 257
 2065 185 2369 110 2587 110 c 256
 2850 110 3062 231 3257 363 c 256
 3420 473 3491 511 3587 511 c 256
 3705 511 3789 424 3789 302 c 256
 3789 192 3734 78 3603 -56 c 257
 3513 30 l 257
 3600 116 3637 193 3637 257 c 256
 3637 314 3605 347 3556 347 c 256
 3495 347 3450 321 3327 238 c 256
 3124 102 2880 -33 2588 -33 c 256
 2364 -33 2081 31 1834 257 c 257
 1751 107 1656 -33 1472 -33 c 256
 1283 -33 1161 115 1042 293 c 256
 967 402 906 487 828 487 c 256
 737 487 702 387 663 267 c 256
 604 95 544 -33 397 -33 c 256
 257 -33 199 53 111 231 c 257
EndSplineSet
EndChar

StartChar: uni0603
Encoding: 1539 1539 587
GlifName: uni0603
Width: 2053
VWidth: 0
GlyphClass: 2
Flags: HW
LayerCount: 2
Fore
SplineSet
111 0 m 257
 111 143 l 257
 414 143 620 281 707 659 c 257
 845 627 l 257
 748 196 514 0 111 0 c 257
1790 387 m 256
 1790 510 1710 596 1575 596 c 256
 1442 596 1264 490 1066 198 c 257
 961 262 l 257
 1188 597 1409 737 1593 737 c 256
 1813 737 1943 587 1943 386 c 256
 1943 96 1706 1 1399 1 c 256
 1059 1 835 128 648 358 c 257
 748 460 l 257
 929 257 1125 142 1416 142 c 256
 1614 142 1790 191 1790 387 c 256
EndSplineSet
EndChar

StartChar: uni0604
Encoding: 1540 1540 588
GlifName: uni0604
Width: 2888
VWidth: 0
GlyphClass: 2
Flags: HW
LayerCount: 2
Fore
SplineSet
1289 -172 m 257
 1067 -63 932 0 707 0 c 258
 111 0 l 257
 111 143 l 257
 661 143 l 258
 718 143 774 138 831 122 c 257
 778 181 756 253 756 326 c 256
 756 551 929 765 1159 765 c 256
 1350 765 1443 658 1535 548 c 256
 1628 437 1713 343 1893 343 c 256
 2056 343 2127 424 2127 587 c 258
 2127 797 l 257
 2256 797 l 257
 2256 587 l 258
 2256 429 2314 343 2453 343 c 256
 2591 343 2636 432 2636 564 c 256
 2636 645 2622 764 2603 851 c 257
 2741 880 l 257
 2764 775 2777 662 2777 559 c 256
 2777 344 2694 200 2467 200 c 256
 2301 200 2223 272 2192 393 c 257
 2161 272 2086 200 1904 200 c 256
 1674 200 1562 326 1461 441 c 256
 1378 537 1300 622 1168 622 c 256
 995 622 898 480 898 324 c 256
 898 149 1085 69 1230 10 c 256
 1277 -9 1318 -27 1351 -43 c 257
 1289 -172 l 257
EndSplineSet
EndChar

StartChar: uni060C
Encoding: 1548 1548 592
GlifName: uni060C_
Width: 614
VWidth: 0
GlyphClass: 2
Flags: HW
LayerCount: 2
Fore
SplineSet
275 239 m 257
 372 257 441 213 441 121 c 256
 441 44 392 -8 318 -8 c 256
 228 -8 173 60 173 185 c 256
 173 350 240 486 360 602 c 257
 424 535 l 257
 334 446 282 351 275 239 c 257
EndSplineSet
EndChar

StartChar: uni060D
Encoding: 1549 1549 593
GlifName: uni060D_
Width: 878
VWidth: 0
GlyphClass: 2
Flags: HW
LayerCount: 2
Fore
SplineSet
241 -654 m 257
 87 -654 l 257
 586 622 l 257
 740 622 l 257
 241 -654 l 257
EndSplineSet
EndChar

StartChar: uni060E
Encoding: 1550 1550 594
GlifName: uni060E_
Width: 2201
VWidth: 0
GlyphClass: 2
Flags: HW
LayerCount: 2
Fore
SplineSet
995 415 m 256
 995 254 902 97 808 -30 c 257
 697 55 l 257
 781 168 852 293 852 405 c 256
 852 567 734 677 563 677 c 256
 411 677 253 553 253 357 c 256
 253 170 431 99 637 99 c 258
 2090 99 l 257
 2090 -41 l 257
 633 -41 l 258
 330 -41 111 90 111 351 c 256
 111 630 334 818 563 818 c 256
 812 818 995 651 995 415 c 256
EndSplineSet
EndChar

StartChar: uni060F
Encoding: 1551 1551 595
GlifName: uni060F_
Width: 1520
VWidth: 0
GlyphClass: 2
Flags: HW
LayerCount: 2
Fore
SplineSet
820 -742 m 256
 446 -742 111 -577 111 -225 c 256
 111 34 296 264 583 375 c 257
 370 396 199 520 199 733 c 256
 199 1002 414 1191 649 1191 c 256
 806 1191 924 1122 1005 1035 c 257
 917 929 l 257
 858 993 775 1050 651 1050 c 256
 497 1050 342 930 342 739 c 256
 342 554 511 480 768 480 c 256
 853 480 977 495 1064 505 c 257
 1073 362 l 257
 652 335 253 148 253 -225 c 256
 253 -489 541 -601 829 -601 c 256
 1036 -601 1256 -540 1256 -351 c 256
 1256 -230 1174 -143 1039 -143 c 256
 907 -143 738 -239 527 -555 c 257
 311 -876 l 257
 203 -803 l 257
 423 -493 l 257
 663 -136 882 -7 1066 -7 c 256
 1281 -7 1409 -153 1409 -347 c 256
 1409 -626 1125 -742 820 -742 c 256
EndSplineSet
EndChar

StartChar: uni0615.alt
Encoding: 1114200 -1 597
GlifName: uni0615.alt
Width: 752
VWidth: 0
GlyphClass: 2
Flags: HW
LayerCount: 2
Fore
SplineSet
301 58 m 257
 396 58 l 258
 483 58 560 72 560 140 c 256
 560 181 533 211 488 211 c 256
 437 211 377 167 301 58 c 257
241 58 m 257
 241 418 l 257
 300 418 l 257
 300 138 l 257
 372 231 430 270 497 270 c 256
 568 270 619 219 619 141 c 256
 619 32 521 -1 396 -1 c 258
 133 -1 l 257
 133 58 l 257
 241 58 l 257
EndSplineSet
EndChar

StartChar: uni061C
Encoding: 1564 1564 599
GlifName: uni061C_
Width: 2338
VWidth: 0
GlyphClass: 2
Flags: HW
LayerCount: 2
Fore
SplineSet
823 1101 m 257
 1057 1101 l 257
 1057 1047 l 257
 823 1047 l 257
 823 1101 l 257
1289 1101 m 257
 1523 1101 l 257
 1523 1047 l 257
 1289 1047 l 257
 1289 1101 l 257
2083 1047 m 257
 1755 1047 l 257
 1755 1101 l 257
 2138 1099 l 257
 2138 791 l 257
 2083 791 l 257
 2083 1047 l 257
200 1101 m 257
 591 1101 l 257
 591 1047 l 257
 255 1049 l 257
 255 793 l 257
 200 793 l 257
 200 1101 l 257
1525 -280 m 257
 1291 -280 l 257
 1291 -225 l 257
 1525 -225 l 257
 1525 -280 l 257
200 -280 m 257
 593 -280 l 257
 593 -225 l 257
 255 -225 l 257
 255 30 l 257
 200 30 l 257
 200 -280 l 257
2083 -225 m 257
 1757 -225 l 257
 1757 -280 l 257
 2138 -280 l 257
 2138 28 l 257
 2083 28 l 257
 2083 -225 l 257
1059 -280 m 257
 825 -280 l 257
 825 -225 l 257
 1059 -225 l 257
 1059 -280 l 257
2083 261 m 257
 2083 559 l 257
 2138 559 l 257
 2138 261 l 257
 2083 261 l 257
255 561 m 257
 255 263 l 257
 200 263 l 257
 200 561 l 257
 255 561 l 257
EndSplineSet
Refer: 1334 7437 N 0.5 0 0 0.5 1247 146 2
Refer: 1327 7424 N 0.5 0 0 0.5 386 146 2
Refer: 565 671 N 0.5 0 0 0.5 813 146 2
EndChar

StartChar: uni061F
Encoding: 1567 1567 601
GlifName: uni061F_
Width: 1082
VWidth: 0
GlyphClass: 2
Flags: HW
LayerCount: 2
Fore
SplineSet
573 -11 m 256
 508 -11 459 40 459 103 c 256
 459 166 508 214 573 214 c 256
 638 214 686 166 686 103 c 256
 686 40 638 -11 573 -11 c 256
783 891 m 257
 791 925 793 970 793 1007 c 256
 793 1143 701 1238 556 1238 c 256
 398 1238 302 1132 302 985 c 256
 302 876 352 809 447 736 c 256
 555 652 654 572 654 410 c 257
 516 410 l 257
 516 533 441 599 350 672 c 256
 253 750 163 835 163 1002 c 256
 163 1181 302 1355 555 1355 c 256
 783 1355 920 1211 920 1014 c 256
 920 972 916 925 903 882 c 257
 783 891 l 257
EndSplineSet
Substitution2: "'tnum' Tabular Numbers lookup 22 subtable" uni061F.tnum
EndChar

StartChar: uni0652.alt
Encoding: 1114236 -1 688
GlifName: uni0652.alt
Width: 495
VWidth: 0
GlyphClass: 2
Flags: HW
LayerCount: 2
Fore
SplineSet
248 235 m 256
 190 235 159 202 159 146 c 256
 159 90 190 56 248 56 c 256
 304 56 336 92 336 146 c 256
 336 200 306 235 248 235 c 256
248 291 m 256
 336 291 393 233 393 146 c 256
 393 59 336 0 248 0 c 256
 159 0 102 60 102 146 c 256
 102 232 159 291 248 291 c 256
EndSplineSet
EndChar

StartChar: uni0660
Encoding: 1632 1632 702
GlifName: uni0660
Width: 667
VWidth: 0
GlyphClass: 2
Flags: HW
LayerCount: 2
Fore
SplineSet
333 645 m 257
 137 449 l 257
 333 252 l 257
 529 449 l 257
 333 645 l 257
EndSplineSet
PairPos2: "'kern' Horizontal Kerning in Arabic lookup 7 subtable" uni0661 dx=45 dy=0 dh=45 dv=0 dx=0 dy=0 dh=0 dv=0
PairPos2: "'kern' Horizontal Kerning in Arabic lookup 7 subtable" uni0667 dx=-89 dy=0 dh=-89 dv=0 dx=0 dy=0 dh=0 dv=0
PairPos2: "'kern' Horizontal Kerning in Arabic lookup 7 subtable" uni0662 dx=-111 dy=0 dh=-111 dv=0 dx=0 dy=0 dh=0 dv=0
Substitution2: "'tnum' Tabular Numbers lookup 22 subtable" uni0660.tnum
EndChar

StartChar: uni0661
Encoding: 1633 1633 704
GlifName: uni0661
Width: 659
VWidth: 0
GlyphClass: 2
Flags: HW
LayerCount: 2
Fore
SplineSet
500 0 m 257
 357 0 l 257
 357 516 299 878 114 1332 c 257
 251 1388 l 257
 436 923 500 531 500 0 c 257
EndSplineSet
PairPos2: "'kern' Horizontal Kerning in Arabic lookup 7 subtable" uni0665 dx=-56 dy=0 dh=-56 dv=0 dx=0 dy=0 dh=0 dv=0
Substitution2: "'tnum' Tabular Numbers lookup 22 subtable" uni0661.tnum
EndChar

StartChar: uni0662
Encoding: 1634 1634 706
GlifName: uni0662
Width: 1155
VWidth: 0
GlyphClass: 2
Flags: HW
LayerCount: 2
Fore
SplineSet
599 901 m 256
 786 901 839 1028 860 1262 c 258
 872 1375 l 257
 1011 1356 l 257
 986 1067 952 760 614 760 c 256
 535 760 466 789 417 842 c 257
 477 577 500 311 500 0 c 257
 357 0 l 257
 357 504 302 866 113 1332 c 257
 251 1388 l 257
 299 1261 l 258
 400 996 457 901 599 901 c 256
EndSplineSet
Substitution2: "'tnum' Tabular Numbers lookup 22 subtable" uni0662.tnum
EndChar

StartChar: uni0663
Encoding: 1635 1635 708
GlifName: uni0663
Width: 1502
VWidth: 0
GlyphClass: 2
Flags: HW
LayerCount: 2
Fore
SplineSet
565 897 m 256
 670 897 721 976 737 1123 c 256
 744 1206 748 1272 751 1353 c 257
 870 1349 l 257
 862 1272 855 1195 855 1111 c 256
 855 973 906 897 1033 897 c 256
 1160 897 1196 982 1196 1114 c 256
 1196 1191 1189 1276 1175 1366 c 257
 1313 1389 l 257
 1327 1300 1335 1217 1335 1142 c 256
 1335 907 1256 755 1037 755 c 256
 908 755 805 833 791 959 c 257
 767 837 692 756 577 755 c 256
 501 755 459 782 417 835 c 257
 477 569 496 308 496 0 c 257
 354 0 l 257
 354 521 291 897 113 1333 c 257
 251 1388 l 257
 303 1223 l 257
 390 990 446 897 565 897 c 256
EndSplineSet
PairPos2: "'kern' Horizontal Kerning in Arabic lookup 7 subtable" uni0668 dx=-56 dy=0 dh=-56 dv=0 dx=0 dy=0 dh=0 dv=0
Substitution2: "'tnum' Tabular Numbers lookup 22 subtable" uni0663.tnum
EndChar

StartChar: uni0664
Encoding: 1636 1636 710
GlifName: uni0664
Width: 1043
VWidth: 0
GlyphClass: 2
Flags: HW
LayerCount: 2
Fore
SplineSet
483 706 m 257
 315 744 203 817 203 961 c 256
 203 1184 456 1355 742 1388 c 257
 759 1250 l 257
 488 1221 347 1085 347 963 c 256
 347 834 501 779 758 779 c 257
 758 653 l 257
 480 653 280 481 280 319 c 256
 280 164 428 141 589 141 c 258
 883 141 l 257
 883 0 l 257
 567 0 l 258
 349 0 137 59 137 303 c 256
 137 460 257 636 483 706 c 257
EndSplineSet
PairPos2: "'kern' Horizontal Kerning in Arabic lookup 7 subtable" uni0666 dx=56 dy=0 dh=56 dv=0 dx=0 dy=0 dh=0 dv=0
Substitution2: "'tnum' Tabular Numbers lookup 22 subtable" uni0664.tnum
EndChar

StartChar: uni0664.urdu
Encoding: 1114242 -1 712
GlifName: uni0664.urdu
Width: 1159
VWidth: 0
GlyphClass: 2
Flags: HW
LayerCount: 2
Fore
SplineSet
1050 1273 m 257
 910 1192 790 1106 693 993 c 257
 615 995 l 257
 491 1163 l 258
 452 1216 406 1240 360 1240 c 256
 289 1240 228 1180 228 1107 c 256
 228 1078 237 1047 260 1014 c 258
 601 435 l 258
 649 354 684 257 684 157 c 256
 684 94 671 31 643 -29 c 257
 511 27 l 257
 531 70 542 113 542 155 c 256
 542 227 516 298 480 359 c 258
 142 942 l 257
 105 998 84 1057 84 1115 c 256
 84 1265 209 1385 355 1385 c 256
 448 1385 530 1339 591 1259 c 258
 661 1164 l 257
 752 1255 866 1332 979 1397 c 257
 1050 1273 l 257
EndSplineSet
Substitution2: "'tnum' Tabular Numbers lookup 22 subtable" uni0664.urdu.tnum
EndChar

StartChar: uni0665
Encoding: 1637 1637 714
GlifName: uni0665
Width: 1304
VWidth: 0
GlyphClass: 2
Flags: HW
LayerCount: 2
Fore
SplineSet
543 1388 m 257
 820 1163 1145 779 1145 398 c 256
 1145 97 952 -20 661 -20 c 256
 380 -20 161 95 161 387 c 256
 161 663 304 929 571 1174 c 257
 534 1209 491 1248 453 1278 c 257
 543 1388 l 257
656 1089 m 257
 404 856 303 610 303 397 c 256
 303 198 426 123 661 123 c 256
 902 123 1003 192 1003 400 c 256
 1003 617 856 883 656 1089 c 257
EndSplineSet
PairPos2: "'kern' Horizontal Kerning in Arabic lookup 7 subtable" uni0661 dx=56 dy=0 dh=56 dv=0 dx=0 dy=0 dh=0 dv=0
PairPos2: "'kern' Horizontal Kerning in Arabic lookup 7 subtable" uni0667 dx=-111 dy=0 dh=-111 dv=0 dx=0 dy=0 dh=0 dv=0
Substitution2: "'tnum' Tabular Numbers lookup 22 subtable" uni0665.tnum
EndChar

StartChar: uni0666
Encoding: 1638 1638 716
GlifName: uni0666
Width: 1168
VWidth: 0
GlyphClass: 2
Flags: HW
LayerCount: 2
Fore
SplineSet
137 1228 m 257
 137 1375 l 257
 853 1375 l 257
 940 1281 l 257
 936 1189 934 1101 934 1005 c 256
 934 599 964 368 1061 37 c 257
 923 3 l 257
 826 342 791 590 791 1005 c 256
 791 1075 792 1152 795 1228 c 257
 137 1228 l 257
EndSplineSet
PairPos2: "'kern' Horizontal Kerning in Arabic lookup 7 subtable" uni0664 dx=-56 dy=0 dh=-56 dv=0 dx=0 dy=0 dh=0 dv=0
PairPos2: "'kern' Horizontal Kerning in Arabic lookup 7 subtable" uni0665 dx=-195 dy=0 dh=-195 dv=0 dx=0 dy=0 dh=0 dv=0
PairPos2: "'kern' Horizontal Kerning in Arabic lookup 7 subtable" uni0660 dx=-222 dy=0 dh=-222 dv=0 dx=0 dy=0 dh=0 dv=0
PairPos2: "'kern' Horizontal Kerning in Arabic lookup 7 subtable" uni066B dx=-167 dy=0 dh=-167 dv=0 dx=0 dy=0 dh=0 dv=0
PairPos2: "'kern' Horizontal Kerning in Arabic lookup 7 subtable" uni0668 dx=-222 dy=0 dh=-222 dv=0 dx=0 dy=0 dh=0 dv=0
Substitution2: "'tnum' Tabular Numbers lookup 22 subtable" uni0666.tnum
EndChar

StartChar: uni0667
Encoding: 1639 1639 718
GlifName: uni0667
Width: 1390
VWidth: 0
GlyphClass: 2
Flags: HW
LayerCount: 2
Fore
SplineSet
1150 1400 m 257
 1263 1311 l 257
 998 967 830 568 760 0 c 257
 631 0 l 257
 561 568 392 967 127 1311 c 257
 241 1400 l 257
 464 1111 654 662 695 253 c 257
 736 662 927 1111 1150 1400 c 257
EndSplineSet
PairPos2: "'kern' Horizontal Kerning in Arabic lookup 7 subtable" uni0660 dx=-111 dy=0 dh=-111 dv=0 dx=0 dy=0 dh=0 dv=0
PairPos2: "'kern' Horizontal Kerning in Arabic lookup 7 subtable" uni0665 dx=-111 dy=0 dh=-111 dv=0 dx=0 dy=0 dh=0 dv=0
PairPos2: "'kern' Horizontal Kerning in Arabic lookup 7 subtable" uni0668 dx=-167 dy=0 dh=-167 dv=0 dx=0 dy=0 dh=0 dv=0
PairPos2: "'kern' Horizontal Kerning in Arabic lookup 7 subtable" uni066B dx=-139 dy=0 dh=-139 dv=0 dx=0 dy=0 dh=0 dv=0
Substitution2: "'tnum' Tabular Numbers lookup 22 subtable" uni0667.tnum
Substitution2: "'locl' Localized Forms in Arabic lookup 5 subtable" uni0667.urdu
EndChar

StartChar: uni0667.urdu
Encoding: 1114247 -1 720
GlifName: uni0667.urdu
Width: 1152
VWidth: 0
GlyphClass: 2
Flags: HW
LayerCount: 2
Fore
SplineSet
993 202 m 257
 1043 69 l 257
 899 15 751 -10 602 -10 c 256
 453 -10 304 17 149 66 c 257
 110 173 l 257
 301 492 427 955 486 1389 c 257
 628 1370 l 257
 572 954 456 510 279 180 c 257
 394 150 502 133 608 133 c 256
 740 133 866 155 993 202 c 257
EndSplineSet
Substitution2: "'tnum' Tabular Numbers lookup 22 subtable" uni0667.urdu.tnum
EndChar

StartChar: uni0668
Encoding: 1640 1640 722
GlifName: uni0668
Width: 1390
VWidth: 0
GlyphClass: 2
Flags: HW
LayerCount: 2
Fore
SplineSet
241 -21 m 257
 127 69 l 257
 392 413 561 811 631 1379 c 257
 760 1379 l 257
 830 811 998 413 1263 69 c 257
 1150 -21 l 257
 927 268 736 717 695 1126 c 257
 654 717 464 268 241 -21 c 257
EndSplineSet
PairPos2: "'kern' Horizontal Kerning in Arabic lookup 7 subtable" uni0663 dx=-222 dy=0 dh=-222 dv=0 dx=0 dy=0 dh=0 dv=0
PairPos2: "'kern' Horizontal Kerning in Arabic lookup 7 subtable" uni0662 dx=-195 dy=0 dh=-195 dv=0 dx=0 dy=0 dh=0 dv=0
PairPos2: "'kern' Horizontal Kerning in Arabic lookup 7 subtable" uni0667 dx=-167 dy=0 dh=-167 dv=0 dx=0 dy=0 dh=0 dv=0
Substitution2: "'tnum' Tabular Numbers lookup 22 subtable" uni0668.tnum
EndChar

StartChar: uni0669
Encoding: 1641 1641 724
GlifName: uni0669
Width: 1100
VWidth: 0
GlyphClass: 2
Flags: HW
LayerCount: 2
Fore
SplineSet
733 645 m 257
 666 624 602 612 519 612 c 256
 324 612 145 681 145 939 c 256
 145 1156 262 1389 508 1389 c 256
 799 1389 858 1159 861 809 c 257
 864 436 902 251 988 56 c 257
 857 -1 l 257
 779 178 738 409 733 645 c 257
723 785 m 257
 723 816 l 258
 723 1094 678 1245 505 1245 c 256
 375 1245 281 1118 281 944 c 256
 281 806 360 752 520 752 c 256
 599 752 657 764 723 785 c 257
EndSplineSet
PairPos2: "'kern' Horizontal Kerning in Arabic lookup 7 subtable" uni0668 dx=-167 dy=0 dh=-167 dv=0 dx=0 dy=0 dh=0 dv=0
PairPos2: "'kern' Horizontal Kerning in Arabic lookup 7 subtable" uni0665 dx=-56 dy=0 dh=-56 dv=0 dx=0 dy=0 dh=0 dv=0
Substitution2: "'tnum' Tabular Numbers lookup 22 subtable" uni0669.tnum
EndChar

StartChar: uni066B
Encoding: 1643 1643 728
GlifName: uni066B_
Width: 878
VWidth: 0
GlyphClass: 2
Flags: HW
LayerCount: 2
Fore
SplineSet
241 -654 m 257
 87 -653 l 257
 586 622 l 257
 740 622 l 257
 241 -654 l 257
EndSplineSet
PairPos2: "'kern' Horizontal Kerning in Arabic lookup 7 subtable" uni066B dx=-56 dy=0 dh=-56 dv=0 dx=0 dy=0 dh=0 dv=0
PairPos2: "'kern' Horizontal Kerning in Arabic lookup 7 subtable" uni0663 dx=-167 dy=0 dh=-167 dv=0 dx=0 dy=0 dh=0 dv=0
PairPos2: "'kern' Horizontal Kerning in Arabic lookup 7 subtable" uni0662 dx=-111 dy=0 dh=-111 dv=0 dx=0 dy=0 dh=0 dv=0
PairPos2: "'kern' Horizontal Kerning in Arabic lookup 7 subtable" uni0667 dx=-111 dy=0 dh=-111 dv=0 dx=0 dy=0 dh=0 dv=0
PairPos2: "'kern' Horizontal Kerning in Arabic lookup 7 subtable" zero dx=-56 dy=0 dh=-56 dv=0 dx=0 dy=0 dh=0 dv=0
PairPos2: "'kern' Horizontal Kerning in Arabic lookup 7 subtable" two dx=-111 dy=0 dh=-111 dv=0 dx=0 dy=0 dh=0 dv=0
PairPos2: "'kern' Horizontal Kerning in Arabic lookup 7 subtable" three dx=-84 dy=0 dh=-84 dv=0 dx=0 dy=0 dh=0 dv=0
PairPos2: "'kern' Horizontal Kerning in Arabic lookup 7 subtable" seven dx=-111 dy=0 dh=-111 dv=0 dx=0 dy=0 dh=0 dv=0
Substitution2: "'tnum' Tabular Numbers lookup 22 subtable" uni066B.tnum
EndChar

StartChar: uni066C
Encoding: 1644 1644 730
GlifName: uni066C_
Width: 644
VWidth: 0
GlyphClass: 2
Flags: HW
LayerCount: 2
Fore
SplineSet
349 0 m 257
 275 -13 211 23 211 96 c 256
 211 155 255 199 322 199 c 256
 398 199 440 144 440 47 c 256
 440 -90 376 -203 269 -288 c 257
 210 -222 l 257
 279 -166 341 -85 349 0 c 257
EndSplineSet
Substitution2: "'tnum' Tabular Numbers lookup 22 subtable" uni066C.tnum
EndChar

StartChar: uni066D
Encoding: 1645 1645 732
GlifName: uni066D_
Width: 1000
VWidth: 0
GlyphClass: 2
Flags: HW
LayerCount: 2
Fore
SplineSet
553 652 m 257
 449 652 l 257
 455 1022 l 257
 138 833 l 257
 85 923 l 257
 408 1104 l 257
 85 1285 l 257
 138 1373 l 257
 455 1187 l 257
 449 1554 l 257
 553 1554 l 257
 548 1187 l 257
 864 1373 l 257
 917 1285 l 257
 596 1104 l 257
 917 923 l 257
 864 833 l 257
 548 1022 l 257
 553 652 l 257
EndSplineSet
Substitution2: "'tnum' Tabular Numbers lookup 22 subtable" uni066D.tnum
EndChar

StartChar: uni06DD
Encoding: 1757 1757 985
GlifName: uni06D_D_
Width: 0
VWidth: 0
GlyphClass: 2
Flags: H
LayerCount: 2
Fore
SplineSet
1007 641 m 256
 1007 429 1018 176 1047 -71 c 256
 1047 -72 1047 -74 1047 -75 c 256
 1047 -87 1036 -98 1025 -100 c 256
 784 -144 637 -207 507 -264 c 256
 354 -331 204 -386 0 -386 c 256
 -204 -386 -354 -331 -507 -264 c 256
 -637 -207 -784 -144 -1025 -100 c 256
 -1036 -98 -1047 -87 -1047 -75 c 256
 -1047 -74 -1047 -72 -1047 -71 c 256
 -1018 176 -1007 429 -1007 641 c 256
 -1007 853 -1018 1108 -1047 1355 c 256
 -1047 1356 -1047 1356 -1047 1357 c 256
 -1047 1369 -1036 1381 -1025 1383 c 256
 -784 1427 -637 1490 -507 1547 c 256
 -354 1614 -204 1669 0 1669 c 256
 204 1669 354 1614 507 1547 c 256
 637 1490 784 1427 1025 1383 c 256
 1036 1381 1047 1369 1047 1357 c 256
 1047 1356 1047 1356 1047 1355 c 256
 1018 1108 1007 853 1007 641 c 256
0 1594 m 256
 -189 1594 -328 1544 -475 1479 c 256
 -598 1425 -743 1363 -969 1320 c 257
 -943 1084 -933 843 -933 641 c 256
 -933 439 -943 199 -969 -37 c 257
 -743 -80 -598 -142 -475 -196 c 256
 -328 -261 -189 -311 0 -311 c 256
 189 -311 328 -261 475 -196 c 256
 598 -142 743 -80 969 -37 c 257
 943 199 933 439 933 641 c 256
 933 843 943 1084 969 1320 c 257
 743 1363 598 1425 475 1479 c 256
 328 1544 189 1594 0 1594 c 256
EndSplineSet
EndChar

StartChar: uni06DE
Encoding: 1758 1758 986
GlifName: uni06D_E_
Width: 2663
VWidth: 0
GlyphClass: 2
Flags: HW
LayerCount: 2
Fore
SplineSet
1331 1485 m 256
 1371 1485 1404 1451 1404 1411 c 256
 1404 1371 1371 1337 1331 1337 c 256
 1291 1337 1257 1371 1257 1411 c 256
 1257 1451 1291 1485 1331 1485 c 256
1331 -117 m 256
 1371 -117 1405 -151 1405 -191 c 256
 1405 -231 1371 -265 1331 -265 c 256
 1291 -265 1258 -231 1258 -191 c 256
 1258 -151 1291 -117 1331 -117 c 256
530 683 m 256
 570 683 604 650 604 610 c 256
 604 570 570 536 530 536 c 256
 490 536 456 570 456 610 c 256
 456 650 490 683 530 683 c 256
2132 684 m 256
 2172 684 2206 650 2206 610 c 256
 2206 570 2172 537 2132 537 c 256
 2092 537 2058 570 2058 610 c 256
 2058 650 2092 684 2132 684 c 256
790 1224 m 256
 829 1224 864 1189 864 1150 c 256
 864 1111 829 1077 790 1077 c 256
 751 1077 717 1111 717 1150 c 256
 717 1189 751 1224 790 1224 c 256
1872 143 m 256
 1911 143 1945 109 1945 70 c 256
 1945 31 1911 -4 1872 -4 c 256
 1833 -4 1798 31 1798 70 c 256
 1798 109 1833 143 1872 143 c 256
791 143 m 256
 830 143 864 108 864 69 c 256
 864 30 830 -4 791 -4 c 256
 752 -4 717 30 717 69 c 256
 717 108 752 143 791 143 c 256
1871 1224 m 256
 1910 1224 1945 1190 1945 1151 c 256
 1945 1112 1910 1077 1871 1077 c 256
 1832 1077 1798 1112 1798 1151 c 256
 1798 1190 1832 1224 1871 1224 c 256
1332 1670 m 257
 1021 1360 l 257
 581 1360 l 257
 581 921 l 257
 271 610 l 257
 581 299 l 257
 581 -140 l 257
 1021 -140 l 257
 1332 -450 l 257
 1642 -140 l 257
 2081 -140 l 257
 2081 299 l 257
 2392 610 l 257
 2081 921 l 257
 2081 1360 l 257
 1642 1360 l 257
 1332 1670 l 257
1331 1769 m 257
 1671 1430 l 257
 2151 1430 l 257
 2151 950 l 257
 2491 610 l 257
 2151 270 l 257
 2151 -210 l 257
 1671 -210 l 257
 1331 -549 l 257
 992 -210 l 257
 511 -210 l 257
 511 271 l 257
 172 610 l 257
 511 949 l 257
 511 1430 l 257
 992 1430 l 257
 1331 1769 l 257
EndSplineSet
Refer: 1700 57390 N 1 0 0 1 885 153 2
EndChar

StartChar: uni06DF
Encoding: 1759 1759 987
GlifName: uni06D_F_
Width: 0
VWidth: 0
GlyphClass: 2
Flags: H
LayerCount: 2
Fore
SplineSet
-82 1464 m 256
 -82 1509 -45 1545 0 1545 c 256
 45 1545 82 1509 82 1464 c 256
 82 1419 45 1382 0 1382 c 256
 -45 1382 -82 1419 -82 1464 c 256
EndSplineSet
EndChar

StartChar: uni06E0
Encoding: 1760 1760 988
GlifName: uni06E_0
Width: 0
VWidth: 0
GlyphClass: 2
Flags: H
LayerCount: 2
Fore
SplineSet
-82 1382 m 257
 -82 1545 l 257
 82 1545 l 257
 82 1382 l 257
 -82 1382 l 257
EndSplineSet
EndChar

StartChar: uni06E9
Encoding: 1769 1769 997
GlifName: uni06E_9
Width: 1236
VWidth: 0
GlyphClass: 2
Flags: HW
LayerCount: 2
Fore
SplineSet
351 59 m 257
 351 695 l 257
 121 958 l 257
 618 1414 l 257
 1115 958 l 257
 885 695 l 257
 885 59 l 257
 1051 59 l 257
 1051 0 l 257
 185 0 l 257
 185 59 l 257
 351 59 l 257
817 721 m 257
 1025 947 l 257
 618 1316 l 257
 211 947 l 257
 419 721 l 257
 419 59 l 257
 817 59 l 257
 817 721 l 257
651 897 m 257
 651 202 l 257
 585 202 l 257
 585 897 l 257
 651 897 l 257
EndSplineSet
EndChar

StartChar: uni06F0
Encoding: 1776 1776 1005
GlifName: uni06F_0
Width: 887
VWidth: 0
GlyphClass: 2
Flags: HW
LayerCount: 2
Fore
SplineSet
443 639 m 256
 330 639 275 565 275 471 c 256
 275 377 330 302 443 302 c 256
 556 302 611 377 611 471 c 256
 611 564 556 639 443 639 c 256
443 755 m 256
 621 755 729 632 729 471 c 256
 729 312 622 185 443 185 c 256
 264 185 158 312 158 471 c 256
 158 630 265 755 443 755 c 256
EndSplineSet
Substitution2: "'tnum' Tabular Numbers lookup 22 subtable" uni06F0.tnum
EndChar

StartChar: uni06F4
Encoding: 1780 1780 1010
GlifName: uni06F_4
Width: 1194
VWidth: 0
GlyphClass: 2
Flags: HW
LayerCount: 2
Fore
SplineSet
822 1389 m 256
 885 1389 959 1373 1032 1343 c 257
 990 1210 l 257
 932 1234 865 1247 808 1247 c 256
 622 1247 526 1105 521 880 c 257
 576 796 692 756 808 756 c 256
 892 756 977 777 1043 819 c 257
 1083 693 l 257
 991 644 895 619 803 619 c 256
 634 619 480 706 398 867 c 257
 474 618 499 313 499 0 c 257
 356 0 l 257
 356 511 299 886 116 1334 c 257
 258 1388 l 257
 313 1236 382 1073 443 968 c 257
 464 1226 601 1389 822 1389 c 256
EndSplineSet
Substitution2: "'tnum' Tabular Numbers lookup 22 subtable" uni06F4.tnum
Substitution2: "'locl' Localized Forms in Arabic lookup 5 subtable" uni0664.urdu
EndChar

StartChar: uni06F5
Encoding: 1781 1781 1012
GlifName: uni06F_5
Width: 1404
VWidth: 0
GlyphClass: 2
Flags: HW
LayerCount: 2
Fore
SplineSet
706 181 m 257
 677 71 595 -3 467 -3 c 256
 288 -3 161 126 161 371 c 256
 161 604 260 894 593 1180 c 257
 557 1210 507 1248 467 1276 c 257
 545 1388 l 257
 610 1343 668 1296 729 1244 c 256
 1075 947 1245 662 1245 361 c 256
 1245 120 1116 -3 951 -3 c 256
 824 -3 736 70 706 181 c 257
653 399 m 257
 758 399 l 257
 760 349 l 258
 765 215 817 139 941 139 c 256
 1030 139 1112 187 1112 362 c 256
 1112 587 984 829 682 1099 c 257
 391 858 296 579 296 387 c 256
 296 202 379 139 478 139 c 256
 596 139 646 218 651 347 c 258
 653 399 l 257
EndSplineSet
Substitution2: "'tnum' Tabular Numbers lookup 22 subtable" uni06F5.tnum
EndChar

StartChar: uni06F6
Encoding: 1782 1782 1014
GlifName: uni06F_6
Width: 1150
VWidth: 0
GlyphClass: 2
Flags: HW
LayerCount: 2
Fore
SplineSet
667 627 m 257
 396 597 187 730 187 963 c 256
 187 1229 400 1385 615 1385 c 256
 734 1385 842 1345 927 1256 c 257
 851 1151 l 257
 792 1213 705 1245 616 1245 c 256
 471 1245 325 1151 325 968 c 256
 325 812 449 732 642 732 c 256
 746 732 848 759 961 793 c 257
 992 804 l 257
 1044 669 l 257
 1019 662 l 257
 687 567 449 287 256 -28 c 257
 137 52 l 257
 263 279 474 532 667 627 c 257
EndSplineSet
Substitution2: "'tnum' Tabular Numbers lookup 22 subtable" uni0666.tnum
Substitution2: "'locl' Localized Forms in Arabic lookup 5 subtable" uni0666
EndChar

StartChar: uni1D00
Encoding: 7424 7424 1327
GlifName: uni1D_00
Width: 962
VWidth: 0
GlyphClass: 2
Flags: HW
LayerCount: 2
Fore
SplineSet
716 277 m 257
 242 277 l 257
 273 375 l 257
 686 375 l 257
 716 277 l 257
158 0 m 257
 12 0 l 257
 387 1026 l 257
 563 1026 l 257
 939 0 l 257
 793 0 l 257
 475 903 l 257
 158 0 l 257
EndSplineSet
EndChar

StartChar: uni1D01
Encoding: 7425 7425 1328
GlifName: uni1D_01
Width: 1208
VWidth: 0
GlyphClass: 2
Flags: HW
LayerCount: 2
Fore
SplineSet
286 375 m 257
 510 375 l 257
 510 900 l 257
 475 900 l 257
 286 375 l 257
158 0 m 257
 12 0 l 257
 387 1026 l 257
 1133 1026 l 257
 1133 908 l 257
 651 908 l 257
 651 564 l 257
 1088 564 l 257
 1088 461 l 257
 651 461 l 257
 651 117 l 257
 1133 117 l 257
 1133 0 l 257
 510 0 l 257
 510 277 l 257
 256 277 l 257
 158 0 l 257
EndSplineSet
EndChar

StartChar: uni1D04
Encoding: 7428 7428 1329
GlifName: uni1D_04
Width: 1071
VWidth: 0
GlyphClass: 2
Flags: HW
LayerCount: 2
Fore
SplineSet
564 1037 m 256
 796 1037 934 884 965 732 c 257
 841 717 l 257
 809 821 716 920 565 920 c 256
 350 920 248 750 248 513 c 256
 248 276 350 106 564 106 c 256
 716 106 809 205 841 309 c 257
 965 294 l 257
 934 143 797 -11 566 -11 c 256
 281 -11 114 186 114 513 c 256
 114 840 280 1037 564 1037 c 256
EndSplineSet
EndChar

StartChar: uni1D05
Encoding: 7429 7429 1330
GlifName: uni1D_05
Width: 1053
VWidth: 0
GlyphClass: 2
Flags: HW
LayerCount: 2
Fore
SplineSet
156 1026 m 257
 512 1026 l 258
 811 1026 964 816 964 513 c 256
 964 210 811 0 512 0 c 258
 156 0 l 257
 156 1026 l 257
298 922 m 257
 298 108 l 257
 502 108 l 258
 720 108 825 264 825 513 c 256
 825 762 720 922 502 922 c 258
 298 922 l 257
EndSplineSet
EndChar

StartChar: uni1D07
Encoding: 7431 7431 1331
GlifName: uni1D_07
Width: 854
VWidth: 0
GlyphClass: 2
Flags: HW
LayerCount: 2
Fore
SplineSet
779 117 m 257
 779 0 l 257
 156 0 l 257
 156 1026 l 257
 779 1026 l 257
 779 909 l 257
 298 909 l 257
 298 564 l 257
 734 564 l 257
 734 461 l 257
 298 461 l 257
 298 117 l 257
 779 117 l 257
EndSplineSet
EndChar

StartChar: uni1D0A
Encoding: 7434 7434 1332
GlifName: uni1D_0A_
Width: 677
VWidth: 0
GlyphClass: 2
Flags: HW
LayerCount: 2
Fore
SplineSet
79 16 m 257
 101 115 l 257
 130 108 172 103 212 103 c 256
 322 103 380 153 380 262 c 258
 380 1026 l 257
 521 1026 l 257
 521 247 l 258
 521 64 400 -10 241 -10 c 256
 185 -10 129 0 79 16 c 257
EndSplineSet
EndChar

StartChar: uni1D0B
Encoding: 7435 7435 1333
GlifName: uni1D_0B_
Width: 975
VWidth: 0
GlyphClass: 2
Flags: HW
LayerCount: 2
Fore
SplineSet
156 1026 m 257
 298 1026 l 257
 298 482 l 257
 768 1026 l 257
 941 1026 l 257
 502 515 l 257
 941 0 l 257
 768 0 l 257
 414 411 l 257
 298 277 l 257
 298 0 l 257
 156 0 l 257
 156 1026 l 257
EndSplineSet
EndChar

StartChar: uni1D0D
Encoding: 7437 7437 1334
GlifName: uni1D_0D_
Width: 1457
VWidth: 0
GlyphClass: 2
Flags: HW
LayerCount: 2
Fore
SplineSet
298 0 m 257
 156 0 l 257
 156 1026 l 257
 352 1026 l 257
 711 120 l 257
 1105 1026 l 257
 1301 1026 l 257
 1301 0 l 257
 1159 0 l 257
 1159 853 l 257
 781 0 l 257
 639 0 l 257
 298 847 l 257
 298 0 l 257
EndSplineSet
EndChar

StartChar: uni1D0F
Encoding: 7439 7439 1335
GlifName: uni1D_0F_
Width: 1087
VWidth: 0
GlyphClass: 2
Flags: HW
LayerCount: 2
Fore
SplineSet
544 1037 m 256
 851 1037 1003 820 1003 513 c 256
 1003 206 850 -11 544 -11 c 256
 238 -11 85 206 85 513 c 256
 85 820 237 1037 544 1037 c 256
544 921 m 256
 323 921 215 748 215 513 c 256
 215 277 322 105 544 105 c 256
 766 105 873 278 873 513 c 256
 873 749 765 921 544 921 c 256
EndSplineSet
EndChar

StartChar: uni1D18
Encoding: 7448 7448 1336
GlifName: uni1D_18
Width: 960
VWidth: 0
GlyphClass: 2
Flags: HW
LayerCount: 2
Fore
SplineSet
299 0 m 257
 156 0 l 257
 156 1026 l 257
 557 1026 l 258
 755 1026 875 908 875 727 c 256
 875 545 754 419 557 419 c 258
 299 419 l 257
 299 0 l 257
299 921 m 257
 299 524 l 257
 539 524 l 258
 674 524 734 602 734 727 c 256
 734 852 674 921 539 921 c 258
 299 921 l 257
EndSplineSet
EndChar

StartChar: uni1D1B
Encoding: 7451 7451 1337
GlifName: uni1D_1B_
Width: 1001
VWidth: 0
GlyphClass: 2
Flags: HW
LayerCount: 2
Fore
SplineSet
572 0 m 257
 429 0 l 257
 429 903 l 257
 73 903 l 257
 73 1026 l 257
 929 1026 l 257
 929 903 l 257
 572 903 l 257
 572 0 l 257
EndSplineSet
EndChar

StartChar: uni1D1C
Encoding: 7452 7452 1338
GlifName: uni1D_1C_
Width: 1036
VWidth: 0
GlyphClass: 2
Flags: HW
LayerCount: 2
Fore
SplineSet
784 1026 m 257
 920 1026 l 257
 920 372 l 258
 920 126 760 -10 518 -10 c 256
 276 -10 116 126 116 372 c 258
 116 1026 l 257
 252 1026 l 257
 252 380 l 258
 252 209 347 106 518 106 c 256
 689 106 784 209 784 380 c 258
 784 1026 l 257
EndSplineSet
EndChar

StartChar: uni1D20
Encoding: 7456 7456 1339
GlifName: uni1D_20
Width: 951
VWidth: 0
GlyphClass: 2
Flags: HW
LayerCount: 2
Fore
SplineSet
158 1026 m 257
 476 124 l 257
 793 1026 l 257
 939 1026 l 257
 565 0 l 257
 388 0 l 257
 12 1026 l 257
 158 1026 l 257
EndSplineSet
EndChar

StartChar: uni1D21
Encoding: 7457 7457 1340
GlifName: uni1D_21
Width: 1494
VWidth: 0
GlyphClass: 2
Flags: HW
LayerCount: 2
Fore
SplineSet
44 1026 m 257
 181 1026 l 257
 431 143 l 257
 671 1026 l 257
 823 1026 l 257
 1064 143 l 257
 1311 1026 l 257
 1450 1026 l 257
 1167 0 l 257
 985 0 l 257
 747 857 l 257
 505 0 l 257
 327 0 l 257
 44 1026 l 257
EndSplineSet
EndChar

StartChar: uni1D22
Encoding: 7458 7458 1341
GlifName: uni1D_22
Width: 979
VWidth: 0
GlyphClass: 2
Flags: HW
LayerCount: 2
Fore
SplineSet
100 1026 m 257
 876 1026 l 257
 876 909 l 257
 249 122 l 257
 876 122 l 257
 876 0 l 257
 100 0 l 257
 100 119 l 257
 728 905 l 257
 100 905 l 257
 100 1026 l 257
EndSplineSet
EndChar

StartChar: uni1E9E
Encoding: 7838 7838 1495
GlifName: uni1E_9E_
Width: 1216
VWidth: 0
GlyphClass: 2
Flags: HW
LayerCount: 2
Fore
SplineSet
154 0 m 257
 154 914 l 258
 154 1221 303 1410 591 1411 c 256
 808 1411 1001 1291 1001 1058 c 256
 1001 903 924 792 785 741 c 257
 978 701 1124 594 1124 347 c 256
 1124 126 1000 -10 783 -10 c 256
 582 -10 454 95 454 303 c 257
 556 303 l 257
 556 170 641 107 767 107 c 256
 918 107 984 215 984 360 c 256
 984 603 794 681 559 681 c 257
 559 795 l 257
 789 795 861 929 861 1050 c 256
 861 1215 730 1292 591 1292 c 256
 394 1292 298 1156 298 929 c 258
 298 0 l 257
 154 0 l 257
EndSplineSet
EndChar

StartChar: uni200C
Encoding: 8204 8204 1584
GlifName: uni200C_
Width: 0
VWidth: 0
GlyphClass: 2
Flags: H
LayerCount: 2
Fore
SplineSet
37 1366 m 257
 37 -291 l 257
 -37 -291 l 257
 -37 1366 l 257
 37 1366 l 257
EndSplineSet
EndChar

StartChar: uni200D
Encoding: 8205 8205 1585
GlifName: uni200D_
Width: 0
VWidth: 0
GlyphClass: 2
Flags: H
LayerCount: 2
Fore
SplineSet
179 -286 m 257
 45 -152 l 257
 99 -98 l 257
 233 -232 l 257
 179 -286 l 257
-99 -8 m 257
 -233 126 l 257
 -179 180 l 257
 -45 46 l 257
 -99 -8 l 257
233 126 m 257
 -179 -286 l 257
 -233 -232 l 257
 179 180 l 257
 233 126 l 257
179 1027 m 257
 45 1161 l 257
 99 1215 l 257
 233 1081 l 257
 179 1027 l 257
-99 1305 m 257
 -233 1439 l 257
 -179 1493 l 257
 -45 1359 l 257
 -99 1305 l 257
233 1439 m 257
 -179 1027 l 257
 -233 1081 l 257
 179 1493 l 257
 233 1439 l 257
-37 1055 m 257
 37 1055 l 257
 37 151 l 257
 -37 151 l 257
 -37 1055 l 257
EndSplineSet
EndChar

StartChar: uni200E
Encoding: 8206 8206 1586
GlifName: uni200E_
Width: 0
VWidth: 0
GlyphClass: 2
Flags: H
LayerCount: 2
Fore
SplineSet
287 1038 m 257
 233 1092 l 257
 411 1271 l 257
 233 1450 l 257
 287 1504 l 257
 521 1271 l 257
 287 1038 l 257
288 -295 m 257
 234 -241 l 257
 413 -62 l 257
 234 117 l 257
 288 171 l 257
 521 -62 l 257
 288 -295 l 257
37 49 m 258
 37 6 69 -25 112 -25 c 258
 261 -25 l 257
 261 -101 l 257
 112 -101 l 258
 28 -101 -37 -35 -37 49 c 258
 -37 1159 l 258
 -37 1243 28 1309 112 1309 c 258
 261 1309 l 257
 261 1233 l 257
 112 1233 l 258
 69 1233 37 1202 37 1159 c 258
 37 49 l 258
EndSplineSet
EndChar

StartChar: uni200F
Encoding: 8207 8207 1587
GlifName: uni200F_
Width: 0
VWidth: 0
GlyphClass: 2
Flags: H
LayerCount: 2
Fore
SplineSet
-287 1038 m 257
 -521 1271 l 257
 -287 1504 l 257
 -233 1450 l 257
 -411 1271 l 257
 -233 1092 l 257
 -287 1038 l 257
-288 -295 m 257
 -521 -62 l 257
 -288 171 l 257
 -234 117 l 257
 -413 -62 l 257
 -234 -241 l 257
 -288 -295 l 257
-37 49 m 258
 -37 1159 l 258
 -37 1202 -69 1233 -112 1233 c 258
 -261 1233 l 257
 -261 1309 l 257
 -112 1309 l 258
 -28 1309 37 1243 37 1159 c 258
 37 49 l 258
 37 -35 -28 -101 -112 -101 c 258
 -261 -101 l 257
 -261 -25 l 257
 -112 -25 l 258
 -69 -25 -37 6 -37 49 c 258
EndSplineSet
EndChar

StartChar: uni202A
Encoding: 8234 8234 1592
GlifName: uni202A_
Width: 0
VWidth: 0
GlyphClass: 2
Flags: H
LayerCount: 2
Fore
SplineSet
-65 1023 m 257
 -120 1077 l 257
 59 1256 l 257
 -120 1435 l 257
 -65 1489 l 257
 168 1256 l 257
 -65 1023 l 257
-39 883 m 257
 39 883 l 257
 39 49 l 257
 -39 49 l 257
 -39 883 l 257
EndSplineSet
EndChar

StartChar: uni202B
Encoding: 8235 8235 1593
GlifName: uni202B_
Width: 0
VWidth: 0
GlyphClass: 2
Flags: H
LayerCount: 2
Fore
SplineSet
65 1023 m 257
 -168 1256 l 257
 65 1489 l 257
 120 1435 l 257
 -59 1256 l 257
 120 1077 l 257
 65 1023 l 257
-39 883 m 257
 39 883 l 257
 39 49 l 257
 -39 49 l 257
 -39 883 l 257
EndSplineSet
EndChar

StartChar: uni202C
Encoding: 8236 8236 1594
GlifName: uni202C_
Width: 0
VWidth: 0
GlyphClass: 2
Flags: H
LayerCount: 2
Fore
SplineSet
-233 1172 m 257
 0 1405 l 257
 233 1172 l 257
 179 1118 l 257
 0 1296 l 257
 -179 1118 l 257
 -233 1172 l 257
-39 922 m 257
 39 922 l 257
 39 49 l 257
 -39 49 l 257
 -39 922 l 257
EndSplineSet
EndChar

StartChar: uni202D
Encoding: 8237 8237 1595
GlifName: uni202D_
Width: 0
VWidth: 0
GlyphClass: 2
Flags: H
LayerCount: 2
Fore
SplineSet
78 1023 m 257
 23 1077 l 257
 202 1256 l 257
 23 1435 l 257
 78 1489 l 257
 311 1256 l 257
 78 1023 l 257
-162 1023 m 257
 -216 1077 l 257
 -37 1256 l 257
 -216 1435 l 257
 -162 1489 l 257
 71 1256 l 257
 -162 1023 l 257
-39 883 m 257
 39 883 l 257
 39 49 l 257
 -39 49 l 257
 -39 883 l 257
EndSplineSet
EndChar

StartChar: uni202E
Encoding: 8238 8238 1596
GlifName: uni202E_
Width: 0
VWidth: 0
GlyphClass: 2
Flags: H
LayerCount: 2
Fore
SplineSet
-78 1023 m 257
 -311 1256 l 257
 -78 1489 l 257
 -23 1435 l 257
 -202 1256 l 257
 -23 1077 l 257
 -78 1023 l 257
162 1023 m 257
 -71 1256 l 257
 162 1489 l 257
 216 1435 l 257
 37 1256 l 257
 216 1077 l 257
 162 1023 l 257
-39 883 m 257
 39 883 l 257
 39 49 l 257
 -39 49 l 257
 -39 883 l 257
EndSplineSet
EndChar

StartChar: uni2035
Encoding: 8245 8245 1598
GlifName: uni2035
Width: 452
VWidth: 0
GlyphClass: 2
Flags: HW
LayerCount: 2
Fore
SplineSet
231 1375 m 257
 335 937 l 257
 247 937 l 257
 117 1375 l 257
 231 1375 l 257
EndSplineSet
EndChar

StartChar: uni2070
Encoding: 8304 8304 1601
GlifName: uni2070
Width: 730
VWidth: 0
GlyphClass: 2
Flags: HW
LayerCount: 2
Fore
SplineSet
365 1716 m 256
 251 1716 220 1612 220 1459 c 256
 220 1306 251 1202 365 1202 c 256
 479 1202 511 1306 511 1459 c 256
 511 1612 479 1716 365 1716 c 256
365 1797 m 256
 546 1797 598 1638 598 1459 c 256
 598 1280 546 1122 365 1122 c 256
 184 1122 133 1280 133 1459 c 256
 133 1638 184 1797 365 1797 c 256
EndSplineSet
EndChar

StartChar: uni2074
Encoding: 8308 8308 1602
GlifName: uni2074
Width: 800
VWidth: 0
GlyphClass: 2
Flags: HW
LayerCount: 2
Fore
SplineSet
473 1330 m 257
 473 1662 l 257
 219 1330 l 257
 473 1330 l 257
473 1256 m 257
 133 1256 l 257
 133 1323 l 257
 479 1787 l 257
 558 1787 l 257
 558 1330 l 257
 668 1330 l 257
 668 1256 l 257
 558 1256 l 257
 558 1132 l 257
 473 1132 l 257
 473 1256 l 257
EndSplineSet
EndChar

StartChar: uni2075
Encoding: 8309 8309 1603
GlifName: uni2075
Width: 700
VWidth: 0
GlyphClass: 2
Flags: HW
LayerCount: 2
Fore
SplineSet
133 1317 m 257
 219 1317 l 257
 219 1242 260 1198 346 1198 c 256
 433 1198 482 1249 482 1349 c 256
 482 1445 432 1502 341 1502 c 256
 286 1502 241 1474 197 1433 c 257
 140 1465 l 257
 175 1787 l 257
 560 1787 l 257
 560 1712 l 257
 250 1712 l 257
 228 1540 l 257
 263 1562 308 1576 354 1576 c 256
 484 1576 567 1488 567 1353 c 256
 567 1208 477 1122 341 1122 c 256
 213 1122 133 1198 133 1317 c 257
EndSplineSet
EndChar

StartChar: uni2076
Encoding: 8310 8310 1604
GlifName: uni2076
Width: 699
VWidth: 0
GlyphClass: 2
Flags: HW
LayerCount: 2
Fore
SplineSet
362 1797 m 256
 480 1797 556 1719 556 1618 c 257
 479 1618 l 257
 479 1671 447 1721 361 1721 c 256
 250 1721 216 1605 213 1488 c 257
 250 1534 303 1561 366 1561 c 256
 485 1561 567 1472 567 1347 c 256
 567 1212 487 1122 357 1122 c 256
 189 1122 133 1247 133 1430 c 256
 133 1652 199 1797 362 1797 c 256
355 1483 m 256
 302 1483 254 1465 214 1401 c 257
 214 1274 254 1199 357 1199 c 256
 435 1199 481 1252 481 1341 c 256
 481 1425 434 1483 355 1483 c 256
EndSplineSet
EndChar

StartChar: uni2077
Encoding: 8311 8311 1605
GlifName: uni2077
Width: 734
VWidth: 0
GlyphClass: 2
Flags: HW
LayerCount: 2
Fore
SplineSet
601 1718 m 257
 476 1567 361 1364 361 1132 c 257
 277 1132 l 257
 277 1351 385 1566 496 1708 c 257
 133 1708 l 257
 133 1787 l 257
 585 1787 l 257
 601 1718 l 257
EndSplineSet
EndChar

StartChar: uni2078
Encoding: 8312 8312 1606
GlifName: uni2078
Width: 710
VWidth: 0
GlyphClass: 2
Flags: HW
LayerCount: 2
Fore
SplineSet
355 1797 m 256
 470 1797 550 1717 550 1619 c 256
 550 1560 520 1506 471 1472 c 257
 536 1432 578 1372 578 1304 c 256
 578 1200 494 1122 355 1122 c 256
 216 1122 133 1200 133 1305 c 256
 133 1373 173 1434 238 1473 c 257
 190 1507 159 1560 159 1619 c 256
 159 1718 240 1797 355 1797 c 256
355 1724 m 256
 289 1724 245 1679 245 1613 c 256
 245 1546 290 1503 355 1503 c 256
 420 1503 465 1546 465 1613 c 256
 465 1680 420 1724 355 1724 c 256
353 1433 m 256
 276 1433 220 1384 220 1311 c 256
 220 1237 270 1196 355 1196 c 256
 439 1196 490 1235 490 1309 c 256
 490 1382 431 1433 353 1433 c 256
EndSplineSet
EndChar

StartChar: uni2079
Encoding: 8313 8313 1607
GlifName: uni2079
Width: 699
VWidth: 0
GlyphClass: 2
Flags: HW
LayerCount: 2
Fore
SplineSet
486 1517 m 257
 486 1644 445 1720 342 1720 c 256
 264 1720 218 1666 218 1577 c 256
 218 1493 265 1436 344 1436 c 256
 397 1436 446 1453 486 1517 c 257
487 1431 m 257
 450 1385 396 1358 333 1358 c 256
 214 1358 133 1446 133 1571 c 256
 133 1706 212 1797 342 1797 c 256
 510 1797 567 1672 567 1489 c 256
 567 1267 500 1122 337 1122 c 256
 219 1122 143 1200 143 1301 c 257
 220 1301 l 257
 220 1248 253 1198 339 1198 c 256
 450 1198 484 1314 487 1431 c 257
EndSplineSet
EndChar

StartChar: uni2196
Encoding: 8598 8598 1629
GlifName: uni2196
Width: 1122
VWidth: 0
GlyphClass: 2
Flags: HW
LayerCount: 2
Fore
SplineSet
909 93 m 257
 267 735 l 257
 242 778 l 257
 242 383 l 257
 150 383 l 257
 150 915 l 257
 683 915 l 257
 683 823 l 257
 287 823 l 257
 330 798 l 257
 972 157 l 257
 909 93 l 257
EndSplineSet
EndChar

StartChar: uni2197
Encoding: 8599 8599 1630
GlifName: uni2197
Width: 1122
VWidth: 0
GlyphClass: 2
Flags: HW
LayerCount: 2
Fore
SplineSet
150 157 m 257
 792 798 l 257
 835 823 l 257
 439 823 l 257
 439 915 l 257
 972 915 l 257
 972 383 l 257
 880 383 l 257
 880 778 l 257
 855 735 l 257
 213 93 l 257
 150 157 l 257
EndSplineSet
EndChar

StartChar: uni2198
Encoding: 8600 8600 1631
GlifName: uni2198
Width: 1122
VWidth: 0
GlyphClass: 2
Flags: HW
LayerCount: 2
Fore
SplineSet
213 915 m 257
 855 273 l 257
 880 231 l 257
 880 626 l 257
 972 626 l 257
 972 93 l 257
 439 93 l 257
 439 185 l 257
 835 185 l 257
 792 210 l 257
 150 852 l 257
 213 915 l 257
EndSplineSet
EndChar

StartChar: uni2199
Encoding: 8601 8601 1632
GlifName: uni2199
Width: 1122
VWidth: 0
GlyphClass: 2
Flags: HW
LayerCount: 2
Fore
SplineSet
972 852 m 257
 330 210 l 257
 287 185 l 257
 683 185 l 257
 683 93 l 257
 150 93 l 257
 150 626 l 257
 242 626 l 257
 242 231 l 257
 267 273 l 257
 909 915 l 257
 972 852 l 257
EndSplineSet
EndChar

StartChar: uni220E
Encoding: 8718 8718 1633
GlifName: uni220E_
Width: 1057
VWidth: 0
GlyphClass: 2
Flags: HW
LayerCount: 2
Fore
SplineSet
197 1195 m 257
 861 1195 l 257
 861 0 l 257
 197 0 l 257
 197 1195 l 257
EndSplineSet
EndChar

StartChar: uni25CC
Encoding: 9676 9676 1634
GlifName: uni25C_C_
Width: 1702
VWidth: 0
GlyphClass: 2
Flags: HW
LayerCount: 2
Fore
SplineSet
788 91 m 256
 788 138 804 154 851 154 c 256
 898 154 914 138 914 91 c 256
 914 44 898 28 851 28 c 256
 804 28 788 44 788 91 c 256
788 1447 m 256
 788 1494 804 1510 851 1510 c 256
 898 1510 914 1494 914 1447 c 256
 914 1400 898 1384 851 1384 c 256
 804 1384 788 1400 788 1447 c 256
1529 706 m 256
 1482 706 1466 722 1466 769 c 256
 1466 816 1482 832 1529 832 c 256
 1576 832 1592 816 1592 769 c 256
 1592 722 1576 706 1529 706 c 256
173 706 m 256
 126 706 110 722 110 769 c 256
 110 816 126 832 173 832 c 256
 220 832 236 816 236 769 c 256
 236 722 220 706 173 706 c 256
1267 290 m 256
 1267 337 1283 353 1330 353 c 256
 1377 353 1393 337 1393 290 c 256
 1393 243 1377 227 1330 227 c 256
 1283 227 1267 243 1267 290 c 256
309 1248 m 256
 309 1295 325 1311 372 1311 c 256
 419 1311 435 1295 435 1248 c 256
 435 1201 419 1185 372 1185 c 256
 325 1185 309 1201 309 1248 c 256
1330 1185 m 256
 1283 1185 1267 1201 1267 1248 c 256
 1267 1295 1283 1311 1330 1311 c 256
 1377 1311 1393 1295 1393 1248 c 256
 1393 1201 1377 1185 1330 1185 c 256
372 227 m 256
 325 227 309 243 309 290 c 256
 309 337 325 353 372 353 c 256
 419 353 435 337 435 290 c 256
 435 243 419 227 372 227 c 256
529 143 m 256
 529 190 545 205 592 205 c 256
 639 205 655 190 655 143 c 256
 655 96 639 79 592 79 c 256
 545 79 529 96 529 143 c 256
1110 1459 m 256
 1157 1459 1173 1442 1173 1395 c 256
 1173 1348 1157 1333 1110 1333 c 256
 1063 1333 1047 1348 1047 1395 c 256
 1047 1442 1063 1459 1110 1459 c 256
1477 447 m 256
 1430 447 1415 463 1415 510 c 256
 1415 557 1430 573 1477 573 c 256
 1524 573 1541 557 1541 510 c 256
 1541 463 1524 447 1477 447 c 256
161 1028 m 256
 161 1075 178 1091 225 1091 c 256
 272 1091 287 1075 287 1028 c 256
 287 981 272 965 225 965 c 256
 178 965 161 981 161 1028 c 256
1047 143 m 256
 1047 190 1063 205 1110 205 c 256
 1157 205 1173 190 1173 143 c 256
 1173 96 1157 79 1110 79 c 256
 1063 79 1047 96 1047 143 c 256
529 1395 m 256
 529 1442 545 1459 592 1459 c 256
 639 1459 655 1442 655 1395 c 256
 655 1348 639 1333 592 1333 c 256
 545 1333 529 1348 529 1395 c 256
1477 965 m 256
 1430 965 1415 981 1415 1028 c 256
 1415 1075 1430 1091 1477 1091 c 256
 1524 1091 1541 1075 1541 1028 c 256
 1541 981 1524 965 1477 965 c 256
225 447 m 256
 178 447 161 463 161 510 c 256
 161 557 178 573 225 573 c 256
 272 573 287 557 287 510 c 256
 287 463 272 447 225 447 c 256
EndSplineSet
EndChar

StartChar: uniA729
Encoding: 42793 42793 1636
GlifName: uniA_729
Width: 1704
VWidth: 0
GlyphClass: 2
Flags: HW
LayerCount: 2
Fore
SplineSet
671 115 m 257
 692 16 l 257
 642 0 585 -10 529 -10 c 256
 370 -10 243 64 243 247 c 258
 243 1315 l 257
 385 1315 l 257
 385 261 l 258
 385 152 449 103 559 103 c 256
 599 103 642 108 671 115 c 257
EndSplineSet
Refer: 1669 57354 N 1 0 0 1 -24 426 2
Refer: 560 658 N 1 0 0 1 611 0 2
EndChar

StartChar: uniA730
Encoding: 42800 42800 1637
GlifName: uniA_730
Width: 856
VWidth: 0
GlyphClass: 2
Flags: HW
LayerCount: 2
Fore
SplineSet
156 0 m 257
 156 1026 l 257
 779 1026 l 257
 779 908 l 257
 298 908 l 257
 298 549 l 257
 734 549 l 257
 734 448 l 257
 298 448 l 257
 298 0 l 257
 156 0 l 257
EndSplineSet
EndChar

StartChar: uniA731
Encoding: 42801 42801 1638
GlifName: uniA_731
Width: 897
VWidth: 0
GlyphClass: 2
Flags: HW
LayerCount: 2
Fore
SplineSet
83 296 m 257
 212 296 l 257
 212 159 321 103 459 103 c 256
 585 103 684 148 684 267 c 256
 684 385 602 412 433 464 c 256
 262 516 106 573 106 760 c 256
 106 931 248 1037 435 1037 c 256
 630 1037 795 924 795 737 c 257
 666 738 l 257
 666 861 567 923 442 923 c 256
 317 923 235 872 235 762 c 256
 235 656 318 619 478 573 c 256
 665 520 815 463 815 271 c 256
 815 87 655 -11 462 -11 c 256
 257 -11 83 92 83 296 c 257
EndSplineSet
EndChar

StartChar: uniA733
Encoding: 42803 42803 1640
GlifName: uniA_733
Width: 1733
VWidth: 0
GlyphClass: 2
Flags: HW
LayerCount: 2
Fore
SplineSet
517 1036 m 256
 751 1036 909 925 909 722 c 258
 909 275 l 257
 767 273 l 257
 767 722 l 258
 767 859 660 921 513 921 c 256
 366 921 257 860 257 722 c 257
 131 722 l 257
 126 928 284 1036 517 1036 c 256
1179 1036 m 256
 1413 1036 1582 925 1582 722 c 258
 1582 241 l 258
 1582 147 1611 97 1711 97 c 257
 1712 -0 l 257
 1546 -11 1439 60 1439 239 c 258
 1439 722 l 258
 1439 859 1322 921 1175 921 c 256
 1028 921 909 860 909 722 c 257
 783 722 l 257
 778 928 946 1036 1179 1036 c 256
EndSplineSet
Refer: 1670 57355 N 1 0 0 1 676 0 2
Refer: 1670 57355 N 1 0 0 1 -3 0 2
EndChar

StartChar: uniA735
Encoding: 42805 42805 1642
GlifName: uniA_735
Width: 1791
VWidth: 0
GlyphClass: 2
Flags: HW
LayerCount: 2
Fore
SplineSet
767 266 m 257
 767 722 l 258
 767 859 659 921 512 921 c 256
 365 921 257 860 257 722 c 257
 130 722 l 257
 125 928 284 1036 517 1036 c 256
 751 1036 909 925 909 722 c 258
 909 265 l 257
 767 266 l 257
104 268 m 256
 104 489 279 572 495 572 c 258
 898 572 l 257
 898 481 l 257
 502 482 l 258
 348 482 235 424 235 283 c 256
 235 172 292 100 443 100 c 256
 621 100 743 238 777 291 c 257
 830 275 l 257
 792 184 647 -13 398 -13 c 256
 216 -13 104 87 104 268 c 256
EndSplineSet
Refer: 324 111 N 1 0 0 1 683 0 2
EndChar

StartChar: uniA736
Encoding: 42806 42806 1643
GlifName: uniA_736
Width: 1899
VWidth: 0
GlyphClass: 2
Flags: HW
LayerCount: 2
Fore
SplineSet
1595 1377 m 257
 1739 1377 l 257
 1739 509 l 258
 1739 189 1540 0 1216 0 c 257
 1146 126 l 257
 1216 126 l 258
 1455 126 1595 269 1595 509 c 258
 1595 1377 l 257
EndSplineSet
Refer: 0 65 N 1 0 0 1 0 0 2
EndChar

StartChar: uniA737
Encoding: 42807 42807 1644
GlifName: uniA_737
Width: 1759
VWidth: 0
GlyphClass: 2
Flags: HW
LayerCount: 2
Fore
SplineSet
130 722 m 257
 125 928 284 1036 517 1036 c 256
 751 1036 909 925 909 722 c 258
 909 391 l 258
 909 237 991 127 1145 127 c 256
 1339 127 1435 292 1461 487 c 257
 1494 414 l 257
 1465 183 1334 -9 1089 -9 c 256
 882 -9 767 142 767 355 c 258
 767 722 l 258
 767 859 659 921 512 921 c 256
 365 921 257 860 257 722 c 257
 130 722 l 257
1461 1026 m 257
 1603 1026 l 257
 1603 0 l 257
 1466 0 l 257
 1461 295 l 257
 1461 1026 l 257
883 572 m 257
 883 481 l 257
 502 482 l 258
 348 482 235 424 235 283 c 256
 235 172 292 100 443 100 c 256
 621 100 743 238 777 291 c 257
 830 275 l 257
 792 184 647 -13 398 -13 c 256
 216 -13 104 87 104 268 c 256
 104 489 279 572 495 572 c 258
 883 572 l 257
EndSplineSet
EndChar

StartChar: uniA738
Encoding: 42808 42808 1645
GlifName: uniA_738
Width: 1768
VWidth: 0
GlyphClass: 2
Flags: HW
LayerCount: 2
Fore
SplineSet
347 503 m 257
 883 503 l 257
 616 1231 l 257
 347 503 l 257
307 387 m 257
 165 0 l 257
 14 0 l 257
 531 1375 l 257
 701 1375 l 257
 1153 143 l 257
 1603 1375 l 257
 1754 1375 l 257
 1238 0 l 257
 1064 0 l 257
 923 387 l 257
 307 387 l 257
EndSplineSet
EndChar

StartChar: uniA739
Encoding: 42809 42809 1646
GlifName: uniA_739
Width: 1630
VWidth: 0
GlyphClass: 2
Flags: HW
LayerCount: 2
Fore
SplineSet
130 722 m 257
 125 928 284 1036 517 1036 c 256
 706 1036 842 963 890 829 c 258
 1150 139 l 257
 1472 1026 l 257
 1621 1026 l 257
 1241 0 l 257
 1058 0 l 257
 756 792 l 258
 722 881 628 921 512 921 c 256
 365 921 257 860 257 722 c 257
 130 722 l 257
888 572 m 257
 888 481 l 257
 502 482 l 258
 348 482 235 424 235 283 c 256
 235 172 292 100 443 100 c 256
 621 100 743 238 777 291 c 257
 830 275 l 257
 792 184 647 -13 398 -13 c 256
 216 -13 104 87 104 268 c 256
 104 489 279 572 495 572 c 258
 888 572 l 257
EndSplineSet
EndChar

StartChar: uniA73A
Encoding: 42810 42810 1647
GlifName: uniA_73A_
Width: 1768
VWidth: 0
GlyphClass: 2
Flags: HW
LayerCount: 2
Fore
SplineSet
810 988 m 257
 1495 988 l 257
 1495 871 l 257
 810 871 l 257
 810 988 l 257
347 503 m 257
 883 503 l 257
 616 1231 l 257
 347 503 l 257
307 387 m 257
 165 0 l 257
 14 0 l 257
 531 1375 l 257
 701 1375 l 257
 1153 143 l 257
 1603 1375 l 257
 1754 1375 l 257
 1238 0 l 257
 1064 0 l 257
 923 387 l 257
 307 387 l 257
EndSplineSet
EndChar

StartChar: uniA73B
Encoding: 42811 42811 1648
GlifName: uniA_73B_
Width: 1630
VWidth: 0
GlyphClass: 2
Flags: HW
LayerCount: 2
Fore
SplineSet
892 763 m 257
 1392 763 l 257
 1392 672 l 257
 909 672 l 257
 892 763 l 257
130 722 m 257
 125 928 284 1036 517 1036 c 256
 706 1036 842 963 890 829 c 258
 1150 139 l 257
 1472 1026 l 257
 1621 1026 l 257
 1241 0 l 257
 1058 0 l 257
 756 792 l 258
 722 881 628 921 512 921 c 256
 365 921 257 860 257 722 c 257
 130 722 l 257
888 572 m 257
 888 481 l 257
 502 482 l 258
 348 482 235 424 235 283 c 256
 235 172 292 100 443 100 c 256
 621 100 743 238 777 291 c 257
 830 275 l 257
 792 184 647 -13 398 -13 c 256
 216 -13 104 87 104 268 c 256
 104 489 279 572 495 572 c 258
 888 572 l 257
EndSplineSet
EndChar

StartChar: uniA73C
Encoding: 42812 42812 1649
GlifName: uniA_73C_
Width: 1730
VWidth: 0
GlyphClass: 2
Flags: HW
LayerCount: 2
Fore
SplineSet
623 1255 m 257
 347 503 l 257
 1066 503 l 257
 1066 593 l 257
 623 1255 l 257
531 1375 m 257
 709 1375 l 257
 1139 722 l 257
 1569 1375 l 257
 1732 1375 l 257
 1209 593 l 257
 1209 0 l 257
 1066 0 l 257
 1066 387 l 257
 307 387 l 257
 165 0 l 257
 14 0 l 257
 531 1375 l 257
EndSplineSet
EndChar

StartChar: uniA73D
Encoding: 42813 42813 1650
GlifName: uniA_73D_
Width: 1630
VWidth: 0
GlyphClass: 2
Flags: HW
LayerCount: 2
Fore
SplineSet
130 722 m 257
 125 928 284 1036 517 1036 c 256
 706 1036 842 963 890 829 c 258
 1150 139 l 257
 1472 1026 l 257
 1621 1026 l 257
 1065 -473 l 257
 895 -473 l 257
 1079 -33 l 257
 756 792 l 258
 722 881 628 921 512 921 c 256
 365 921 257 860 257 722 c 257
 130 722 l 257
888 572 m 257
 888 481 l 257
 502 482 l 258
 348 482 235 424 235 283 c 256
 235 172 292 100 443 100 c 256
 621 100 743 238 777 291 c 257
 830 275 l 257
 792 184 647 -13 398 -13 c 256
 216 -13 104 87 104 268 c 256
 104 489 279 572 495 572 c 258
 888 572 l 257
EndSplineSet
EndChar

StartChar: uniA760
Encoding: 42848 42848 1653
GlifName: uniA_760
Width: 2250
VWidth: 0
GlyphClass: 2
Flags: HW
LayerCount: 2
Fore
SplineSet
2089 1375 m 257
 2252 1375 l 257
 1729 593 l 257
 1729 0 l 257
 1587 0 l 257
 1587 593 l 257
 1162 1227 l 257
 699 0 l 257
 529 0 l 257
 14 1375 l 257
 165 1375 l 257
 614 143 l 257
 1064 1375 l 257
 1229 1375 l 257
 1659 722 l 257
 2089 1375 l 257
EndSplineSet
EndChar

StartChar: uniA761
Encoding: 42849 42849 1654
GlifName: uniA_761
Width: 1775
VWidth: 0
GlyphClass: 2
Flags: HW
LayerCount: 2
Fore
SplineSet
965 1026 m 257
 1295 139 l 257
 1617 1026 l 257
 1766 1026 l 257
 1209 -473 l 257
 1040 -473 l 257
 1223 -33 l 257
 890 825 l 257
 582 0 l 257
 399 0 l 257
 9 1026 l 257
 160 1026 l 257
 491 139 l 257
 813 1026 l 257
 965 1026 l 257
EndSplineSet
EndChar

StartChar: uniAB50
Encoding: 43856 43856 1657
GlifName: uniA_B_50
Width: 1834
VWidth: 0
GlyphClass: 2
Flags: HW
LayerCount: 2
Fore
SplineSet
842 525 m 257
 985 525 l 257
 985 391 l 258
 985 237 1066 127 1220 127 c 256
 1414 127 1511 292 1537 487 c 257
 1569 414 l 257
 1540 183 1409 -9 1164 -9 c 256
 957 -9 842 142 842 355 c 258
 842 525 l 257
1537 1026 m 257
 1678 1026 l 257
 1678 0 l 257
 1541 0 l 257
 1537 295 l 257
 1537 1026 l 257
EndSplineSet
Refer: 1672 57357 N -1 0 0 -1 1135 1027 2
Refer: 357 46 N 1 0 0 1 621 823 2
EndChar

StartChar: uniAB5B
Encoding: 43867 43867 1658
GlifName: uniA_B_5B_
Width: 877
VWidth: 0
GlyphClass: 2
Flags: HW
LayerCount: 2
Fore
SplineSet
439 1448 m 256
 632 1448 749 1325 749 1132 c 257
 672 1132 l 257
 672 1284 590 1371 439 1371 c 256
 288 1371 205 1284 205 1132 c 257
 127 1132 l 257
 127 1325 246 1448 439 1448 c 256
EndSplineSet
EndChar

StartChar: uniE000
Encoding: 57344 57344 1659
GlifName: uniE_000
Width: 127
VWidth: 0
GlyphClass: 2
Flags: HW
LayerCount: 2
Fore
SplineSet
0 143 m 258
 129 143 l 257
 129 0 l 257
 0 0 l 258
 -39 0 -71 32 -71 71 c 256
 -71 110 -39 143 0 143 c 258
EndSplineSet
EndChar

StartChar: uniE001
Encoding: 57345 57345 1660
GlifName: uniE_001
Width: 347
VWidth: 0
GlyphClass: 2
Flags: HW
LayerCount: 2
Fore
SplineSet
0 143 m 258
 349 143 l 257
 349 0 l 257
 0 0 l 258
 -39 0 -71 32 -71 71 c 256
 -71 110 -39 143 0 143 c 258
EndSplineSet
EndChar

StartChar: uniE002
Encoding: 57346 57346 1661
GlifName: uniE_002
Width: 488
VWidth: 0
GlyphClass: 2
Flags: HW
LayerCount: 2
Fore
SplineSet
0 143 m 258
 491 143 l 257
 491 0 l 257
 0 0 l 258
 -39 0 -71 32 -71 71 c 256
 -71 110 -39 143 0 143 c 258
EndSplineSet
EndChar

StartChar: uniE003
Encoding: 57347 57347 1662
GlifName: uniE_003
Width: 1939
VWidth: 0
GlyphClass: 2
Flags: HW
LayerCount: 2
Fore
SplineSet
1312 1396 m 257
 1387 1322 l 257
 201 -51 l 257
 125 22 l 257
 1312 1396 l 257
EndSplineSet
EndChar

StartChar: uniE004
Encoding: 57348 57348 1663
GlifName: uniE_004
Width: 1094
VWidth: 0
GlyphClass: 2
Flags: HW
LayerCount: 2
Fore
SplineSet
153 -59 m 257
 73 1 l 257
 901 1077 l 257
 981 1018 l 257
 153 -59 l 257
EndSplineSet
EndChar

StartChar: uniE005
Encoding: 57349 57349 1664
GlifName: uniE_005
Width: 1522
VWidth: 0
GlyphClass: 2
Flags: HW
LayerCount: 2
Fore
SplineSet
1241 -164 m 257
 1094 -164 l 257
 804 352 l 257
 901 408 l 257
 1241 -164 l 257
EndSplineSet
EndChar

StartChar: uniE006
Encoding: 57350 57350 1665
GlifName: uniE_006
Width: 1191
VWidth: 0
GlyphClass: 2
Flags: HW
LayerCount: 2
Fore
SplineSet
220 153 m 257
 220 253 l 257
 972 253 l 257
 972 153 l 257
 220 153 l 257
220 433 m 257
 220 534 l 257
 972 534 l 257
 972 433 l 257
 220 433 l 257
EndSplineSet
EndChar

StartChar: uniE007
Encoding: 57351 57351 1666
GlifName: uniE_007
Width: 958
VWidth: 0
GlyphClass: 2
Flags: HW
LayerCount: 2
Fore
SplineSet
355 1196 m 256
 317 1196 278 1199 243 1206 c 257
 261 1283 l 257
 290 1277 331 1273 369 1273 c 256
 452 1273 553 1295 553 1371 c 256
 553 1409 503 1424 452 1436 c 256
 376 1453 298 1477 298 1577 c 256
 298 1695 386 1776 502 1776 c 256
 542 1776 580 1766 615 1751 c 257
 588 1685 l 257
 564 1695 537 1703 506 1703 c 256
 433 1703 369 1662 369 1587 c 256
 369 1533 420 1521 480 1507 c 256
 555 1490 624 1467 624 1376 c 256
 624 1249 491 1196 355 1196 c 256
EndSplineSet
EndChar

StartChar: uniE008
Encoding: 57352 57352 1667
GlifName: uniE_008
Width: 1422
VWidth: 0
GlyphClass: 2
Flags: HW
LayerCount: 2
Fore
SplineSet
590 1241 m 256
 590 1328 524 1406 432 1406 c 256
 340 1406 274 1329 274 1241 c 256
 274 1152 342 1078 432 1078 c 256
 522 1078 590 1152 590 1241 c 256
693 1241 m 256
 693 1098 585 974 432 974 c 256
 279 974 167 1098 167 1241 c 256
 167 1381 275 1513 432 1513 c 256
 589 1513 693 1381 693 1241 c 256
EndSplineSet
EndChar

StartChar: uniE009
Encoding: 57353 57353 1668
GlifName: uniE_009
Width: 1260
VWidth: 0
GlyphClass: 2
Flags: HW
LayerCount: 2
Fore
SplineSet
592 1587 m 257
 676 1587 l 257
 676 -221 l 257
 592 -221 l 257
 592 1587 l 257
EndSplineSet
EndChar

StartChar: uniE00A
Encoding: 57354 57354 1669
GlifName: uniE_00A_
Width: 1336
VWidth: 0
GlyphClass: 2
Flags: HW
LayerCount: 2
Fore
SplineSet
105 502 m 257
 105 604 l 257
 692 604 l 257
 692 502 l 257
 105 502 l 257
EndSplineSet
EndChar

StartChar: uniE00B
Encoding: 57355 57355 1670
GlifName: uniE_00B_
Width: 1218
VWidth: 0
GlyphClass: 2
Flags: HW
LayerCount: 2
Fore
SplineSet
841 273 m 257
 797 164 678 -11 409 -11 c 256
 218 -11 107 91 107 265 c 256
 107 486 276 598 514 598 c 256
 633 598 735 585 833 557 c 257
 789 472 l 257
 711 493 635 500 530 500 c 256
 347 500 238 420 238 283 c 256
 238 169 300 102 452 102 c 256
 649 102 750 243 785 294 c 257
 841 273 l 257
EndSplineSet
EndChar

StartChar: uniE00C
Encoding: 57356 57356 1671
GlifName: uniE_00C_
Width: 1705
VWidth: 0
GlyphClass: 2
Flags: HW
LayerCount: 2
Fore
SplineSet
1569 668 m 258
 1569 0 l 257
 1426 0 l 257
 1426 650 l 258
 1426 803 1356 900 1228 900 c 256
 1043 900 952 742 922 539 c 257
 888 613 l 257
 915 850 1041 1036 1265 1036 c 256
 1450 1036 1569 887 1569 668 c 258
EndSplineSet
EndChar

StartChar: uniE00D
Encoding: 57357 57357 1672
GlifName: uniE_00D_
Width: 1180
VWidth: 0
GlyphClass: 2
Flags: HW
LayerCount: 2
Fore
SplineSet
987 664 m 258
 987 0 l 257
 845 0 l 257
 845 646 l 258
 845 806 759 900 615 900 c 256
 445 900 329 771 293 539 c 257
 260 613 l 257
 293 876 445 1036 651 1036 c 256
 857 1036 987 891 987 664 c 258
EndSplineSet
EndChar

StartChar: uniE00E
Encoding: 57358 57358 1673
GlifName: uniE_00E_
Width: 841
VWidth: 0
GlyphClass: 2
Flags: HW
LayerCount: 2
Fore
SplineSet
758 898 m 257
 742 904 712 909 679 909 c 256
 447 909 329 697 303 461 c 257
 255 498 l 257
 284 767 406 1036 695 1036 c 256
 722 1036 747 1032 770 1027 c 257
 758 898 l 257
EndSplineSet
EndChar

StartChar: uniE00F
Encoding: 57359 57359 1674
GlifName: uniE_00F_
Width: 1267
VWidth: 0
GlyphClass: 2
Flags: HW
LayerCount: 2
Fore
SplineSet
1032 513 m 256
 1032 204 876 -11 633 -11 c 256
 485 -11 353 69 259 215 c 257
 309 263 l 257
 380 160 489 106 593 106 c 256
 766 106 889 257 889 513 c 256
 889 770 766 919 593 919 c 256
 489 919 380 866 309 763 c 257
 259 811 l 257
 353 957 485 1035 633 1035 c 256
 876 1035 1032 823 1032 513 c 256
EndSplineSet
EndChar

StartChar: uniE010
Encoding: 57360 57360 1675
GlifName: uniE_010
Width: 1608
VWidth: 0
GlyphClass: 2
Flags: HW
LayerCount: 2
Fore
SplineSet
1259 -191 m 257
 1103 -191 l 257
 967 76 l 257
 1057 129 l 257
 1259 -191 l 257
EndSplineSet
EndChar

StartChar: uniE011
Encoding: 57361 57361 1676
GlifName: uniE_011
Width: 1058
VWidth: 0
GlyphClass: 2
Flags: HW
LayerCount: 2
Fore
SplineSet
479 1389 m 257
 621 1389 l 257
 621 951 l 257
 479 951 l 257
 479 1389 l 257
479 51 m 257
 621 51 l 257
 621 -441 l 257
 479 -441 l 257
 479 51 l 257
EndSplineSet
EndChar

StartChar: uniE012
Encoding: 57362 57362 1677
GlifName: uniE_012
Width: 1562
VWidth: 0
GlyphClass: 2
Flags: HW
LayerCount: 2
Fore
SplineSet
1151 1187 m 257
 1337 1396 l 257
 1412 1322 l 257
 1195 1085 l 257
 1151 1187 l 257
408 158 m 257
 226 -51 l 257
 149 22 l 257
 357 256 l 257
 408 158 l 257
EndSplineSet
EndChar

StartChar: uniE013
Encoding: 57363 57363 1678
GlifName: uniE_013
Width: 1057
VWidth: 0
GlyphClass: 2
Flags: HW
LayerCount: 2
Fore
SplineSet
796 905 m 257
 928 1077 l 257
 1008 1018 l 257
 863 829 l 257
 796 905 l 257
315 115 m 257
 180 -59 l 257
 100 1 l 257
 251 196 l 257
 315 115 l 257
EndSplineSet
EndChar

StartChar: uniE014
Encoding: 57364 57364 1679
GlifName: uniE_014
Width: 1191
VWidth: 0
GlyphClass: 2
Flags: HW
LayerCount: 2
Fore
SplineSet
220 293 m 257
 220 393 l 257
 972 393 l 257
 972 293 l 257
 220 293 l 257
EndSplineSet
EndChar

StartChar: uniE015
Encoding: 57365 57365 1680
GlifName: uniE_015
Width: 1454
VWidth: 0
GlyphClass: 2
Flags: HW
LayerCount: 2
Fore
SplineSet
1388 1041 m 257
 1388 969 l 257
 66 969 l 257
 66 1041 l 257
 1388 1041 l 257
EndSplineSet
EndChar

StartChar: uniE016
Encoding: 57366 57366 1681
GlifName: uniE_016
Width: 412
VWidth: 0
GlyphClass: 2
Flags: HW
LayerCount: 2
Fore
SplineSet
86 922 m 257
 86 1010 l 257
 326 1010 l 257
 326 922 l 257
 86 922 l 257
EndSplineSet
EndChar

StartChar: uniE017
Encoding: 57367 57367 1682
GlifName: uniE_017
Width: 578
VWidth: 0
GlyphClass: 2
Flags: HW
LayerCount: 2
Fore
SplineSet
522 913 m 257
 559 840 l 257
 56 585 l 257
 19 659 l 257
 522 913 l 257
EndSplineSet
EndChar

StartChar: uniE018
Encoding: 57368 57368 1683
GlifName: uniE_018
Width: 1142
VWidth: 0
GlyphClass: 2
Flags: HW
LayerCount: 2
Fore
SplineSet
258 62 m 257
 156 62 l 257
 885 1133 l 257
 987 1133 l 257
 258 62 l 257
EndSplineSet
EndChar

StartChar: uniE019
Encoding: 57369 57369 1684
GlifName: uniE_019
Width: 1460
VWidth: 0
GlyphClass: 2
Flags: HW
LayerCount: 2
Fore
SplineSet
536 -39 m 257
 644 68 l 257
 751 -39 l 257
 644 -146 l 257
 536 -39 l 257
846 -40 m 257
 953 68 l 257
 1060 -40 l 257
 953 -147 l 257
 846 -40 l 257
694 -279 m 257
 798 -175 l 257
 902 -279 l 257
 798 -383 l 257
 694 -279 l 257
EndSplineSet
EndChar

StartChar: uniE01A
Encoding: 57370 57370 1685
GlifName: uniE_01A_
Width: 1143
VWidth: 0
GlyphClass: 2
Flags: HW
LayerCount: 2
Fore
SplineSet
268 221 m 257
 219 300 l 257
 881 1159 l 257
 920 1068 l 257
 268 221 l 257
EndSplineSet
EndChar

StartChar: uniE020
Encoding: 57376 57376 1686
GlifName: uniE_020
Width: 904
VWidth: 0
GlyphClass: 2
Flags: HW
LayerCount: 2
Fore
SplineSet
146 420 m 256
 146 617 298 745 461 745 c 256
 556 745 639 710 716 637 c 257
 664 572 l 257
 604 625 540 651 466 651 c 256
 346 651 241 558 241 423 c 256
 241 300 342 229 491 229 c 256
 571 229 651 246 763 285 c 257
 795 198 l 257
 136 -11 l 257
 110 79 l 257
 407 172 l 257
 256 183 146 279 146 420 c 256
EndSplineSet
EndChar

StartChar: uniE021
Encoding: 57377 57377 1687
GlifName: uniE_021
Width: 510
VWidth: 0
GlyphClass: 2
Flags: HW
LayerCount: 2
Fore
SplineSet
570 1771 m 257
 641 1735 l 257
 580 1608 508 1559 412 1559 c 256
 348 1559 285 1584 231 1610 c 256
 185 1632 141 1651 100 1651 c 256
 26 1651 -20 1579 -63 1513 c 257
 -129 1553 l 257
 -56 1687 27 1742 106 1742 c 256
 158 1742 212 1720 265 1696 c 256
 318 1673 370 1650 421 1650 c 256
 479 1650 525 1680 570 1771 c 257
327 1350 m 257
 327 0 l 257
 184 0 l 257
 184 1350 l 257
 327 1350 l 257
EndSplineSet
EndChar

StartChar: uniE022
Encoding: 57378 57378 1688
GlifName: uniE_022
Width: 510
VWidth: 0
GlyphClass: 2
Flags: HW
LayerCount: 2
Fore
SplineSet
327 0 m 257
 184 0 l 257
 184 1350 l 257
 327 1350 l 257
 327 0 l 257
EndSplineSet
EndChar

StartChar: uniE023
Encoding: 57379 57379 1689
GlifName: uniE_023
Width: 1364
VWidth: 0
GlyphClass: 2
Flags: HW
LayerCount: 2
Fore
SplineSet
476 818 m 256
 562 818 650 781 780 722 c 256
 916 660 1048 603 1201 575 c 257
 1199 411 l 257
 749 301 251 80 251 -282 c 256
 251 -512 484 -619 760 -619 c 256
 921 -619 1083 -583 1206 -534 c 257
 1260 -669 l 257
 1117 -731 942 -773 763 -773 c 256
 399 -773 110 -609 110 -294 c 256
 110 103 535 349 1012 494 c 257
 891 516 790 563 702 605 c 256
 612 647 545 677 485 677 c 256
 366 677 313 589 287 469 c 258
 281 439 l 257
 161 462 l 257
 168 496 l 258
 206 691 299 818 476 818 c 256
EndSplineSet
EndChar

StartChar: uniE024
Encoding: 57380 57380 1690
GlifName: uniE_024
Width: 1009
VWidth: 0
GlyphClass: 2
Flags: HW
LayerCount: 2
Fore
SplineSet
900 362 m 256
 900 83 632 -9 385 -9 c 256
 289 -9 192 4 100 29 c 257
 132 165 l 257
 211 144 297 133 383 133 c 256
 606 133 759 206 759 368 c 256
 759 506 646 673 418 878 c 257
 512 989 l 257
 753 774 900 569 900 362 c 256
EndSplineSet
EndChar

StartChar: uniE025
Encoding: 57381 57381 1691
GlifName: uniE_025
Width: 752
VWidth: 0
GlyphClass: 2
Flags: HW
LayerCount: 2
Fore
SplineSet
397 579 m 257
 534 623 l 257
 601 392 633 234 633 96 c 256
 633 -221 462 -419 43 -580 c 257
 -16 -450 l 257
 350 -310 490 -161 490 93 c 256
 490 215 460 366 397 579 c 257
EndSplineSet
EndChar

StartChar: uniE026
Encoding: 57382 57382 1692
GlifName: uniE_026
Width: 2516
VWidth: 0
GlyphClass: 2
Flags: HW
LayerCount: 2
Fore
SplineSet
1562 0 m 256
 1448 0 1386 48 1343 126 c 257
 1375 -304 1173 -513 740 -513 c 256
 304 -513 110 -315 110 64 c 256
 110 224 144 420 187 561 c 257
 316 523 l 257
 282 402 249 229 249 84 c 256
 249 -239 404 -369 736 -369 c 256
 1090 -369 1217 -225 1217 42 c 256
 1217 182 1176 372 1127 545 c 257
 1267 595 l 257
 1315 411 l 257
 1353 242 1410 143 1561 143 c 256
 1683 143 1746 213 1761 379 c 258
 1777 566 l 257
 1908 555 l 257
 1895 386 l 258
 1882 218 1953 143 2088 143 c 256
 2209 143 2269 216 2269 361 c 256
 2269 426 2256 537 2239 626 c 257
 2379 660 l 257
 2398 570 2411 448 2411 362 c 256
 2411 121 2307 0 2105 0 c 256
 1954 0 1858 69 1827 191 c 257
 1794 66 1693 0 1562 0 c 256
EndSplineSet
EndChar

StartChar: uniE027
Encoding: 57383 57383 1693
GlifName: uniE_027
Width: 2441
VWidth: 0
GlyphClass: 2
Flags: HW
LayerCount: 2
Fore
SplineSet
1961 598 m 256
 1832 598 1664 503 1449 184 c 257
 1524 153 1623 143 1735 143 c 256
 1956 143 2178 184 2178 389 c 256
 2178 511 2095 598 1961 598 c 256
1980 740 m 256
 2201 740 2331 585 2331 388 c 256
 2331 85 2053 0 1724 0 c 256
 1572 0 1448 19 1354 58 c 257
 1353 -330 1151 -508 738 -508 c 256
 304 -508 110 -311 110 63 c 256
 110 228 144 424 187 565 c 257
 316 528 l 257
 282 407 249 233 249 74 c 256
 249 -234 404 -365 737 -365 c 256
 1090 -365 1217 -220 1217 49 c 256
 1217 187 1180 356 1127 542 c 257
 1267 599 l 257
 1297 494 1324 363 1339 238 c 257
 1578 594 1784 740 1980 740 c 256
EndSplineSet
EndChar

StartChar: uniE028
Encoding: 57384 57384 1694
GlifName: uniE_028
Width: 1605
VWidth: 0
GlyphClass: 2
Flags: HW
LayerCount: 2
Fore
SplineSet
581 143 m 257
 902 143 l 258
 1128 143 1343 179 1343 385 c 256
 1343 510 1261 598 1126 598 c 256
 993 598 811 502 581 143 c 257
415 143 m 257
 436 176 454 205 474 235 c 257
 474 1350 l 257
 616 1350 l 257
 616 634 l 258
 616 540 613 459 601 371 c 257
 780 614 966 740 1146 740 c 256
 1367 740 1496 584 1496 388 c 256
 1496 183 1379 0 878 0 c 258
 110 0 l 257
 110 143 l 257
 415 143 l 257
EndSplineSet
EndChar

StartChar: uniE029
Encoding: 57385 57385 1695
GlifName: uniE_029
Width: 1392
VWidth: 0
GlyphClass: 2
Flags: HW
LayerCount: 2
Fore
SplineSet
1003 1035 m 257
 915 929 l 257
 857 993 774 1050 651 1050 c 256
 497 1050 341 928 341 737 c 256
 341 552 508 480 767 480 c 256
 860 480 986 495 1063 505 c 257
 1072 362 l 257
 652 335 252 147 252 -226 c 256
 252 -485 511 -591 803 -591 c 256
 955 -591 1117 -561 1233 -512 c 257
 1283 -648 l 257
 1148 -706 970 -739 797 -739 c 256
 424 -739 110 -585 110 -233 c 256
 110 29 298 266 582 375 c 257
 365 398 198 512 198 723 c 256
 198 996 413 1191 647 1191 c 256
 802 1191 923 1121 1003 1035 c 257
EndSplineSet
EndChar

StartChar: uniE02A
Encoding: 57386 57386 1696
GlifName: uniE_02A_
Width: 892
VWidth: 0
GlyphClass: 2
Flags: HW
LayerCount: 2
Fore
SplineSet
0 143 m 258
 892 143 l 257
 892 0 l 257
 0 0 l 258
 -21 0 -27 19 -27 71 c 256
 -27 123 -21 143 0 143 c 258
EndSplineSet
EndChar

StartChar: uniE02B
Encoding: 57387 57387 1697
GlifName: uniE_02B_
Width: 1658
VWidth: 0
GlyphClass: 2
Flags: HW
LayerCount: 2
Fore
SplineSet
795 143 m 256
 1206 143 1349 219 1349 558 c 258
 1349 1347 l 257
 1491 1347 l 257
 1491 558 l 258
 1491 137 1277 0 777 0 c 256
 297 0 110 114 110 403 c 256
 110 480 123 583 145 673 c 257
 273 644 l 257
 254 561 241 467 241 405 c 256
 241 207 378 143 795 143 c 256
EndSplineSet
EndChar

StartChar: uniE02C
Encoding: 57388 57388 1698
GlifName: uniE_02C_
Width: 1377
VWidth: 0
GlyphClass: 2
Flags: HW
LayerCount: 2
Fore
SplineSet
651 -409 m 256
 936 -409 1067 -264 1067 39 c 258
 1067 1350 l 257
 1210 1350 l 257
 1210 39 l 258
 1210 -358 1006 -551 635 -551 c 256
 297 -551 110 -367 110 -69 c 256
 110 63 140 214 201 369 c 257
 328 321 l 257
 277 185 249 50 249 -55 c 256
 249 -282 384 -409 651 -409 c 256
EndSplineSet
EndChar

StartChar: uniE02D
Encoding: 57389 57389 1699
GlifName: uniE_02D_
Width: 1278
VWidth: 0
GlyphClass: 2
Flags: HW
LayerCount: 2
Fore
SplineSet
809 608 m 256
 631 608 570 374 535 205 c 257
 566 198 608 188 640 179 c 256
 736 152 819 132 890 132 c 256
 991 132 1030 193 1030 311 c 256
 1030 461 969 608 809 608 c 256
812 748 m 256
 1048 748 1161 549 1161 299 c 256
 1161 106 1070 -11 899 -11 c 256
 810 -11 704 12 588 43 c 256
 499 67 428 83 377 83 c 256
 288 83 253 34 253 -79 c 258
 253 -773 l 257
 110 -773 l 257
 110 -67 l 258
 110 134 211 256 405 230 c 257
 452 483 563 748 812 748 c 256
EndSplineSet
EndChar

StartChar: uniE02E
Encoding: 57390 57390 1700
GlifName: uniE_02E_
Width: 893
VWidth: 0
GlyphClass: 2
Flags: HW
LayerCount: 2
Fore
SplineSet
445 133 m 256
 578 133 644 206 644 319 c 256
 644 441 566 583 445 695 c 257
 325 584 244 441 244 319 c 256
 244 206 312 133 445 133 c 256
445 -11 m 256
 238 -11 110 121 110 298 c 256
 110 475 218 646 361 783 c 257
 327 816 295 844 259 875 c 257
 346 979 l 257
 608 763 784 538 784 307 c 256
 784 124 648 -11 445 -11 c 256
EndSplineSet
EndChar

StartChar: uniE02F
Encoding: 57391 57391 1701
GlifName: uniE_02F_
Width: 982
VWidth: 0
GlyphClass: 2
Flags: HW
LayerCount: 2
Fore
SplineSet
723 19 m 257
 655 4 576 -10 485 -10 c 256
 281 -10 151 82 151 291 c 256
 151 512 260 755 493 755 c 256
 790 755 873 379 873 66 c 256
 873 -250 614 -453 164 -575 c 257
 110 -443 l 257
 490 -344 702 -190 723 19 c 257
736 165 m 257
 723 365 664 617 491 617 c 256
 346 617 281 451 281 300 c 256
 281 173 361 134 499 134 c 256
 590 134 671 149 736 165 c 257
EndSplineSet
EndChar

StartChar: uniE030
Encoding: 57392 57392 1702
GlifName: uniE_030
Width: 0
VWidth: 0
GlyphClass: 2
Flags: H
LayerCount: 2
Fore
SplineSet
80 1562 m 256
 26 1562 -30 1509 -30 1450 c 256
 -30 1382 51 1351 107 1339 c 257
 139 1377 153 1416 153 1460 c 256
 153 1514 131 1562 80 1562 c 256
86 1634 m 256
 171 1634 227 1562 227 1464 c 256
 227 1277 29 1169 -188 1105 c 257
 -210 1176 -261 1259 -340 1315 c 257
 -296 1380 l 257
 -228 1336 -179 1272 -143 1197 c 257
 -75 1221 0 1255 52 1289 c 257
 -14 1309 -101 1353 -101 1447 c 256
 -101 1535 -17 1634 86 1634 c 256
EndSplineSet
EndChar

StartChar: uniE031
Encoding: 57393 57393 1703
GlifName: uniE_031
Width: 0
VWidth: 0
GlyphClass: 2
Flags: H
LayerCount: 2
Fore
SplineSet
217 1332 m 257
 239 1264 l 257
 -217 1119 l 257
 -239 1190 l 257
 217 1332 l 257
EndSplineSet
EndChar

StartChar: uniE032
Encoding: 57394 57394 1704
GlifName: uniE_032
Width: 0
VWidth: 0
GlyphClass: 2
Flags: H
LayerCount: 2
Fore
SplineSet
80 1562 m 256
 26 1562 -30 1509 -30 1450 c 256
 -30 1382 51 1351 107 1339 c 257
 139 1377 153 1416 153 1460 c 256
 153 1514 131 1562 80 1562 c 256
86 1634 m 256
 171 1634 227 1562 227 1464 c 256
 227 1273 20 1165 -205 1101 c 257
 -226 1169 l 257
 -134 1194 -11 1247 52 1289 c 257
 -15 1310 -101 1355 -101 1447 c 256
 -101 1537 -16 1634 86 1634 c 256
EndSplineSet
EndChar

StartChar: uniE033
Encoding: 57395 57395 1705
GlifName: uniE_033
Width: 0
VWidth: 0
GlyphClass: 2
Flags: H
LayerCount: 2
Fore
SplineSet
208 1280 m 256
 208 1314 200 1361 186 1413 c 257
 254 1431 l 257
 268 1376 279 1325 279 1271 c 256
 279 1174 228 1118 136 1118 c 256
 70 1118 11 1163 0 1229 c 257
 -11 1163 -70 1118 -136 1118 c 256
 -228 1118 -279 1174 -279 1271 c 256
 -279 1325 -268 1376 -254 1431 c 257
 -186 1413 l 257
 -200 1361 -208 1314 -208 1280 c 256
 -208 1221 -183 1192 -125 1192 c 256
 -60 1192 -33 1244 -33 1359 c 258
 -33 1377 l 257
 33 1377 l 257
 33 1359 l 258
 33 1244 60 1192 125 1192 c 256
 183 1192 208 1221 208 1280 c 256
EndSplineSet
EndChar

StartChar: uniE034
Encoding: 57396 57396 1706
GlifName: uniE_034
Width: 0
VWidth: 0
GlyphClass: 2
Flags: H
LayerCount: 2
Fore
SplineSet
0 1375 m 256
 -64 1375 -99 1339 -99 1278 c 256
 -99 1217 -64 1178 0 1178 c 256
 62 1178 99 1219 99 1278 c 256
 99 1337 64 1375 0 1375 c 256
0 1446 m 256
 102 1446 169 1378 169 1278 c 256
 169 1178 103 1108 0 1108 c 256
 -103 1108 -169 1179 -169 1278 c 256
 -169 1377 -103 1446 0 1446 c 256
EndSplineSet
EndChar

StartChar: uniE035
Encoding: 57397 57397 1707
GlifName: uniE_035
Width: 0
VWidth: 0
GlyphClass: 2
Flags: H
LayerCount: 2
Fore
SplineSet
-267 1143 m 257
 -239 1197 -180 1264 -97 1264 c 256
 -56 1264 -20 1247 16 1222 c 256
 48 1200 71 1190 95 1190 c 256
 143 1190 173 1220 200 1270 c 257
 267 1240 l 257
 236 1177 184 1119 99 1119 c 256
 60 1119 31 1132 -12 1160 c 256
 -41 1179 -66 1190 -90 1190 c 256
 -138 1190 -182 1152 -202 1111 c 257
 -267 1143 l 257
EndSplineSet
EndChar

StartChar: uniE036
Encoding: 57398 57398 1708
GlifName: uniE_036
Width: 0
VWidth: 0
GlyphClass: 2
Flags: H
LayerCount: 2
Fore
SplineSet
150 1557 m 257
 127 1492 l 257
 102 1503 68 1509 41 1509 c 256
 -30 1509 -88 1465 -88 1390 c 256
 -88 1326 -42 1280 25 1280 c 256
 43 1280 63 1284 83 1290 c 258
 217 1332 l 257
 238 1264 l 257
 -217 1119 l 257
 -238 1190 l 257
 -64 1244 l 257
 -120 1270 -155 1326 -155 1392 c 256
 -155 1505 -62 1581 47 1581 c 256
 81 1581 115 1573 150 1557 c 257
EndSplineSet
EndChar

StartChar: uniE037
Encoding: 57399 57399 1709
GlifName: uniE_037
Width: 0
VWidth: 0
GlyphClass: 2
Flags: H
LayerCount: 2
Fore
SplineSet
29 1119 m 257
 -29 1119 l 257
 -242 1385 l 257
 -185 1432 l 257
 0 1197 l 257
 185 1432 l 257
 242 1385 l 257
 29 1119 l 257
EndSplineSet
EndChar

StartChar: uniE038
Encoding: 57400 57400 1710
GlifName: uniE_038
Width: 1767
VWidth: 0
GlyphClass: 2
Flags: HW
LayerCount: 2
Fore
SplineSet
1607 761 m 257
 1638 652 1657 550 1657 456 c 256
 1657 115 1440 0 883 0 c 256
 326 0 110 115 110 456 c 256
 110 550 128 652 159 761 c 257
 289 729 l 257
 262 631 247 543 247 466 c 256
 247 224 400 143 883 143 c 256
 1366 143 1519 224 1519 466 c 256
 1519 543 1505 631 1478 729 c 257
 1607 761 l 257
EndSplineSet
EndChar

StartChar: uniE039
Encoding: 57401 57401 1711
GlifName: uniE_039
Width: 1524
VWidth: 0
GlyphClass: 2
Flags: HW
LayerCount: 2
Fore
SplineSet
1276 160 m 257
 1263 360 1206 612 1033 612 c 256
 888 612 822 447 822 296 c 256
 822 169 901 130 1039 130 c 256
 1130 130 1211 144 1276 160 c 257
1035 755 m 256
 1315 755 1414 406 1414 89 c 257
 1414 -322 1206 -555 753 -555 c 256
 340 -555 110 -348 110 22 c 256
 110 143 132 282 177 434 c 257
 309 384 l 257
 273 247 251 124 251 23 c 256
 251 -272 428 -410 766 -410 c 256
 1095 -410 1265 -258 1272 25 c 257
 1205 5 1117 -10 1026 -10 c 256
 823 -10 693 81 693 290 c 256
 693 511 802 755 1035 755 c 256
EndSplineSet
EndChar

StartChar: uniE03A
Encoding: 57402 57402 1712
GlifName: uniE_03A_
Width: 0
VWidth: 0
GlyphClass: 2
Flags: H
LayerCount: 2
Fore
SplineSet
-40 1442 m 257
 40 1442 l 257
 40 1096 l 257
 -40 1096 l 257
 -40 1442 l 257
EndSplineSet
EndChar

StartChar: uniE03B
Encoding: 57403 57403 1713
GlifName: uniE_03B_
Width: 1798
VWidth: 0
GlyphClass: 2
Flags: HW
LayerCount: 2
Fore
SplineSet
1557 436 m 257
 1480 416 1393 401 1293 401 c 256
 1092 401 959 477 959 685 c 256
 959 904 1062 1154 1300 1154 c 256
 1622 1154 1689 703 1689 454 c 256
 1689 88 1470 0 870 0 c 256
 289 0 110 114 110 455 c 256
 110 548 125 651 155 757 c 257
 288 725 l 257
 261 629 247 539 247 463 c 256
 247 217 362 143 881 143 c 256
 1431 145 1557 185 1557 436 c 257
1542 562 m 257
 1529 762 1471 1013 1298 1013 c 256
 1153 1013 1087 849 1087 698 c 256
 1087 571 1167 532 1305 532 c 256
 1396 532 1477 546 1542 562 c 257
EndSplineSet
EndChar

StartChar: uniE03C
Encoding: 57404 57404 1714
GlifName: uniE_03C_
Width: 1665
VWidth: 0
GlyphClass: 2
Flags: HW
LayerCount: 2
Fore
SplineSet
155 758 m 257
 288 725 l 257
 261 627 247 537 247 461 c 256
 247 224 385 143 788 143 c 256
 1181 143 1376 221 1376 381 c 256
 1376 536 1194 739 880 946 c 257
 880 1089 l 257
 1143 1238 1417 1354 1709 1442 c 257
 1743 1303 l 257
 1460 1214 1237 1124 1032 1016 c 257
 1032 1006 l 257
 1358 765 1518 565 1518 375 c 256
 1518 130 1263 0 781 0 c 256
 300 0 110 130 110 456 c 256
 110 549 125 649 155 758 c 257
EndSplineSet
EndChar

StartChar: uniE03D
Encoding: 57405 57405 1715
GlifName: uniE_03D_
Width: 1529
VWidth: 0
GlyphClass: 2
Flags: HW
LayerCount: 2
Fore
SplineSet
1164 563 m 257
 1297 622 l 257
 1374 417 1420 252 1420 63 c 256
 1420 -313 1169 -516 758 -516 c 256
 324 -516 110 -308 110 73 c 256
 110 216 137 384 188 565 c 257
 320 524 l 257
 280 368 250 212 250 83 c 256
 250 -220 411 -372 762 -372 c 256
 1105 -372 1277 -214 1277 60 c 256
 1277 207 1233 377 1164 563 c 257
EndSplineSet
EndChar

StartChar: uniE03E
Encoding: 57406 57406 1716
GlifName: uniE_03E_
Width: 1506
VWidth: 0
GlyphClass: 2
Flags: HW
LayerCount: 2
Fore
SplineSet
1350 715 m 257
 1308 585 l 257
 1250 604 1184 615 1125 615 c 256
 920 615 766 485 766 300 c 256
 766 181 838 143 1055 124 c 256
 1283 105 1396 56 1396 -119 c 256
 1396 -403 1107 -553 718 -553 c 256
 307 -553 115 -381 115 5 c 256
 115 116 128 235 155 370 c 257
 291 345 l 257
 265 212 252 102 252 -5 c 256
 252 -300 391 -412 718 -412 c 256
 1012 -412 1259 -310 1259 -147 c 256
 1259 -64 1205 -34 1028 -17 c 256
 743 8 628 81 628 283 c 256
 628 552 829 756 1116 756 c 256
 1193 756 1276 741 1350 715 c 257
EndSplineSet
EndChar

StartChar: uniE03F
Encoding: 57407 57407 1717
GlifName: uniE_03F_
Width: 1968
VWidth: 0
GlyphClass: 2
Flags: HW
LayerCount: 2
Fore
SplineSet
155 758 m 257
 288 725 l 257
 261 627 247 537 247 461 c 256
 247 224 384 143 788 143 c 256
 1181 143 1373 221 1373 381 c 256
 1373 535 1196 735 880 946 c 257
 880 1089 l 257
 1143 1238 1417 1354 1709 1442 c 257
 1743 1303 l 257
 1460 1214 1237 1124 1032 1016 c 257
 1032 1006 l 257
 1288 816 1422 673 1534 448 c 256
 1654 211 1751 143 1967 143 c 258
 1969 143 l 257
 1969 0 l 257
 1967 0 l 258
 1722 0 1576 94 1476 330 c 257
 1470 110 1236 0 786 0 c 256
 300 0 110 130 110 456 c 256
 110 549 125 649 155 758 c 257
EndSplineSet
EndChar

StartChar: uniE040
Encoding: 57408 57408 1718
GlifName: uniE_040
Width: 1728
VWidth: 0
GlyphClass: 2
Flags: HW
LayerCount: 2
Fore
SplineSet
188 565 m 257
 320 524 l 257
 280 368 250 212 250 83 c 256
 250 -220 410 -372 761 -372 c 256
 1110 -372 1277 -216 1277 68 c 256
 1277 207 1233 374 1164 563 c 257
 1299 623 l 257
 1366 437 l 257
 1429 248 1494 142 1727 142 c 258
 1728 142 l 257
 1728 0 l 257
 1727 0 l 258
 1587 0 1461 52 1403 151 c 257
 1447 -283 1203 -516 758 -516 c 256
 324 -516 110 -308 110 73 c 256
 110 216 137 384 188 565 c 257
EndSplineSet
EndChar

StartChar: uniE041
Encoding: 57409 57409 1719
GlifName: uniE_041
Width: 582
VWidth: 0
GlyphClass: 2
Flags: HW
LayerCount: 2
Fore
SplineSet
413 784 m 257
 448 640 473 508 473 397 c 256
 473 155 355 0 53 0 c 258
 0 0 l 258
 -21 0 -27 19 -27 71 c 256
 -27 123 -21 143 0 143 c 258
 53 143 l 258
 258 143 335 236 335 401 c 256
 335 493 311 610 279 747 c 257
 413 784 l 257
EndSplineSet
EndChar

StartChar: uniE042
Encoding: 57410 57410 1720
GlifName: uniE_042
Width: 844
VWidth: 0
GlyphClass: 2
Flags: HW
LayerCount: 2
Fore
SplineSet
495 466 m 258
 495 257 540 143 767 143 c 258
 844 143 l 257
 844 0 l 257
 763 0 l 258
 592 0 458 79 422 225 c 257
 385 78 228 0 53 0 c 258
 0 0 l 258
 -21 0 -27 19 -27 71 c 256
 -27 123 -21 143 0 143 c 258
 53 143 l 258
 304 143 351 259 351 466 c 258
 351 605 l 257
 495 605 l 257
 495 466 l 258
EndSplineSet
EndChar

StartChar: uniE043
Encoding: 57411 57411 1721
GlifName: uniE_043
Width: 1421
VWidth: 0
GlyphClass: 2
Flags: HW
LayerCount: 2
Fore
SplineSet
1422 143 m 257
 1422 0 l 257
 1142 0 l 257
 1264 -39 1347 -117 1347 -231 c 256
 1347 -475 1040 -587 744 -587 c 256
 347 -587 110 -414 110 -50 c 256
 110 161 140 311 180 467 c 257
 313 431 l 257
 276 281 249 146 249 -36 c 256
 249 -328 425 -445 743 -445 c 256
 960 -445 1214 -384 1214 -204 c 256
 1214 -65 1044 -40 733 -1 c 257
 753 143 l 257
 1422 143 l 257
EndSplineSet
EndChar

StartChar: uniE044
Encoding: 57412 57412 1722
GlifName: uniE_044
Width: 599
VWidth: 0
GlyphClass: 2
Flags: HW
LayerCount: 2
Fore
SplineSet
167 1350 m 257
 310 1350 l 257
 310 421 l 258
 310 223 377 143 599 143 c 258
 599 143 l 257
 599 0 l 257
 599 0 l 258
 314 0 167 139 167 419 c 258
 167 1350 l 257
EndSplineSet
EndChar

StartChar: uniE045
Encoding: 57413 57413 1723
GlifName: uniE_045
Width: 1359
VWidth: 0
GlyphClass: 2
Flags: HW
LayerCount: 2
Fore
SplineSet
475 818 m 256
 561 818 650 781 780 722 c 256
 915 660 1048 603 1201 575 c 257
 1199 411 l 257
 1128 392 1052 370 976 343 c 257
 1053 159 1145 143 1302 143 c 258
 1359 143 l 257
 1359 0 l 257
 1299 0 l 258
 1100 0 960 50 871 311 c 257
 535 185 251 -9 251 -282 c 256
 251 -512 484 -619 761 -619 c 256
 922 -619 1083 -583 1206 -534 c 257
 1260 -669 l 257
 1117 -731 942 -773 763 -773 c 256
 399 -773 110 -609 110 -294 c 256
 110 103 535 349 1012 494 c 257
 891 517 792 563 703 605 c 256
 614 647 545 677 485 677 c 256
 366 677 314 589 287 469 c 258
 281 439 l 257
 161 462 l 257
 168 496 l 258
 207 691 298 818 475 818 c 256
EndSplineSet
EndChar

StartChar: uniE046
Encoding: 57414 57414 1724
GlifName: uniE_046
Width: 1299
VWidth: 0
GlyphClass: 2
Flags: HW
LayerCount: 2
Fore
SplineSet
467 809 m 256
 557 809 653 766 767 713 c 256
 885 658 1022 597 1189 566 c 257
 1189 432 l 257
 789 166 l 258
 620 53 442 0 226 0 c 258
 0 0 l 258
 -21 0 -27 20 -27 71 c 256
 -27 122 -21 143 0 143 c 258
 245 143 l 258
 428 143 577 185 723 279 c 258
 1025 477 l 257
 890 502 782 552 690 595 c 256
 606 635 536 667 471 667 c 256
 356 667 302 582 275 460 c 258
 269 430 l 257
 149 453 l 257
 156 486 l 258
 193 674 282 809 467 809 c 256
EndSplineSet
EndChar

StartChar: uniE047
Encoding: 57415 57415 1725
GlifName: uniE_047
Width: 1346
VWidth: 0
GlyphClass: 2
Flags: HW
LayerCount: 2
Fore
SplineSet
467 809 m 256
 557 809 653 766 767 713 c 256
 885 658 1022 597 1189 566 c 257
 1189 432 l 257
 980 293 l 257
 1062 179 1135 143 1277 143 c 258
 1346 143 l 257
 1346 0 l 257
 1273 0 l 258
 1103 0 980 58 881 227 c 257
 789 166 l 258
 620 53 442 0 226 0 c 258
 0 0 l 258
 -21 0 -27 20 -27 71 c 256
 -27 122 -21 143 0 143 c 258
 245 143 l 258
 428 143 577 185 723 279 c 258
 1025 477 l 257
 890 502 782 552 690 595 c 256
 606 635 536 667 471 667 c 256
 356 667 302 582 275 460 c 258
 269 430 l 257
 149 453 l 257
 156 486 l 258
 193 674 282 809 467 809 c 256
EndSplineSet
EndChar

StartChar: uniE048
Encoding: 57416 57416 1726
GlifName: uniE_048
Width: 1277
VWidth: 0
GlyphClass: 2
Flags: HW
LayerCount: 2
Fore
SplineSet
697 976 m 257
 970 340 l 258
 1035 188 1117 143 1260 143 c 258
 1278 143 l 257
 1278 0 l 257
 1259 0 l 258
 1092 0 961 58 887 210 c 257
 804 65 646 -10 478 -10 c 256
 347 -10 211 35 100 132 c 257
 171 247 l 257
 265 169 375 133 478 133 c 256
 617 133 746 197 822 320 c 257
 561 911 l 257
 697 976 l 257
EndSplineSet
EndChar

StartChar: uniE049
Encoding: 57417 57417 1727
GlifName: uniE_049
Width: 924
VWidth: 0
GlyphClass: 2
Flags: HW
LayerCount: 2
Fore
SplineSet
397 579 m 257
 534 623 l 257
 587 430 l 258
 648 207 723 143 923 143 c 258
 924 143 l 257
 924 0 l 257
 923 0 l 258
 785 0 672 49 619 135 c 257
 636 -219 465 -417 43 -580 c 257
 -16 -450 l 257
 350 -310 490 -162 490 97 c 256
 490 216 460 369 397 579 c 257
EndSplineSet
EndChar

StartChar: uniE04A
Encoding: 57418 57418 1728
GlifName: uniE_04A_
Width: 2751
VWidth: 0
GlyphClass: 2
Flags: HW
LayerCount: 2
Fore
SplineSet
187 561 m 257
 316 523 l 257
 282 402 249 229 249 84 c 256
 249 -239 404 -369 736 -369 c 256
 1090 -369 1217 -225 1217 42 c 256
 1217 182 1176 372 1127 545 c 257
 1267 595 l 257
 1315 411 l 257
 1353 242 1410 143 1561 143 c 256
 1683 143 1746 213 1761 379 c 258
 1777 566 l 257
 1908 555 l 257
 1895 386 l 258
 1881 218 1953 143 2082 143 c 256
 2207 143 2263 213 2263 359 c 256
 2263 423 2253 515 2231 625 c 257
 2369 653 l 257
 2395 473 l 258
 2431 227 2526 143 2749 143 c 258
 2751 143 l 257
 2751 0 l 257
 2749 0 l 258
 2535 0 2395 88 2363 244 c 257
 2346 81 2251 0 2096 0 c 256
 1946 0 1858 69 1827 191 c 257
 1794 66 1693 0 1562 0 c 256
 1448 0 1386 48 1343 126 c 257
 1375 -304 1173 -513 740 -513 c 256
 304 -513 110 -315 110 64 c 256
 110 224 144 420 187 561 c 257
EndSplineSet
EndChar

StartChar: uniE04B
Encoding: 57419 57419 1729
GlifName: uniE_04B_
Width: 1661
VWidth: 0
GlyphClass: 2
Flags: HW
LayerCount: 2
Fore
SplineSet
699 143 m 256
 823 142 887 212 902 379 c 258
 918 566 l 257
 1049 555 l 257
 1036 386 l 258
 1023 218 1094 143 1229 143 c 256
 1350 143 1410 215 1410 362 c 256
 1410 431 1397 561 1381 644 c 257
 1519 677 l 257
 1537 592 1552 453 1552 364 c 256
 1552 122 1450 0 1247 0 c 256
 1096 0 999 69 968 191 c 257
 930 64 837 0 694 0 c 256
 539 0 444 77 419 219 c 257
 378 88 232 0 53 0 c 258
 0 0 l 258
 -19 0 -27 22 -27 73 c 256
 -27 123 -20 143 0 143 c 258
 53 143 l 258
 254 143 347 233 370 461 c 258
 384 614 l 257
 528 601 l 257
 509 405 l 258
 492 235 558 144 699 143 c 256
EndSplineSet
EndChar

StartChar: uniE04C
Encoding: 57420 57420 1730
GlifName: uniE_04C_
Width: 1892
VWidth: 0
GlyphClass: 2
Flags: HW
LayerCount: 2
Fore
SplineSet
1223 143 m 256
 1348 143 1404 213 1404 359 c 256
 1404 423 1393 515 1371 625 c 257
 1511 653 l 257
 1537 473 l 258
 1573 227 1667 143 1890 143 c 258
 1892 143 l 257
 1892 0 l 257
 1890 0 l 258
 1676 0 1537 88 1505 244 c 257
 1488 81 1392 0 1237 0 c 256
 1091 0 998 70 968 191 c 257
 930 64 838 0 695 0 c 256
 539 0 444 77 419 219 c 257
 378 88 232 0 53 0 c 258
 0 0 l 258
 -19 0 -27 22 -27 73 c 256
 -27 123 -19 143 0 143 c 258
 53 143 l 258
 254 143 347 233 370 461 c 258
 384 614 l 257
 528 601 l 257
 509 405 l 258
 492 235 558 144 699 143 c 256
 823 142 886 212 901 379 c 258
 918 566 l 257
 1049 555 l 257
 1035 386 l 258
 1022 218 1094 143 1223 143 c 256
EndSplineSet
EndChar

StartChar: uniE04D
Encoding: 57421 57421 1731
GlifName: uniE_04D_
Width: 2509
VWidth: 0
GlyphClass: 2
Flags: HW
LayerCount: 2
Fore
SplineSet
1961 598 m 256
 1832 598 1664 503 1449 184 c 257
 1524 153 1623 143 1735 143 c 256
 1956 143 2178 184 2178 389 c 256
 2178 511 2095 598 1961 598 c 256
1980 740 m 256
 2201 740 2331 585 2331 388 c 256
 2331 311 2308 250 2270 203 c 257
 2323 162 2405 143 2508 143 c 258
 2509 143 l 257
 2509 0 l 257
 2508 0 l 258
 2370 0 2262 37 2192 105 c 257
 2080 26 1909 0 1724 0 c 256
 1572 0 1448 19 1354 58 c 257
 1353 -330 1151 -508 738 -508 c 256
 304 -508 110 -311 110 63 c 256
 110 228 144 424 187 565 c 257
 316 528 l 257
 282 407 249 233 249 74 c 256
 249 -234 404 -365 737 -365 c 256
 1090 -365 1217 -220 1217 49 c 256
 1217 187 1180 356 1127 542 c 257
 1267 599 l 257
 1297 494 1324 363 1339 238 c 257
 1578 594 1784 740 1980 740 c 256
EndSplineSet
EndChar

StartChar: uniE04E
Encoding: 57422 57422 1732
GlifName: uniE_04E_
Width: 1687
VWidth: 0
GlyphClass: 2
Flags: HW
LayerCount: 2
Fore
SplineSet
1208 598 m 256
 1079 598 911 503 696 184 c 257
 771 153 870 143 982 143 c 256
 1203 143 1425 184 1425 389 c 256
 1425 511 1342 598 1208 598 c 256
351 605 m 257
 495 605 l 257
 495 478 l 258
 496 319 532 274 593 236 c 257
 820 597 1034 740 1227 740 c 256
 1448 740 1578 585 1578 388 c 256
 1578 85 1300 0 971 0 c 256
 684 0 492 71 422 225 c 257
 385 78 228 0 53 0 c 258
 0 0 l 258
 -21 0 -27 19 -27 71 c 256
 -27 123 -21 143 0 143 c 258
 53 143 l 258
 304 143 351 259 351 466 c 258
 351 605 l 257
EndSplineSet
EndChar

StartChar: uniE04F
Encoding: 57423 57423 1733
GlifName: uniE_04F_
Width: 1757
VWidth: 0
GlyphClass: 2
Flags: HW
LayerCount: 2
Fore
SplineSet
351 605 m 257
 495 605 l 257
 495 478 l 258
 496 319 532 274 593 236 c 257
 820 597 1034 740 1227 740 c 256
 1448 740 1578 585 1578 388 c 256
 1578 311 1556 250 1518 203 c 257
 1573 162 1651 143 1756 143 c 258
 1757 143 l 257
 1757 0 l 257
 1756 0 l 258
 1624 0 1511 33 1438 105 c 257
 1326 27 1156 0 971 0 c 256
 684 0 492 71 422 225 c 257
 385 78 228 0 53 0 c 258
 0 0 l 258
 -21 0 -27 19 -27 71 c 256
 -27 123 -21 143 0 143 c 258
 53 143 l 258
 304 143 351 259 351 466 c 258
 351 605 l 257
1208 598 m 256
 1079 598 911 503 696 184 c 257
 771 153 870 143 982 143 c 256
 1203 143 1425 184 1425 389 c 256
 1425 511 1342 598 1208 598 c 256
EndSplineSet
EndChar

StartChar: uniE050
Encoding: 57424 57424 1734
GlifName: uniE_050
Width: 1698
VWidth: 0
GlyphClass: 2
Flags: HW
LayerCount: 2
Fore
SplineSet
581 143 m 257
 902 143 l 258
 1128 143 1343 179 1343 385 c 256
 1343 510 1261 598 1126 598 c 256
 993 598 811 502 581 143 c 257
415 143 m 257
 436 176 454 205 474 235 c 257
 474 1350 l 257
 616 1350 l 257
 616 634 l 258
 616 540 613 459 601 371 c 257
 780 614 966 740 1146 740 c 256
 1367 740 1496 584 1496 388 c 256
 1496 323 1480 268 1453 223 c 257
 1508 172 1587 143 1698 143 c 258
 1699 143 l 257
 1699 0 l 257
 1698 0 l 258
 1544 0 1455 53 1383 127 c 257
 1272 30 1084 0 878 0 c 258
 110 0 l 257
 110 143 l 257
 415 143 l 257
EndSplineSet
EndChar

StartChar: uniE051
Encoding: 57425 57425 1735
GlifName: uniE_051
Width: 1351
VWidth: 0
GlyphClass: 2
Flags: HW
LayerCount: 2
Fore
SplineSet
4 0 m 258
 -17 0 -24 19 -24 71 c 256
 -24 123 -17 143 4 143 c 258
 161 143 l 257
 182 176 200 205 220 235 c 257
 220 1350 l 257
 362 1350 l 257
 362 634 l 258
 362 540 359 459 347 371 c 257
 526 614 712 740 892 740 c 256
 1113 740 1242 584 1242 388 c 256
 1242 183 1125 0 624 0 c 258
 4 0 l 258
327 143 m 257
 648 143 l 258
 874 143 1089 179 1089 385 c 256
 1089 510 1007 598 872 598 c 256
 739 598 557 502 327 143 c 257
EndSplineSet
EndChar

StartChar: uniE052
Encoding: 57426 57426 1736
GlifName: uniE_052
Width: 1446
VWidth: 0
GlyphClass: 2
Flags: HW
LayerCount: 2
Fore
SplineSet
4 0 m 258
 -17 0 -24 19 -24 71 c 256
 -24 123 -17 143 4 143 c 258
 162 143 l 257
 183 176 201 205 221 235 c 257
 221 1350 l 257
 363 1350 l 257
 363 634 l 258
 363 540 361 459 349 371 c 257
 528 614 713 740 893 740 c 256
 1114 740 1243 584 1243 388 c 256
 1243 323 1227 268 1200 223 c 257
 1255 172 1334 143 1445 143 c 258
 1446 143 l 257
 1446 0 l 257
 1445 0 l 258
 1291 0 1203 53 1131 127 c 257
 1020 30 831 0 625 0 c 258
 4 0 l 258
328 143 m 257
 649 143 l 258
 875 143 1090 179 1090 385 c 256
 1090 510 1009 598 874 598 c 256
 741 598 558 502 328 143 c 257
EndSplineSet
EndChar

StartChar: uniE053
Encoding: 57427 57427 1737
GlifName: uniE_053
Width: 1218
VWidth: 0
GlyphClass: 2
Flags: HW
LayerCount: 2
Fore
SplineSet
946 516 m 256
 946 628 813 673 686 673 c 256
 562 673 443 640 353 575 c 257
 353 568 l 257
 685 250 l 257
 831 327 946 421 946 516 c 256
1079 522 m 256
 1079 387 955 277 809 192 c 257
 884 143 980 143 1071 143 c 258
 1218 143 l 257
 1218 0 l 257
 1052 0 l 258
 905 0 784 17 671 102 c 257
 409 -16 251 -158 251 -347 c 256
 251 -584 506 -663 773 -663 c 256
 901 -663 1030 -644 1132 -615 c 257
 1174 -750 l 257
 1051 -787 905 -808 764 -808 c 256
 423 -808 110 -688 110 -347 c 256
 110 -97 304 73 555 194 c 257
 204 532 l 257
 206 643 l 257
 337 751 504 811 687 811 c 256
 875 811 1079 728 1079 522 c 256
EndSplineSet
EndChar

StartChar: uniE054
Encoding: 57428 57428 1738
GlifName: uniE_054
Width: 1106
VWidth: 0
GlyphClass: 2
Flags: HW
LayerCount: 2
Fore
SplineSet
278 456 m 256
 278 305 401 209 530 209 c 256
 555 209 612 217 666 227 c 258
 972 285 l 257
 997 145 l 257
 477 45 l 258
 322 16 174 0 47 0 c 258
 0 0 l 258
 -21 0 -27 23 -27 71 c 256
 -27 118 -21 143 0 143 c 258
 43 143 l 258
 125 143 205 149 312 166 c 257
 210 219 135 315 135 456 c 256
 135 727 341 905 567 905 c 256
 718 905 813 852 907 751 c 257
 823 650 l 257
 756 721 671 763 569 763 c 256
 422 763 278 651 278 456 c 256
EndSplineSet
EndChar

StartChar: uniE055
Encoding: 57429 57429 1739
GlifName: uniE_055
Width: 1186
VWidth: 0
GlyphClass: 2
Flags: HW
LayerCount: 2
Fore
SplineSet
634 673 m 256
 511 673 391 641 301 575 c 257
 301 568 l 257
 633 250 l 257
 780 328 895 420 895 516 c 256
 895 626 763 673 634 673 c 256
635 811 m 256
 824 811 1029 727 1029 522 c 256
 1029 387 904 277 758 192 c 257
 834 143 920 143 1013 143 c 258
 1187 143 l 257
 1187 0 l 257
 995 0 l 258
 846 0 740 14 624 103 c 257
 493 40 350 0 162 0 c 258
 0 0 l 258
 -20 0 -27 19 -27 71 c 256
 -27 123 -20 143 0 143 c 258
 151 143 l 258
 293 143 398 166 497 201 c 257
 152 532 l 257
 153 643 l 257
 284 751 452 811 635 811 c 256
EndSplineSet
EndChar

StartChar: uniE056
Encoding: 57430 57430 1740
GlifName: uniE_056
Width: 1840
VWidth: 0
GlyphClass: 2
Flags: HW
LayerCount: 2
Fore
SplineSet
1491 558 m 258
 1491 245 1577 143 1839 143 c 258
 1840 143 l 257
 1840 0 l 257
 1839 0 l 258
 1608 0 1457 100 1421 275 c 257
 1358 78 1177 0 775 0 c 256
 295 0 110 112 110 402 c 256
 110 480 123 583 145 673 c 257
 273 644 l 257
 254 561 241 467 241 405 c 256
 241 210 374 143 773 143 c 256
 1228 143 1349 234 1349 558 c 258
 1349 1347 l 257
 1491 1347 l 257
 1491 558 l 258
EndSplineSet
EndChar

StartChar: uniE057
Encoding: 57431 57431 1741
GlifName: uniE_057
Width: 874
VWidth: 0
GlyphClass: 2
Flags: HW
LayerCount: 2
Fore
SplineSet
875 1442 m 257
 909 1303 l 257
 627 1214 404 1124 199 1016 c 257
 199 1006 l 257
 527 768 685 564 685 359 c 256
 685 127 486 0 118 0 c 258
 0 0 l 258
 -19 0 -27 21 -27 72 c 256
 -27 123 -19 143 0 143 c 258
 115 143 l 258
 398 143 542 218 542 368 c 256
 542 529 377 718 47 946 c 257
 47 1089 l 257
 310 1238 583 1354 875 1442 c 257
EndSplineSet
EndChar

StartChar: uniE058
Encoding: 57432 57432 1742
GlifName: uniE_058
Width: 1133
VWidth: 0
GlyphClass: 2
Flags: HW
LayerCount: 2
Fore
SplineSet
875 1442 m 257
 909 1303 l 257
 627 1214 404 1124 199 1016 c 257
 199 1006 l 257
 457 817 597 664 706 439 c 256
 817 211 915 143 1133 143 c 258
 1133 143 l 257
 1133 0 l 257
 1133 0 l 258
 888 0 738 95 637 331 c 257
 635 110 461 0 123 0 c 258
 0 0 l 258
 -19 0 -27 21 -27 72 c 256
 -27 123 -19 143 0 143 c 258
 121 143 l 258
 400 143 542 218 542 368 c 256
 542 532 370 723 47 946 c 257
 47 1089 l 257
 310 1238 583 1354 875 1442 c 257
EndSplineSet
EndChar

StartChar: uniE059
Encoding: 57433 57433 1743
GlifName: uniE_059
Width: 1533
VWidth: 0
GlyphClass: 2
Flags: HW
LayerCount: 2
Fore
SplineSet
1533 143 m 257
 1533 0 l 257
 1520 0 l 258
 1381 0 1257 54 1208 157 c 257
 1207 15 l 258
 1206 -358 1004 -551 635 -551 c 256
 297 -551 110 -367 110 -69 c 256
 110 63 140 214 201 369 c 257
 328 321 l 257
 277 185 249 50 249 -55 c 256
 249 -282 384 -409 651 -409 c 256
 936 -409 1067 -264 1067 39 c 258
 1067 1350 l 257
 1210 1350 l 257
 1211 463 l 258
 1211 262 1279 143 1520 143 c 258
 1533 143 l 257
EndSplineSet
EndChar

StartChar: uniE05A
Encoding: 57434 57434 1744
GlifName: uniE_05A_
Width: 588
VWidth: 0
GlyphClass: 2
Flags: HW
LayerCount: 2
Fore
SplineSet
0 143 m 256
 227 143 278 234 278 437 c 258
 278 1350 l 257
 421 1350 l 257
 421 437 l 258
 421 149 295 0 0 0 c 256
 -19 0 -28 20 -28 71 c 256
 -28 122 -19 143 0 143 c 256
EndSplineSet
EndChar

StartChar: uniE05B
Encoding: 57435 57435 1745
GlifName: uniE_05B_
Width: 699
VWidth: 0
GlyphClass: 2
Flags: HW
LayerCount: 2
Fore
SplineSet
421 459 m 258
 421 263 457 143 699 143 c 258
 700 143 l 257
 700 0 l 257
 699 0 l 258
 515 0 376 81 349 227 c 257
 322 80 187 0 0 0 c 256
 -19 0 -27 20 -27 71 c 256
 -27 122 -19 143 0 143 c 256
 245 143 278 255 278 451 c 258
 278 1350 l 257
 421 1350 l 257
 421 459 l 258
EndSplineSet
EndChar

StartChar: uniE05C
Encoding: 57436 57436 1746
GlifName: uniE_05C_
Width: 1474
VWidth: 0
GlyphClass: 2
Flags: HW
LayerCount: 2
Fore
SplineSet
809 608 m 256
 631 608 570 374 535 205 c 257
 566 198 608 188 640 179 c 256
 743 151 819 132 890 132 c 256
 988 132 1030 188 1030 317 c 256
 1030 452 972 608 809 608 c 256
812 748 m 256
 1000 748 1080 622 1146 466 c 256
 1210 312 1288 143 1473 143 c 258
 1474 143 l 257
 1474 0 l 257
 1473 0 l 258
 1306 0 1206 95 1137 259 c 257
 1132 100 1052 -11 902 -11 c 256
 807 -11 706 13 593 42 c 256
 506 65 427 83 375 83 c 256
 287 83 253 35 253 -78 c 258
 253 -773 l 257
 110 -773 l 257
 110 -67 l 258
 110 130 208 256 405 230 c 257
 451 473 557 748 812 748 c 256
EndSplineSet
EndChar

StartChar: uniE05D
Encoding: 57437 57437 1747
GlifName: uniE_05D_
Width: 1166
VWidth: 0
GlyphClass: 2
Flags: HW
LayerCount: 2
Fore
SplineSet
0 143 m 256
 182 143 257 294 330 444 c 256
 407 602 483 753 674 753 c 256
 881 753 1019 536 1019 330 c 256
 1019 125 893 -11 694 -11 c 256
 549 -11 422 63 323 181 c 257
 253 77 159 0 0 0 c 256
 -21 0 -27 19 -27 71 c 256
 -27 123 -21 143 0 143 c 256
395 295 m 257
 486 189 582 131 695 131 c 256
 810 131 891 208 891 331 c 256
 891 464 796 612 672 612 c 256
 553 612 494 513 431 372 c 258
 395 295 l 257
EndSplineSet
EndChar

StartChar: uniE05E
Encoding: 57438 57438 1748
GlifName: uniE_05E_
Width: 1331
VWidth: 0
GlyphClass: 2
Flags: HW
LayerCount: 2
Fore
SplineSet
395 295 m 257
 486 189 582 131 695 131 c 256
 810 131 891 208 891 331 c 256
 891 464 796 612 672 612 c 256
 553 612 494 513 431 372 c 258
 395 295 l 257
0 143 m 256
 182 143 257 294 330 445 c 256
 407 603 484 753 671 753 c 256
 865 753 946 597 1016 439 c 256
 1084 286 1155 143 1331 143 c 258
 1332 143 l 257
 1332 0 l 257
 1331 0 l 258
 1166 0 1043 108 994 262 c 257
 976 91 855 -11 694 -11 c 256
 549 -11 422 63 323 181 c 257
 253 77 159 0 0 0 c 256
 -21 0 -27 19 -27 71 c 256
 -27 123 -21 143 0 143 c 256
EndSplineSet
EndChar

StartChar: uniE05F
Encoding: 57439 57439 1749
GlifName: uniE_05F_
Width: 1184
VWidth: 0
GlyphClass: 2
Flags: HW
LayerCount: 2
Fore
SplineSet
709 839 m 257
 698 1005 l 257
 841 1013 l 257
 877 399 l 258
 888 214 966 143 1183 143 c 258
 1184 143 l 257
 1184 0 l 257
 1183 0 l 258
 971 0 856 54 793 164 c 257
 718 139 637 127 560 127 c 256
 335 127 175 222 175 405 c 256
 175 633 394 792 709 839 c 257
718 704 m 257
 444 673 313 554 313 423 c 256
 313 324 403 262 569 262 c 256
 630 262 700 272 754 287 c 257
 745 317 740 348 737 391 c 258
 718 704 l 257
EndSplineSet
EndChar

StartChar: uniE060
Encoding: 57440 57440 1750
GlifName: uniE_060
Width: 1359
VWidth: 0
GlyphClass: 2
Flags: HW
LayerCount: 2
Fore
SplineSet
0 143 m 258
 46 143 l 258
 170 143 246 157 328 186 c 257
 229 253 122 356 122 495 c 256
 122 639 208 781 345 832 c 257
 184 901 l 257
 240 1033 l 257
 753 813 l 258
 1099 663 1250 533 1250 313 c 256
 1250 111 1108 -11 882 -11 c 256
 743 -11 599 30 473 88 c 257
 356 33 237 0 63 0 c 258
 0 0 l 258
 -20 0 -27 20 -27 71 c 256
 -27 122 -20 143 0 143 c 258
475 227 m 257
 609 294 680 397 680 503 c 256
 680 646 619 748 484 748 c 256
 353 748 257 625 257 493 c 256
 257 369 370 280 475 227 c 257
611 186 m 257
 700 153 801 132 884 132 c 256
 1017 132 1111 184 1111 319 c 256
 1111 451 1021 542 767 653 c 257
 844 452 768 286 611 186 c 257
EndSplineSet
EndChar

StartChar: uniE061
Encoding: 57441 57441 1751
GlifName: uniE_061
Width: 1042
VWidth: 0
GlyphClass: 2
Flags: HW
LayerCount: 2
Fore
SplineSet
557 814 m 256
 730 814 845 688 845 498 c 256
 845 250 633 61 308 17 c 257
 337 -187 449 -331 629 -400 c 257
 644 -391 l 257
 704 -5 811 143 1007 143 c 258
 1042 143 l 257
 1042 0 l 257
 996 0 l 258
 853 0 796 -104 741 -493 c 257
 634 -553 l 257
 380 -466 216 -270 175 0 c 257
 0 0 l 258
 -19 0 -27 23 -27 72 c 256
 -27 120 -19 143 0 143 c 258
 162 143 l 257
 153 541 312 814 557 814 c 256
294 150 m 257
 553 162 721 293 721 485 c 256
 721 600 660 672 560 672 c 256
 389 672 280 457 294 150 c 257
EndSplineSet
EndChar

StartChar: uniE062
Encoding: 57442 57442 1752
GlifName: uniE_062
Width: 979
VWidth: 0
GlyphClass: 2
Flags: HW
LayerCount: 2
Fore
SplineSet
738 144 m 257
 727 350 671 617 491 617 c 256
 346 617 281 461 281 310 c 256
 281 183 362 143 499 143 c 257
 578 143 660 143 738 144 c 257
725 0 m 257
 644 0 564 0 485 0 c 257
 282 0 151 90 151 300 c 256
 151 519 260 758 493 758 c 256
 770 758 856 424 869 143 c 257
 980 143 l 257
 980 0 l 257
 865 0 l 257
 838 -277 582 -460 164 -573 c 257
 110 -441 l 257
 477 -345 695 -197 725 0 c 257
EndSplineSet
EndChar

StartChar: uniE063
Encoding: 57443 57443 1753
GlifName: uniE_063
Width: 1357
VWidth: 0
GlyphClass: 2
Flags: HW
LayerCount: 2
Fore
SplineSet
205 1321 m 257
 337 1373 l 257
 472 1055 545 739 553 386 c 257
 414 373 l 257
 407 710 335 1016 205 1321 c 257
1047 1350 m 257
 1190 1350 l 257
 1190 743 l 258
 1190 139 953 0 330 0 c 258
 150 0 l 257
 150 143 l 257
 335 143 l 258
 837 143 1047 204 1047 715 c 258
 1047 1350 l 257
EndSplineSet
EndChar

StartChar: uniE064
Encoding: 57444 57444 1754
GlifName: uniE_064
Width: 1479
VWidth: 0
GlyphClass: 2
Flags: HW
LayerCount: 2
Fore
SplineSet
220 1321 m 257
 352 1373 l 257
 489 1050 557 741 565 393 c 257
 426 380 l 257
 418 712 352 1012 220 1321 c 257
1047 1350 m 257
 1190 1350 l 257
 1190 421 l 258
 1190 215 1265 143 1478 143 c 258
 1479 143 l 257
 1479 0 l 257
 1478 0 l 258
 1220 0 1089 115 1074 353 c 257
 1073 408 l 257
 888 131 594 0 150 0 c 257
 150 143 l 257
 621 143 880 271 1047 587 c 257
 1047 1350 l 257
EndSplineSet
EndChar

StartChar: uniE065
Encoding: 57445 57445 1755
GlifName: uniE_065
Width: 1947
VWidth: 0
GlyphClass: 2
Flags: HW
LayerCount: 2
Fore
SplineSet
1693 629 m 257
 1677 540 1664 467 1664 385 c 256
 1664 250 1711 143 1946 143 c 258
 1947 143 l 257
 1947 0 l 257
 1946 0 l 258
 1713 0 1586 96 1547 277 c 257
 1416 72 1146 0 785 0 c 256
 300 0 110 176 110 470 c 256
 110 566 131 676 168 785 c 257
 297 745 l 257
 263 646 245 557 245 479 c 256
 245 251 406 143 809 143 c 256
 1345 143 1508 301 1561 650 c 257
 1693 629 l 257
EndSplineSet
EndChar

StartChar: uniE066
Encoding: 57446 57446 1756
GlifName: uniE_066
Width: 961
VWidth: 0
GlyphClass: 2
Flags: HW
LayerCount: 2
Fore
SplineSet
705 562 m 257
 692 762 634 1013 461 1013 c 256
 316 1013 250 849 250 698 c 256
 250 571 329 532 467 532 c 256
 558 532 640 546 705 562 c 257
0 143 m 258
 174 143 l 258
 597 143 719 186 719 436 c 257
 642 416 555 401 455 401 c 256
 254 401 123 477 123 685 c 256
 123 904 225 1154 463 1154 c 256
 785 1154 851 703 851 454 c 256
 851 123 700 0 159 0 c 258
 0 0 l 258
 -21 0 -27 19 -27 71 c 256
 -27 123 -20 143 0 143 c 258
EndSplineSet
EndChar

StartChar: uniE067
Encoding: 57447 57447 1757
GlifName: uniE_067
Width: 1941
VWidth: 0
GlyphClass: 2
Flags: HW
LayerCount: 2
Fore
SplineSet
1438 74 m 257
 1285 22 1090 0 902 0 c 256
 418 0 110 78 110 421 c 256
 110 536 141 655 180 769 c 257
 307 727 l 257
 274 628 247 529 247 433 c 256
 247 196 471 143 902 143 c 256
 1030 143 1176 152 1291 179 c 257
 1170 249 1081 359 1081 529 c 256
 1081 760 1233 902 1439 902 c 256
 1641 902 1797 760 1797 530 c 256
 1797 361 1703 247 1582 176 c 257
 1651 153 1729 143 1811 143 c 258
 1941 143 l 257
 1941 0 l 257
 1790 0 l 258
 1660 0 1551 25 1438 74 c 257
1439 218 m 257
 1568 278 1654 376 1654 526 c 256
 1654 667 1568 764 1439 764 c 256
 1308 764 1224 667 1224 526 c 256
 1224 378 1312 279 1439 218 c 257
EndSplineSet
EndChar

StartChar: uniE068
Encoding: 57448 57448 1758
GlifName: uniE_068
Width: 985
VWidth: 0
GlyphClass: 2
Flags: HW
LayerCount: 2
Fore
SplineSet
134 529 m 256
 134 760 287 902 493 902 c 256
 695 902 851 760 851 530 c 256
 851 361 755 247 634 176 c 257
 703 153 783 143 864 143 c 258
 985 143 l 257
 985 0 l 257
 843 0 l 258
 713 0 603 25 490 74 c 257
 377 25 266 0 133 0 c 258
 0 0 l 258
 -21 0 -28 19 -28 71 c 256
 -28 123 -21 143 0 143 c 258
 118 143 l 258
 201 143 278 153 352 176 c 257
 230 246 134 360 134 529 c 256
492 219 m 257
 621 280 707 376 707 526 c 256
 707 667 622 764 493 764 c 256
 362 764 277 667 277 526 c 256
 277 378 365 280 492 219 c 257
EndSplineSet
EndChar

StartChar: uniE069
Encoding: 57449 57449 1759
GlifName: uniE_069
Width: 1540
VWidth: 0
GlyphClass: 2
Flags: HW
LayerCount: 2
Fore
SplineSet
1282 139 m 257
 1271 345 1216 612 1036 612 c 256
 891 612 825 456 825 305 c 256
 825 178 906 138 1043 138 c 256
 1122 138 1204 138 1282 139 c 257
1272 5 m 257
 1193 3 1110 0 1030 0 c 256
 827 0 696 90 696 299 c 256
 696 518 805 756 1038 756 c 256
 1306 756 1402 435 1415 143 c 257
 1540 143 l 257
 1540 0 l 257
 1410 0 l 257
 1395 -357 1146 -555 753 -555 c 256
 340 -555 110 -348 110 22 c 256
 110 143 132 282 177 434 c 257
 309 384 l 257
 273 247 251 124 251 23 c 256
 251 -272 428 -410 766 -410 c 256
 1076 -410 1265 -264 1272 5 c 257
EndSplineSet
EndChar

StartChar: uniE06E
Encoding: 57454 57454 1764
GlifName: uniE_06E_
Width: 0
VWidth: 0
GlyphClass: 2
Flags: H
LayerCount: 2
Fore
SplineSet
-94 1193 m 257
 25 1193 l 258
 135 1193 239 1214 239 1301 c 256
 239 1354 199 1395 143 1395 c 256
 77 1395 2 1331 -94 1193 c 257
-172 1193 m 257
 -172 1613 l 257
 -97 1613 l 257
 -97 1295 l 257
 -6 1416 68 1469 156 1469 c 256
 247 1469 313 1403 313 1302 c 256
 313 1161 185 1119 25 1119 c 258
 -310 1119 l 257
 -310 1193 l 257
 -172 1193 l 257
EndSplineSet
EndChar

StartChar: uniE06F
Encoding: 57455 57455 1765
GlifName: uniE_06F_
Width: 0
VWidth: 0
GlyphClass: 2
Flags: H
LayerCount: 2
Fore
SplineSet
30 1271 m 257
 73 1252 121 1234 174 1234 c 256
 247 1234 317 1261 317 1333 c 256
 317 1382 283 1417 228 1417 c 256
 171 1417 110 1382 30 1271 c 257
-43 1302 m 257
 53 1433 141 1505 236 1505 c 256
 332 1505 397 1440 397 1330 c 256
 397 1198 277 1133 160 1133 c 256
 85 1133 25 1158 -28 1183 c 256
 -72 1204 -110 1222 -152 1222 c 256
 -224 1222 -269 1154 -313 1087 c 257
 -386 1131 l 257
 -314 1266 -228 1326 -144 1326 c 256
 -107 1326 -76 1315 -43 1302 c 257
EndSplineSet
EndChar

StartChar: uniE070
Encoding: 57456 57456 1766
GlifName: uniE_070
Width: 0
VWidth: 0
GlyphClass: 2
Flags: H
LayerCount: 2
Fore
SplineSet
230 1375 m 257
 230 1236 156 1139 0 1139 c 256
 -157 1139 -230 1237 -230 1375 c 257
 -158 1375 l 257
 -158 1277 -119 1210 0 1210 c 256
 116 1210 158 1281 158 1375 c 257
 230 1375 l 257
EndSplineSet
EndChar

StartChar: uniE071
Encoding: 57457 57457 1767
GlifName: uniE_071
Width: 0
VWidth: 0
GlyphClass: 2
Flags: H
LayerCount: 2
Fore
SplineSet
230 1175 m 257
 -230 1175 l 257
 -230 1247 l 257
 230 1247 l 257
 230 1175 l 257
EndSplineSet
EndChar

StartChar: uniE072
Encoding: 57458 57458 1768
GlifName: uniE_072
Width: 0
VWidth: 0
GlyphClass: 2
Flags: H
LayerCount: 2
Fore
SplineSet
-80 1562 m 256
 -131 1562 -153 1514 -153 1460 c 256
 -153 1416 -139 1377 -107 1339 c 257
 -51 1351 30 1382 30 1450 c 256
 30 1509 -26 1562 -80 1562 c 256
-86 1634 m 256
 16 1634 101 1537 101 1447 c 256
 101 1355 15 1310 -52 1289 c 257
 11 1247 134 1194 226 1169 c 257
 205 1101 l 257
 -20 1165 -227 1273 -227 1464 c 256
 -227 1562 -171 1634 -86 1634 c 256
EndSplineSet
EndChar

StartChar: uniE073
Encoding: 57459 57459 1769
GlifName: uniE_073
Width: 0
VWidth: 0
GlyphClass: 2
Flags: H
LayerCount: 2
Fore
SplineSet
-191 1119 m 257
 -221 1183 l 257
 192 1380 l 257
 223 1316 l 257
 -191 1119 l 257
-184 1420 m 257
 -111 1493 l 257
 -38 1420 l 257
 -111 1348 l 257
 -184 1420 l 257
12 1063 m 257
 85 1136 l 257
 158 1063 l 257
 85 991 l 257
 12 1063 l 257
EndSplineSet
EndChar

StartChar: uniE075
Encoding: 57461 57461 1770
GlifName: uniE_075
Width: 2122
VWidth: 0
GlyphClass: 2
Flags: HW
LayerCount: 2
Fore
SplineSet
1004 1213 m 257
 1077 1094 l 257
 728 891 571 759 541 644 c 257
 1415 644 l 258
 1820 644 2013 599 2013 400 c 256
 2013 144 1709 0 1303 0 c 258
 110 0 l 257
 110 143 l 257
 1336 143 l 258
 1658 143 1865 244 1865 381 c 256
 1865 475 1768 501 1435 501 c 258
 436 501 l 257
 370 574 l 257
 381 781 537 939 1004 1213 c 257
EndSplineSet
EndChar

StartChar: uniE076
Encoding: 57462 57462 1771
GlifName: uniE_076
Width: 1858
VWidth: 0
GlyphClass: 2
Flags: HW
LayerCount: 2
Fore
SplineSet
643 345 m 257
 561 289 l 257
 465 260 271 194 157 146 c 257
 113 266 l 257
 306 339 425 385 517 385 c 256
 564 385 606 373 643 345 c 257
EndSplineSet
Refer: 1716 57406 N 1 0 0 1 353 0 2
EndChar

StartChar: uniE077
Encoding: 57463 57463 1772
GlifName: uniE_077
Width: 1695
VWidth: 0
GlyphClass: 2
Flags: HW
LayerCount: 2
Fore
SplineSet
1296 817 m 257
 1263 954 1233 1062 1138 1062 c 256
 1068 1062 1029 985 998 921 c 256
 891 700 752 559 541 506 c 256
 370 463 251 401 251 272 c 256
 251 170 341 143 487 143 c 258
 1586 143 l 257
 1586 0 l 257
 461 0 l 258
 270 0 110 68 110 263 c 256
 110 501 321 594 511 645 c 256
 684 692 784 803 868 971 c 256
 921 1078 993 1213 1139 1213 c 256
 1339 1213 1383 1036 1425 848 c 257
 1296 817 l 257
EndSplineSet
EndChar

StartChar: uniE078
Encoding: 57464 57464 1773
GlifName: uniE_078
Width: 1484
VWidth: 0
GlyphClass: 2
Flags: HW
LayerCount: 2
Fore
SplineSet
1014 1200 m 257
 1041 1193 1071 1189 1108 1189 c 256
 1192 1189 1292 1197 1292 1281 c 256
 1292 1327 1263 1357 1213 1357 c 256
 1158 1357 1091 1308 1014 1200 c 257
955 1224 m 257
 1042 1357 1129 1425 1215 1425 c 256
 1302 1425 1364 1370 1364 1281 c 256
 1364 1148 1238 1117 1112 1117 c 256
 1003 1117 934 1139 890 1193 c 257
 856 1141 814 1117 736 1117 c 256
 665 1117 613 1140 582 1183 c 257
 553 1140 512 1117 445 1117 c 258
 413 1117 l 258
 309 1117 194 1079 194 991 c 256
 194 953 229 947 271 947 c 258
 856 947 l 257
 856 875 l 257
 269 875 l 258
 187 875 120 906 120 988 c 256
 120 1111 253 1189 413 1189 c 258
 445 1189 l 258
 534 1189 546 1226 546 1311 c 258
 546 1625 l 257
 618 1625 l 257
 618 1314 l 258
 618 1226 634 1189 736 1189 c 256
 830 1189 854 1220 854 1323 c 258
 854 1383 l 257
 926 1383 l 257
 926 1325 l 258
 926 1264 932 1244 955 1224 c 257
EndSplineSet
EndChar

StartChar: uniE079
Encoding: 57465 57465 1774
GlifName: uniE_079
Width: 1186
VWidth: 0
GlyphClass: 2
Flags: HW
LayerCount: 2
Fore
SplineSet
826 1400 m 256
 826 1352 856 1340 906 1340 c 256
 940 1340 968 1346 995 1352 c 257
 989 1416 973 1523 904 1523 c 256
 849 1523 826 1455 826 1400 c 256
999 1284 m 257
 969 1278 937 1273 901 1273 c 256
 816 1273 757 1310 757 1396 c 256
 757 1491 801 1593 904 1593 c 256
 1035 1593 1070 1431 1070 1308 c 256
 1070 1146 959 1117 791 1117 c 258
 725 1117 l 258
 658 1117 613 1140 582 1183 c 257
 553 1140 512 1117 445 1117 c 258
 413 1117 l 258
 309 1117 194 1079 194 991 c 256
 194 953 229 947 271 947 c 258
 856 947 l 257
 856 875 l 257
 269 875 l 258
 187 875 120 906 120 988 c 256
 120 1111 253 1189 413 1189 c 258
 445 1189 l 258
 534 1189 546 1226 546 1311 c 258
 546 1625 l 257
 618 1625 l 257
 618 1314 l 258
 618 1226 630 1189 725 1189 c 258
 810 1189 l 258
 928 1189 987 1197 999 1284 c 257
1038 1704 m 257
 983 1649 l 257
 929 1704 l 257
 983 1758 l 257
 1038 1704 l 257
902 1704 m 257
 847 1649 l 257
 792 1704 l 257
 847 1758 l 257
 902 1704 l 257
EndSplineSet
EndChar

StartChar: uniE07A
Encoding: 57466 57466 1775
GlifName: uniE_07A_
Width: 0
VWidth: 0
GlyphClass: 2
Flags: H
LayerCount: 2
Fore
SplineSet
-127 1410 m 257
 127 1410 l 257
 127 1331 l 257
 -127 1331 l 257
 -127 1410 l 257
EndSplineSet
EndChar

StartChar: uniE07B
Encoding: 57467 57467 1776
GlifName: uniE_07B_
Width: 0
VWidth: 0
GlyphClass: 2
Flags: H
LayerCount: 2
Fore
SplineSet
-117 1290 m 257
 -194 1653 l 257
 -119 1672 l 257
 -44 1308 l 257
 -117 1290 l 257
221 1669 m 257
 221 1365 l 258
 221 1145 93 1114 -67 1114 c 258
 -221 1114 l 257
 -221 1193 l 257
 -63 1193 l 258
 89 1193 142 1218 142 1361 c 258
 142 1669 l 257
 221 1669 l 257
EndSplineSet
EndChar

StartChar: uniE07C
Encoding: 57468 57468 1777
GlifName: uniE_07C_
Width: 0
VWidth: 0
GlyphClass: 2
Flags: H
LayerCount: 2
Fore
SplineSet
13 1189 m 257
 71 1131 l 257
 13 1074 l 257
 -44 1131 l 257
 13 1189 l 257
95 1378 m 257
 -21 1426 l 258
 -49 1438 -70 1444 -88 1444 c 256
 -134 1444 -150 1408 -160 1352 c 257
 -223 1364 l 257
 -207 1452 -174 1516 -92 1516 c 256
 -63 1516 -32 1508 14 1488 c 258
 202 1407 l 257
 196 1336 l 257
 -46 1275 -165 1195 -165 1091 c 256
 -165 1013 -88 977 15 977 c 256
 79 977 145 992 195 1012 c 257
 221 944 l 257
 162 918 89 900 15 900 c 256
 -123 900 -237 959 -237 1086 c 256
 -237 1215 -125 1309 95 1378 c 257
EndSplineSet
EndChar

StartChar: uniE07D
Encoding: 57469 57469 1778
GlifName: uniE_07D_
Width: 0
VWidth: 0
GlyphClass: 2
Flags: H
LayerCount: 2
Fore
SplineSet
-106 1258 m 257
 -38 1189 l 257
 -106 1121 l 257
 -174 1189 l 257
 -106 1258 l 257
106 1258 m 257
 174 1189 l 257
 106 1121 l 257
 37 1189 l 257
 106 1258 l 257
0 1433 m 257
 69 1365 l 257
 0 1296 l 257
 -68 1365 l 257
 0 1433 l 257
EndSplineSet
EndChar

StartChar: uniE07E
Encoding: 57470 57470 1779
GlifName: uniE_07E_
Width: 0
VWidth: 0
GlyphClass: 2
Flags: H
LayerCount: 2
Fore
SplineSet
233 1175 m 257
 216 1136 181 1113 130 1113 c 256
 95 1113 70 1127 51 1143 c 257
 57 979 -45 904 -206 904 c 256
 -381 904 -469 983 -469 1144 c 256
 -469 1216 -455 1296 -436 1357 c 257
 -368 1338 l 257
 -382 1286 -397 1216 -397 1149 c 256
 -397 1026 -337 977 -206 977 c 256
 -77 977 -19 1023 -19 1138 c 256
 -19 1194 -36 1276 -57 1349 c 257
 16 1375 l 257
 36 1291 l 258
 54 1217 72 1185 127 1185 c 256
 180 1185 194 1220 201 1275 c 258
 210 1361 l 257
 277 1356 l 257
 269 1275 l 258
 268 1268 268 1261 268 1255 c 256
 268 1206 291 1185 337 1185 c 256
 389 1185 409 1213 409 1266 c 256
 409 1297 402 1343 394 1385 c 257
 466 1401 l 257
 475 1358 482 1307 482 1268 c 256
 482 1169 441 1113 345 1113 c 256
 290 1113 252 1133 233 1175 c 257
EndSplineSet
EndChar

StartChar: uniE07F
Encoding: 57471 57471 1780
GlifName: uniE_07F_
Width: 0
VWidth: 0
GlyphClass: 2
Flags: H
LayerCount: 2
Fore
SplineSet
-94 1413 m 256
 -94 1465 -52 1506 0 1506 c 256
 52 1506 94 1465 94 1413 c 256
 94 1361 52 1319 0 1319 c 256
 -52 1319 -94 1361 -94 1413 c 256
EndSplineSet
EndChar

StartChar: uniE080
Encoding: 57472 57472 1781
GlifName: uniE_080
Width: 0
VWidth: 0
GlyphClass: 2
Flags: H
LayerCount: 2
Fore
SplineSet
-95 1318 m 257
 -95 1507 l 257
 95 1507 l 257
 95 1318 l 257
 -95 1318 l 257
EndSplineSet
EndChar

StartChar: uniE081
Encoding: 57473 57473 1782
GlifName: uniE_081
Width: 0
VWidth: 0
GlyphClass: 2
Flags: H
LayerCount: 2
Fore
SplineSet
-77 1453 m 256
 -49 1453 -18 1445 14 1432 c 258
 216 1352 l 257
 216 1297 l 257
 121 1194 -19 1121 -216 1119 c 257
 -216 1192 l 257
 -70 1193 43 1240 121 1312 c 257
 -15 1364 l 258
 -40 1374 -59 1379 -75 1379 c 256
 -126 1379 -139 1335 -149 1285 c 257
 -213 1299 l 257
 -200 1380 -165 1453 -77 1453 c 256
EndSplineSet
EndChar

StartChar: uniE082
Encoding: 57474 57474 1783
GlifName: uniE_082
Width: 0
VWidth: 0
GlyphClass: 2
Flags: H
LayerCount: 2
Fore
SplineSet
152 1264 m 256
 152 1324 129 1379 71 1379 c 256
 4 1379 -19 1291 -31 1228 c 257
 10 1216 75 1199 104 1199 c 256
 143 1199 152 1224 152 1264 c 256
-105 1164 m 256
 -141 1164 -148 1142 -148 1106 c 258
 -148 828 l 257
 -222 828 l 257
 -222 1111 l 258
 -222 1195 -181 1246 -100 1241 c 257
 -81 1342 -33 1450 72 1450 c 256
 174 1450 222 1363 222 1259 c 256
 222 1177 183 1127 108 1127 c 256
 76 1127 34 1136 -11 1147 c 256
 -48 1156 -80 1164 -105 1164 c 256
EndSplineSet
EndChar

StartChar: uniE083
Encoding: 57475 57475 1784
GlifName: uniE_083
Width: 0
VWidth: 0
GlyphClass: 2
Flags: H
LayerCount: 2
Fore
SplineSet
59 1391 m 256
 86 1391 104 1410 124 1440 c 257
 179 1405 l 257
 146 1349 118 1317 63 1317 c 256
 36 1317 10 1329 -12 1341 c 256
 -30 1351 -44 1357 -58 1357 c 256
 -85 1357 -104 1334 -121 1307 c 257
 -179 1340 l 257
 -147 1393 -114 1433 -58 1433 c 256
 -28 1433 -4 1420 18 1407 c 256
 33 1398 46 1391 59 1391 c 256
EndSplineSet
EndChar

StartChar: uniE084
Encoding: 57476 57476 1785
GlifName: uniE_084
Width: 0
VWidth: 0
GlyphClass: 2
Flags: H
LayerCount: 2
Fore
SplineSet
86 1129 m 257
 60 1124 30 1119 -3 1119 c 256
 -89 1119 -146 1159 -146 1248 c 256
 -146 1339 -101 1444 0 1444 c 256
 131 1444 162 1282 162 1157 c 256
 162 1020 50 937 -135 887 c 257
 -161 956 l 257
 -13 996 70 1050 86 1129 c 257
-78 1252 m 256
 -78 1203 -48 1192 2 1192 c 256
 35 1192 66 1197 91 1203 c 257
 85 1277 65 1373 -1 1373 c 256
 -52 1373 -78 1312 -78 1252 c 256
EndSplineSet
EndChar

StartChar: uniE085
Encoding: 57477 57477 1786
GlifName: uniE_085
Width: 1022
VWidth: 0
GlyphClass: 2
Flags: HW
LayerCount: 2
Fore
SplineSet
892 1185 m 257
 892 1113 l 257
 264 1113 l 258
 186 1113 113 1140 113 1226 c 256
 113 1329 205 1370 282 1390 c 256
 350 1408 389 1451 422 1518 c 256
 443 1561 474 1620 539 1620 c 256
 629 1620 650 1539 667 1459 c 257
 600 1443 l 257
 586 1501 573 1544 539 1544 c 256
 516 1544 502 1518 489 1491 c 256
 445 1399 387 1340 298 1318 c 256
 229 1301 186 1276 186 1230 c 256
 186 1196 215 1185 274 1185 c 258
 892 1185 l 257
EndSplineSet
EndChar

StartChar: uniE086
Encoding: 57478 57478 1787
GlifName: uniE_086
Width: 0
VWidth: 0
GlyphClass: 2
Flags: H
LayerCount: 2
Fore
SplineSet
153 1436 m 257
 220 1466 l 257
 252 1383 274 1309 274 1229 c 256
 274 1066 161 986 -1 986 c 256
 -179 986 -274 1070 -274 1233 c 256
 -274 1294 -260 1369 -240 1441 c 257
 -171 1421 l 257
 -187 1359 -202 1289 -202 1237 c 256
 -202 1115 -137 1060 -1 1060 c 256
 129 1060 201 1116 201 1228 c 256
 201 1288 181 1362 153 1436 c 257
-1 1393 m 257
 58 1334 l 257
 -1 1274 l 257
 -61 1334 l 257
 -1 1393 l 257
EndSplineSet
EndChar

StartChar: uniE087
Encoding: 57479 57479 1788
GlifName: uniE_087
Width: 0
VWidth: 0
GlyphClass: 2
Flags: H
LayerCount: 2
Fore
SplineSet
-97 1317 m 257
 0 1221 l 257
 97 1318 l 257
 0 1414 l 257
 -97 1317 l 257
-187 1317 m 257
 0 1505 l 257
 187 1318 l 257
 0 1131 l 257
 -187 1317 l 257
EndSplineSet
EndChar

StartChar: uniE088
Encoding: 57480 57480 1789
GlifName: uniE_088
Width: 596
VWidth: 0
GlyphClass: 2
Flags: HW
LayerCount: 2
Fore
SplineSet
130 378 m 257
 220 378 l 257
 220 0 l 257
 130 0 l 257
 130 378 l 257
405 378 m 257
 495 378 l 257
 495 0 l 257
 405 0 l 257
 405 378 l 257
EndSplineSet
EndChar

StartChar: uniE089
Encoding: 57481 57481 1790
GlifName: uniE_089
Width: 695
VWidth: 0
GlyphClass: 2
Flags: HW
LayerCount: 2
Fore
SplineSet
593 77 m 257
 593 0 l 257
 102 0 l 257
 102 77 l 257
 593 77 l 257
EndSplineSet
EndChar

StartChar: uniE08A
Encoding: 57482 57482 1791
GlifName: uniE_08A_
Width: 589
VWidth: 0
GlyphClass: 2
Flags: HW
LayerCount: 2
Fore
SplineSet
189 492 m 257
 218 417 l 258
 247 342 268 312 315 312 c 256
 367 312 384 357 390 421 c 258
 396 486 l 257
 469 482 l 257
 460 356 441 240 306 240 c 256
 289 240 275 245 261 251 c 257
 275 172 284 93 284 0 c 257
 210 0 l 257
 210 180 183 311 121 459 c 257
 189 492 l 257
EndSplineSet
EndChar

StartChar: uniE08B
Encoding: 57483 57483 1792
GlifName: uniE_08B_
Width: 701
VWidth: 0
GlyphClass: 2
Flags: HW
LayerCount: 2
Fore
SplineSet
190 492 m 257
 220 406 l 258
 249 328 264 314 296 314 c 256
 337 314 344 349 348 411 c 258
 352 478 l 257
 419 472 l 257
 415 434 411 394 411 371 c 256
 411 332 427 314 464 314 c 256
 503 314 515 340 515 376 c 256
 515 406 509 450 504 476 c 257
 576 488 l 257
 581 460 587 418 587 385 c 256
 587 300 548 242 464 242 c 256
 427 242 395 259 376 284 c 257
 352 248 310 233 264 251 c 257
 278 172 283 91 283 0 c 257
 210 0 l 257
 210 180 182 313 121 459 c 257
 190 492 l 257
EndSplineSet
EndChar

StartChar: uniE08C
Encoding: 57484 57484 1793
GlifName: uniE_08C_
Width: 602
VWidth: 0
GlyphClass: 2
Flags: HW
LayerCount: 2
Fore
SplineSet
232 501 m 256
 266 501 300 484 324 451 c 258
 342 428 l 257
 446 508 l 257
 493 446 l 257
 356 338 l 257
 321 339 l 257
 277 403 l 258
 264 421 251 427 237 427 c 256
 215 427 195 410 195 388 c 256
 195 380 199 369 205 359 c 258
 330 147 l 258
 348 118 360 84 360 46 c 256
 360 24 354 1 346 -20 c 257
 279 8 l 257
 284 19 289 33 289 46 c 256
 289 68 279 91 268 111 c 258
 143 324 l 258
 129 346 122 369 122 391 c 256
 122 452 174 501 232 501 c 256
EndSplineSet
EndChar

StartChar: uniE08D
Encoding: 57485 57485 1794
GlifName: uniE_08D_
Width: 1319
VWidth: 0
GlyphClass: 2
Flags: HW
LayerCount: 2
Fore
SplineSet
912 17 m 257
 939 157 892 393 827 579 c 257
 965 629 l 257
 1027 450 1066 263 1066 102 c 256
 1066 41 1056 -19 1039 -75 c 257
 1112 -114 1183 -161 1255 -217 c 257
 1173 -313 l 257
 1111 -266 1048 -224 981 -186 c 257
 893 -369 690 -545 456 -545 c 256
 257 -545 110 -444 110 -251 c 256
 110 -28 316 91 536 91 c 256
 676 91 801 65 912 17 c 257
873 -101 m 257
 773 -52 659 -25 531 -25 c 256
 380 -25 235 -89 235 -233 c 256
 235 -351 327 -402 455 -402 c 256
 642 -402 810 -248 873 -101 c 257
EndSplineSet
EndChar

StartChar: uniE08E
Encoding: 57486 57486 1795
GlifName: uniE_08E_
Width: 1574
VWidth: 0
GlyphClass: 2
Flags: HW
LayerCount: 2
Fore
SplineSet
1081 219 m 257
 1210 280 1296 376 1296 526 c 256
 1296 667 1210 760 1081 760 c 256
 950 760 866 667 866 526 c 256
 866 378 954 280 1081 219 c 257
1079 74 m 257
 963 24 860 0 701 0 c 256
 602 0 526 12 454 28 c 256
 408 37 366 45 328 45 c 256
 269 45 251 10 251 -36 c 256
 251 -69 261 -107 273 -142 c 256
 296 -208 324 -275 337 -307 c 257
 203 -357 l 257
 186 -318 160 -252 135 -179 c 256
 120 -130 110 -79 110 -30 c 256
 110 87 176 188 311 188 c 256
 354 188 401 179 448 169 c 256
 515 156 592 141 701 141 c 256
 794 141 856 152 933 176 c 257
 811 246 723 360 723 529 c 256
 723 760 875 902 1081 902 c 256
 1283 902 1439 760 1439 530 c 256
 1439 361 1352 247 1231 176 c 257
 1301 153 1391 143 1473 143 c 258
 1574 143 l 257
 1574 0 l 257
 1447 0 l 258
 1317 0 1192 25 1079 74 c 257
EndSplineSet
EndChar

